<svg width="152" height="111" viewBox="0 0 152 111" fill="none" xmlns="http://www.w3.org/2000/svg">
<g filter="url(#filter0_d_145_407)">
<rect x="24" y="38.9375" width="96.3509" height="39.4508" rx="10" transform="rotate(-15 24 38.9375)" fill="#3BA3FF"/>
</g>
<path d="M49.9703 59.4643C52.3272 58.8328 54.0506 57.4599 54.9063 55.5535L52.4003 54.2373C51.777 55.5431 50.7821 56.3894 49.4298 56.7517C46.8991 57.4298 44.6263 56.1339 43.943 53.5839C43.2597 51.0339 44.5801 48.7752 47.1108 48.097C48.4631 47.7347 49.7479 47.9702 50.9353 48.7701L52.4475 46.3772C50.7584 45.1734 48.5795 44.8462 46.2419 45.4725C42.0305 46.601 39.6825 50.3566 40.7748 54.4328C41.867 58.509 45.7782 60.5876 49.9703 59.4643ZM64.6595 55.2799L68.2142 54.3274L62.8817 49.9587L65.1781 44.0013L61.9712 44.8606L60.2326 49.6539L58.6099 50.0887L57.528 46.0512L54.5143 46.8587L57.2992 57.2521L60.3129 56.4445L59.2569 52.5036L60.8217 52.0843L64.6595 55.2799ZM74.2829 52.8669C77.5864 51.9818 79.3866 49.1183 78.548 45.9887C77.7095 42.8591 74.7187 41.2793 71.4152 42.1645C68.1118 43.0496 66.2922 45.9183 67.1308 49.0479C67.9694 52.1775 70.9795 53.7521 74.2829 52.8669ZM73.6204 50.3941C72.1135 50.7979 70.6645 50.0266 70.1831 48.23C69.7017 46.4334 70.571 45.041 72.0778 44.6372C73.5847 44.2335 75.0143 45.0099 75.4957 46.8065C75.9771 48.6031 75.1272 49.9904 73.6204 50.3941ZM85.311 38.4411C83.92 38.8138 82.9186 39.5584 82.4085 40.6682L82.0876 39.4705L79.2091 40.2417L82.9982 54.3829L86.0119 53.5754L84.7126 48.7264C85.7131 49.3694 86.8844 49.4904 88.1787 49.1436C91.0958 48.3619 92.797 45.6699 91.9222 42.4051C91.0474 39.1402 88.2281 37.6595 85.311 38.4411ZM86.9945 46.8106C85.4877 47.2143 84.058 46.4379 83.5766 44.6413C83.0952 42.8446 83.9451 41.4574 85.452 41.0536C86.9588 40.6499 88.3885 41.4263 88.8699 43.2229C89.3513 45.0195 88.5014 46.4068 86.9945 46.8106ZM100.337 45.8859C103.64 45.0007 105.44 42.1372 104.602 39.0076C103.763 35.878 100.772 34.2983 97.4688 35.1834C94.1653 36.0686 92.3458 38.9373 93.1844 42.0669C94.023 45.1965 97.0331 46.771 100.337 45.8859ZM99.674 43.4131C98.1671 43.8169 96.7181 43.0456 96.2367 41.249C95.7553 39.4524 96.6245 38.0599 98.1314 37.6562C99.6382 37.2524 101.068 38.0289 101.549 39.8255C102.031 41.6221 101.181 43.0093 99.674 43.4131ZM106.964 38.9131L109.359 38.2712L107.592 29.2822L103.999 30.245L106.964 38.9131ZM109.461 43.4411C110.542 43.1512 111.103 42.1521 110.844 41.1862C110.58 40.2009 109.611 39.6739 108.529 39.9638C107.447 40.2536 106.871 41.1948 107.135 42.18C107.394 43.146 108.379 43.731 109.461 43.4411Z" fill="white"/>
<defs>
<filter id="filter0_d_145_407" x="0.245117" y="0.245117" width="150.789" height="110.554" filterUnits="userSpaceOnUse" color-interpolation-filters="sRGB">
<feFlood flood-opacity="0" result="BackgroundImageFix"/>
<feColorMatrix in="SourceAlpha" type="matrix" values="0 0 0 0 0 0 0 0 0 0 0 0 0 0 0 0 0 0 127 0" result="hardAlpha"/>
<feMorphology radius="4" operator="erode" in="SourceAlpha" result="effect1_dropShadow_145_407"/>
<feOffset dy="10"/>
<feGaussianBlur stdDeviation="15"/>
<feComposite in2="hardAlpha" operator="out"/>
<feColorMatrix type="matrix" values="0 0 0 0 0 0 0 0 0 0 0 0 0 0 0 0 0 0 0.25 0"/>
<feBlend mode="normal" in2="BackgroundImageFix" result="effect1_dropShadow_145_407"/>
<feBlend mode="normal" in="SourceGraphic" in2="effect1_dropShadow_145_407" result="shape"/>
</filter>
</defs>
</svg>
