<svg width="152" height="112" viewBox="0 0 152 112" fill="none" xmlns="http://www.w3.org/2000/svg">
<g filter="url(#filter0_d_145_404)">
<rect x="24" y="39.1384" width="97.1274" height="39.7687" rx="10" transform="rotate(-15 24 39.1384)" fill="#C378F7"/>
</g>
<path d="M48.2195 52.3558L50.3401 48.0606L49.7966 46.0322L40.3305 48.5686L41.0034 51.08L46.7603 49.5375L44.8222 53.4318L45.3761 55.4989L46.8057 55.1158C48.583 54.6396 49.5072 55.0752 49.7816 56.0991C50.0766 57.2002 49.2815 58.0966 47.7167 58.5159C46.3064 58.8937 44.7578 58.8325 43.5269 58.3341L42.9517 61.0557C44.5138 61.631 46.6047 61.6298 48.498 61.1225C52.3423 60.0924 53.5413 57.5349 52.9305 55.2553C52.3973 53.2655 50.7572 52.09 48.2195 52.3558ZM54.6007 54.7043L60.0678 53.2394L59.4208 50.8245L53.9536 52.2895L54.6007 54.7043ZM58.8719 43.6005L60.1453 48.3528L62.9271 47.6074L62.337 45.4051L66.8189 44.2042L64.9102 56.4764L68.3102 55.5653L70.2531 42.725L69.7096 40.6965L58.8719 43.6005ZM79.1897 41.5106L80.1533 45.7248C80.5847 47.7212 80.9501 49.5489 79.5206 49.9319C79.3853 49.9682 79.2256 49.9902 79.0659 50.0123L79.5739 52.5265C80.2142 52.5206 80.7372 52.4633 81.2008 52.3391C83.7702 51.6506 83.6754 48.9014 82.8361 45.1509L82.441 43.2897L85.7251 42.4098L87.8474 50.3303L90.8611 49.5228L88.0762 39.1295L79.1897 41.5106ZM102.481 40.881C101.585 37.5389 98.6796 36.1227 95.6273 36.9405C92.4591 37.7895 90.6833 40.6671 91.5167 43.7774C92.345 46.8683 95.2881 48.5023 98.8814 47.5395C100.755 47.0373 102.049 46.0696 102.72 44.7096L100.65 43.4006C100.117 44.2682 99.4128 44.8089 98.3116 45.1039C96.7275 45.5284 95.4141 45.0314 94.7775 43.8147L102.64 41.7079C102.592 41.4516 102.543 41.1128 102.481 40.881ZM96.2574 39.2149C97.6097 38.8526 98.8227 39.4386 99.3872 40.6953L94.2678 42.0671C94.1232 40.6771 94.8858 39.5825 96.2574 39.2149ZM111.761 32.783L101.735 35.4696L102.398 37.9423L105.914 37.0002L108.036 44.9208L111.03 44.1185L108.908 36.1979L112.424 35.2558L111.761 32.783Z" fill="white"/>
<defs>
<filter id="filter0_d_145_404" x="0.245117" y="0.244873" width="151.621" height="111.062" filterUnits="userSpaceOnUse" color-interpolation-filters="sRGB">
<feFlood flood-opacity="0" result="BackgroundImageFix"/>
<feColorMatrix in="SourceAlpha" type="matrix" values="0 0 0 0 0 0 0 0 0 0 0 0 0 0 0 0 0 0 127 0" result="hardAlpha"/>
<feMorphology radius="4" operator="erode" in="SourceAlpha" result="effect1_dropShadow_145_404"/>
<feOffset dy="10"/>
<feGaussianBlur stdDeviation="15"/>
<feComposite in2="hardAlpha" operator="out"/>
<feColorMatrix type="matrix" values="0 0 0 0 0 0 0 0 0 0 0 0 0 0 0 0 0 0 0.25 0"/>
<feBlend mode="normal" in2="BackgroundImageFix" result="effect1_dropShadow_145_404"/>
<feBlend mode="normal" in="SourceGraphic" in2="effect1_dropShadow_145_404" result="shape"/>
</filter>
</defs>
</svg>
