<svg width="300" height="497" viewBox="0 0 300 497" fill="none" xmlns="http://www.w3.org/2000/svg">
<path d="M87.7235 253.161C71.9505 289.024 75.307 313.614 68.6192 334.622C58.7263 365.719 30.7891 361.658 30.7891 361.658C30.7891 361.658 34.9532 334.395 36.0131 298.582C36.4169 284.737 44.8208 272.353 57.4645 266.704L87.7235 253.161Z" fill="#FF896F"/>
<path d="M56.2532 299.062C65.6161 277.271 65.4394 250.967 82.9033 215.709C84.3671 212.708 85.957 209.656 87.7236 206.529L77.0989 210.085L51.0291 218.811C48.9849 219.492 47.0417 220.324 45.1489 221.308V315.757C49.2625 311.722 53.1238 306.325 56.2532 299.062Z" fill="#FF896F"/>
<path d="M45.1237 221.308V315.757C29.3002 331.117 9.23682 326.173 9.23682 326.173C9.23682 326.173 9.79203 323.197 10.7006 318.431C12.341 309.755 15.0918 295.152 17.5398 281.887C19.912 268.974 21.9815 257.272 22.461 253.489C24.2275 239.542 32.8586 227.613 45.1237 221.308Z" fill="#FFC6A7"/>
<path d="M68.4424 160.275C81.4647 154.701 112.355 139.165 114.02 138.257C108.519 134.777 52.1899 93.6428 45.1235 87.7917V139.594C49.6157 143.932 65.4897 157.576 68.4424 160.275Z" fill="#FF896F"/>
<path d="M34.9781 79.3429C34.9781 79.3429 14.1577 102.823 37.0476 130.943C39.5208 133.97 42.2211 136.82 45.1234 139.619V87.7917C39.3441 82.9998 34.9781 79.3429 34.9781 79.3429Z" fill="#FFC6A7"/>
<path d="M44.5179 169.959C30.0067 175.508 0 185.217 0 185.217C0 185.217 8.83292 215.305 44.8208 210.866C44.9217 210.841 45.0226 210.841 45.1236 210.816V169.732C44.9217 169.808 44.7198 169.884 44.5179 169.959Z" fill="#FFC6A7"/>
<path d="M92.1147 185.621C84.0641 175.205 76.064 167.185 68.4424 160.275C68.2658 160.35 68.0639 160.451 67.8872 160.527C59.8871 163.957 52.2403 167.008 45.1235 169.732V210.841C60.5181 208.874 75.5088 202.241 95.5721 197.474C97.0106 197.147 98.4744 196.819 99.9633 196.491C97.3639 192.582 94.7645 188.975 92.1399 185.621H92.1147Z" fill="#FF896F"/>
<path d="M299.461 477.798C299.082 480.748 298.275 483.598 297.114 486.372C297.114 486.372 288.76 491.133 233.268 495.894C177.775 500.654 163.308 486.372 163.308 486.372C163.03 485.616 162.752 484.859 162.475 484.103V484.077C162.374 483.825 162.298 483.573 162.197 483.346C160.784 479.512 159.446 475.502 158.033 471.518C157.907 471.215 157.806 470.862 157.705 470.559C156.973 468.466 156.267 466.373 155.509 464.279C155.459 464.153 155.409 464.027 155.358 463.901C154.147 460.547 152.885 457.243 151.547 454.04C151.244 453.309 150.942 452.552 150.614 451.821C150.563 451.72 150.513 451.619 150.487 451.518C145.364 439.891 139.131 430.106 129.995 425.718C103.269 412.931 88.4298 389.905 81.7168 376.715C78.6631 370.687 77.3003 366.728 77.3003 366.728C77.3003 366.728 79.5211 366.475 83.4581 366.097C106.752 363.827 190.664 356.412 238.236 362.945C242.501 363.499 246.463 364.206 250.047 365.013C263.574 368.089 272.003 372.932 271.725 380.22C271.296 392.074 274.981 402.414 279.877 412.502C279.877 412.528 279.902 412.553 279.902 412.578C280.23 413.259 280.584 413.965 280.912 414.646C282.199 417.244 283.562 419.816 284.924 422.414C284.95 422.464 284.975 422.515 285 422.54C286.237 424.936 287.524 427.357 288.76 429.829C288.912 430.131 289.063 430.409 289.189 430.711C290.729 433.763 292.218 436.89 293.555 440.093C293.707 440.446 293.883 440.825 294.035 441.203C298.451 451.997 301.227 463.775 299.461 477.798Z" fill="#FFC6A7"/>
<path d="M238.262 362.995C235.183 365.643 231.17 367.257 226.83 367.257H89.5661C87.4209 367.257 85.3767 366.879 83.484 366.173C79.5218 366.551 77.3262 366.778 77.3262 366.778C77.3262 366.778 78.6637 370.763 81.7426 376.765C83.7363 377.27 85.8058 377.522 87.9509 377.522H228.47C237.707 377.522 245.757 372.528 250.098 365.063C246.489 364.256 242.527 363.55 238.262 362.995Z" fill="#FF896F"/>
<path d="M24.8586 301.912L23.1677 314.824C22.8396 317.195 20.7702 318.91 18.3979 318.784L10.7007 318.406C12.3411 309.73 15.0919 295.127 17.5399 281.861C22.9153 286.779 25.8681 294.144 24.8586 301.912Z" fill="#FFE1D5"/>
<path d="M111.477 170.587H118.618C118.768 170.587 118.913 170.645 119.024 170.748C119.134 170.851 119.201 170.991 119.211 171.142C119.221 171.292 119.174 171.441 119.079 171.558C118.984 171.675 118.848 171.751 118.699 171.772L118.618 171.778H111.477C111.326 171.777 111.181 171.72 111.071 171.617C110.96 171.514 110.893 171.373 110.883 171.223C110.873 171.073 110.92 170.924 111.015 170.807C111.11 170.69 111.246 170.613 111.396 170.593L111.477 170.587H118.618H111.477ZM114.966 161.072L115.047 161.066C115.191 161.066 115.33 161.118 115.438 161.213C115.547 161.307 115.617 161.438 115.637 161.58L115.642 161.661V167.761L117.431 165.973C117.532 165.872 117.666 165.811 117.808 165.8C117.951 165.79 118.092 165.831 118.207 165.916L118.273 165.973C118.374 166.074 118.435 166.207 118.446 166.35C118.456 166.492 118.415 166.633 118.33 166.748L118.273 166.815L115.468 169.619C115.367 169.72 115.233 169.781 115.091 169.792C114.949 169.803 114.808 169.762 114.693 169.677L114.627 169.619L111.821 166.815C111.715 166.708 111.652 166.566 111.647 166.416C111.641 166.265 111.692 166.119 111.791 166.005C111.889 165.891 112.026 165.818 112.176 165.802C112.325 165.785 112.476 165.826 112.596 165.916L112.663 165.973L114.452 167.763V161.661C114.452 161.517 114.504 161.379 114.599 161.27C114.693 161.162 114.824 161.091 114.966 161.072L115.047 161.066L114.966 161.072Z" fill="black"/>
<path d="M222.842 7.64172H80.6571C70.9914 7.64172 63.168 15.4852 63.168 25.1446V232.48V237.575V358.934C67.4582 362.49 72.9851 364.609 79.0167 364.609H224.482C230.489 364.609 236.016 362.49 240.331 358.934L235.158 237.575V232.48L240.331 25.1446C240.331 15.4852 232.508 7.64172 222.842 7.64172Z" fill="#FAFAFF"/>
<path d="M195.434 150.086C193.819 150.086 192.229 150.237 190.69 150.54C189.15 131.498 173.226 116.518 153.793 116.518C137.087 116.518 122.979 127.564 118.361 142.747C116.443 142.343 114.424 142.141 112.38 142.141C96.0513 142.141 82.8271 155.357 82.8271 171.674C82.8271 187.714 95.6223 200.753 111.547 201.182C111.799 201.207 112.051 201.207 112.279 201.207H195.258C195.283 201.207 195.308 201.207 195.333 201.207C195.359 201.207 195.384 201.207 195.409 201.207C209.542 201.207 220.974 189.757 220.974 175.659C220.999 161.536 209.542 150.086 195.434 150.086Z" fill="#615ED1"/>
<path d="M143.295 93.6932H79.6728C78.0828 93.6932 76.7705 92.4069 76.7705 90.7928C76.7705 89.204 78.0576 87.8925 79.6728 87.8925H143.295C144.885 87.8925 146.197 89.1787 146.197 90.7928C146.197 92.4069 144.91 93.6932 143.295 93.6932Z" fill="#615ED1"/>
<path d="M224.129 93.6932H157.15C155.56 93.6932 154.248 92.4069 154.248 90.7928C154.248 89.204 155.535 87.8925 157.15 87.8925H224.154C225.744 87.8925 227.056 89.1787 227.056 90.7928C227.031 92.4069 225.744 93.6932 224.129 93.6932Z" fill="#FC888B"/>
<path d="M224.129 80.7804H79.6728C78.0828 80.7804 76.7705 79.4942 76.7705 77.8801C76.7705 76.2912 78.0576 74.9798 79.6728 74.9798H224.154C225.744 74.9798 227.056 76.266 227.056 77.8801C227.031 79.469 225.744 80.7804 224.129 80.7804Z" fill="#7474F7"/>
<path d="M224.128 67.8424H127.547C125.957 67.8424 124.645 66.5562 124.645 64.9421C124.645 63.3533 125.932 62.0418 127.547 62.0418H224.128C225.718 62.0418 227.031 63.328 227.031 64.9421C227.031 66.531 225.744 67.8424 224.128 67.8424Z" fill="#615ED1"/>
<path d="M114.626 67.8424H79.6728C78.0828 67.8424 76.7705 66.5562 76.7705 64.9421C76.7705 63.3533 78.0576 62.0418 79.6728 62.0418H114.651C116.241 62.0418 117.553 63.328 117.553 64.9421C117.528 66.531 116.241 67.8424 114.626 67.8424Z" fill="#FC888B"/>
<path d="M240.331 36.7711H63.0415V21.7146C63.0415 13.2658 69.9059 6.40594 78.3603 6.40594H224.987C233.441 6.40594 240.306 13.2658 240.306 21.7146V36.7711H240.331Z" fill="#615ED1"/>
<path d="M224.482 0H79.0169C65.2376 0 54.0576 11.1978 54.0576 24.9933V342.264C54.0576 350.057 57.616 356.993 63.1681 361.583C67.4584 365.139 72.9853 367.257 79.0169 367.257H224.482C230.489 367.257 236.016 365.139 240.331 361.583C245.909 357.018 249.467 350.057 249.467 342.264V24.9933C249.467 11.1978 238.287 0 224.482 0ZM240.331 339.49C240.331 349.174 232.508 357.018 222.842 357.018H80.6573C75.2566 357.018 70.4111 354.571 67.206 350.687C64.6824 347.661 63.1681 343.752 63.1681 339.49V27.7927C63.1681 18.1081 70.9916 10.2899 80.6573 10.2899H222.842C232.508 10.2899 240.331 18.1334 240.331 27.7927V339.49Z" fill="#2E2044"/>
<path d="M154.298 237.751C156.194 237.751 157.731 236.204 157.731 234.296C157.731 232.388 156.194 230.841 154.298 230.841C152.403 230.841 150.866 232.388 150.866 234.296C150.866 236.204 152.403 237.751 154.298 237.751Z" fill="#615ED1"/>
<path d="M128.531 237.751C130.427 237.751 131.964 236.204 131.964 234.296C131.964 232.388 130.427 230.841 128.531 230.841C126.636 230.841 125.099 232.388 125.099 234.296C125.099 236.204 126.636 237.751 128.531 237.751Z" fill="#FC888B"/>
<path d="M141.427 237.751C143.323 237.751 144.86 236.204 144.86 234.296C144.86 232.388 143.323 230.841 141.427 230.841C139.532 230.841 137.995 232.388 137.995 234.296C137.995 236.204 139.532 237.751 141.427 237.751Z" fill="#615ED1"/>
<path d="M167.194 237.751C169.09 237.751 170.627 236.204 170.627 234.296C170.627 232.388 169.09 230.841 167.194 230.841C165.299 230.841 163.762 232.388 163.762 234.296C163.762 236.204 165.299 237.751 167.194 237.751Z" fill="#615ED1"/>
<path d="M139.534 281.004H119.37C116.871 281.004 114.853 278.986 114.853 276.49V256.339C114.853 253.842 116.871 251.824 119.37 251.824H139.534C142.033 251.824 144.052 253.842 144.052 256.339V276.49C144.052 278.986 142.033 281.004 139.534 281.004Z" fill="#7474F7"/>
<path d="M213.201 281.004H193.036C190.538 281.004 188.519 278.986 188.519 276.49V256.339C188.519 253.842 190.538 251.824 193.036 251.824H213.201C215.699 251.824 217.718 253.842 217.718 256.339V276.49C217.718 278.986 215.699 281.004 213.201 281.004Z" fill="#7474F7"/>
<path d="M176.355 281.004H156.191C153.692 281.004 151.673 278.986 151.673 276.49V256.339C151.673 253.842 153.692 251.824 156.191 251.824H176.355C178.853 251.824 180.872 253.842 180.872 256.339V276.49C180.898 278.986 178.853 281.004 176.355 281.004Z" fill="#FC888B"/>
<path d="M102.689 281.004H82.5242C80.0258 281.004 78.0068 278.986 78.0068 276.49V256.339C78.0068 253.842 80.0258 251.824 82.5242 251.824H102.689C105.187 251.824 107.206 253.842 107.206 256.339V276.49C107.206 278.986 105.187 281.004 102.689 281.004Z" fill="#E16C74"/>
<path d="M139.534 326.93H119.37C116.871 326.93 114.853 324.912 114.853 322.416V302.265C114.853 299.768 116.871 297.75 119.37 297.75H139.534C142.033 297.75 144.052 299.768 144.052 302.265V322.416C144.052 324.887 142.033 326.93 139.534 326.93Z" fill="#FC888B"/>
<path d="M213.201 326.93H193.036C190.538 326.93 188.519 324.912 188.519 322.416V302.265C188.519 299.768 190.538 297.75 193.036 297.75H213.201C215.699 297.75 217.718 299.768 217.718 302.265V322.416C217.718 324.887 215.699 326.93 213.201 326.93Z" fill="#FC888B"/>
<path d="M176.355 326.93H156.191C153.692 326.93 151.673 324.912 151.673 322.416V302.265C151.673 299.768 153.692 297.75 156.191 297.75H176.355C178.853 297.75 180.872 299.768 180.872 302.265V322.416C180.898 324.887 178.853 326.93 176.355 326.93Z" fill="#E16C74"/>
<path d="M102.689 326.93H82.5242C80.0258 326.93 78.0068 324.912 78.0068 322.416V302.265C78.0068 299.768 80.0258 297.75 82.5242 297.75H102.689C105.187 297.75 107.206 299.768 107.206 302.265V322.416C107.206 324.887 105.187 326.93 102.689 326.93Z" fill="#7474F7"/>
<path d="M78.6886 21.9174C76.5435 21.9174 74.5497 22.6741 73.0103 23.9603C72.6317 24.2629 72.1018 24.2629 71.7484 23.9098L71.7232 23.8846C71.3446 23.5063 71.3699 22.8506 71.7989 22.5227C73.6664 20.9843 76.064 20.0511 78.6886 20.0511C81.3132 20.0511 83.7108 20.9843 85.5783 22.5227C86.0073 22.8758 86.0325 23.5063 85.654 23.8846L85.6288 23.9098C85.2754 24.2629 84.7455 24.2629 84.3669 23.9603C82.8275 22.6993 80.8337 21.9174 78.6886 21.9174Z" fill="#2E2044"/>
<path d="M78.6886 25.6742C77.5529 25.6742 76.4677 26.0525 75.6097 26.683C75.2311 26.9605 74.7264 26.91 74.3983 26.5822C73.9945 26.1786 74.045 25.4977 74.4993 25.1698C75.6602 24.3123 77.1239 23.7827 78.6886 23.7827C80.2533 23.7827 81.6918 24.2871 82.8779 25.1698C83.3322 25.4977 83.3827 26.1786 82.9789 26.5822C82.6508 26.91 82.146 26.9605 81.7675 26.683C80.8842 26.0525 79.8242 25.6742 78.6886 25.6742Z" fill="#2E2044"/>
<path d="M78.6884 29.4068C78.5117 29.4068 78.3351 29.432 78.1584 29.5076C77.8051 29.6337 77.4013 29.5833 77.1237 29.3059C76.6442 28.8267 76.8208 28.0197 77.4518 27.7674C77.8303 27.6161 78.2341 27.5405 78.6631 27.5405C79.0922 27.5405 79.496 27.6161 79.8745 27.7674C80.5054 28.0197 80.6821 28.8267 80.2026 29.3059C79.925 29.5833 79.5212 29.6337 79.1679 29.5076C79.0417 29.4572 78.865 29.4068 78.6884 29.4068Z" fill="#2E2044"/>
<path d="M96.7327 24.7663H94.5371V29.5834H96.7327V24.7663Z" fill="#2E2044"/>
<path d="M92.8714 27.1874H90.6758V29.5833H92.8714V27.1874Z" fill="#2E2044"/>
<path d="M100.594 22.2694H98.3979V29.5833H100.594V22.2694Z" fill="#2E2044"/>
<path d="M104.455 19.9744H102.26V29.5833H104.455V19.9744Z" fill="#2E2044"/>
<path d="M177.592 20.4031C176.734 20.4031 176.002 20.8571 175.396 21.7398C175.018 22.6225 174.816 23.6313 174.816 24.7158V24.7915C174.816 25.8255 174.993 26.7839 175.321 27.6413C175.851 28.6502 176.608 29.1546 177.567 29.1546H177.642C178.526 29.1546 179.258 28.7006 179.813 27.8179C180.191 26.8847 180.393 25.9516 180.393 25.0437V24.5393C180.393 23.8079 180.242 22.9756 179.964 22.0677C179.409 20.958 178.627 20.4031 177.592 20.4031ZM176.482 27.3891C176.128 26.7334 175.952 25.8759 175.952 24.8923V24.6401C175.952 23.9844 176.053 23.2782 176.28 22.5721C176.582 21.8911 177.012 21.538 177.642 21.538C178.147 21.538 178.551 21.7902 178.879 22.3199C179.157 23.0765 179.308 23.8835 179.308 24.7158C179.283 25.195 179.258 25.5481 179.232 25.775C179.081 27.2378 178.551 27.944 177.642 27.944H177.567C177.163 27.9692 176.784 27.7674 176.482 27.3891Z" fill="#2E2044"/>
<path d="M183.295 20.4284C182.891 20.4284 182.462 20.5293 182.059 20.731C181.1 21.3111 180.62 22.0929 180.62 23.0765C180.62 23.4801 180.721 23.8836 180.923 24.3375C181.453 25.2203 182.21 25.6994 183.144 25.7751L181.932 27.4144C181.276 28.1962 181.201 28.4484 181.201 28.5745C181.201 28.7511 181.276 29.0789 181.806 29.1798C181.932 29.1798 182.059 29.1294 182.185 29.0285L185.163 25.0689C185.693 24.4384 185.97 23.7827 185.97 23.127C185.97 22.7234 185.844 22.2695 185.592 21.7903C185.011 20.8572 184.229 20.4284 183.295 20.4284ZM184.759 23.1018C184.759 23.3287 184.709 23.5557 184.608 23.7575C184.305 24.3123 183.876 24.5645 183.295 24.5645C183.068 24.5645 182.866 24.5141 182.69 24.4636C182.084 24.1358 181.806 23.7323 181.806 23.2026V23.0009C181.806 22.9 181.831 22.7487 181.882 22.5973C182.21 21.9416 182.614 21.639 183.194 21.639H183.32C183.472 21.639 183.623 21.6642 183.699 21.6894C184.431 21.9416 184.759 22.3956 184.759 23.1018Z" fill="#2E2044"/>
<path d="M188.217 27.1622H188.116C187.838 27.1622 187.46 27.3135 187.308 28.0197C187.308 28.3727 187.46 28.8015 188.191 28.9276H188.217H188.242C188.923 28.751 189.075 28.3727 189.075 28.0953V27.944C188.923 27.2883 188.52 27.1622 188.217 27.1622Z" fill="#2E2044"/>
<path d="M188.191 23.2531C187.863 23.2531 187.46 23.4044 187.308 24.1358C187.308 24.4888 187.46 24.9176 188.191 25.0185H188.343H188.368C188.949 24.8167 189.075 24.4636 189.075 24.2114V24.0349V23.9844C188.873 23.3792 188.469 23.2531 188.191 23.2531Z" fill="#2E2044"/>
<path d="M192.356 20.4031C191.498 20.4031 190.766 20.8571 190.16 21.7398C189.781 22.6225 189.58 23.6313 189.58 24.7158V24.7915C189.58 25.8255 189.756 26.7839 190.084 27.6413C190.614 28.6502 191.371 29.1546 192.33 29.1546H192.406C193.289 29.1546 194.021 28.7006 194.576 27.8179C194.955 26.8847 195.157 25.9516 195.157 25.0437V24.5393C195.157 23.8079 195.005 22.9756 194.728 22.0677C194.173 20.958 193.365 20.4031 192.356 20.4031ZM194.047 24.741C194.021 25.2202 193.996 25.5733 193.971 25.8003C193.819 27.263 193.289 27.9692 192.381 27.9692H192.305C191.901 27.9692 191.548 27.7674 191.22 27.3891C190.867 26.7334 190.69 25.8759 190.69 24.8923V24.6401C190.69 23.9844 190.791 23.2782 191.018 22.5721C191.321 21.8911 191.75 21.538 192.381 21.538C192.886 21.538 193.289 21.7902 193.617 22.3199C193.895 23.1269 194.047 23.934 194.047 24.741Z" fill="#2E2044"/>
<path d="M200.507 22.0425C199.977 20.958 199.169 20.4031 198.16 20.4031C197.302 20.4031 196.57 20.8571 195.964 21.7398C195.586 22.6225 195.384 23.6313 195.384 24.7158V24.7915C195.384 25.8255 195.56 26.7839 195.889 27.6413C196.419 28.6502 197.176 29.1546 198.135 29.1546H198.21C199.094 29.1546 199.825 28.7006 200.381 27.8179C200.759 26.8847 200.961 25.9516 200.961 25.0437V24.5393C200.936 23.7574 200.784 22.9504 200.507 22.0425ZM197.024 27.3891C196.671 26.7334 196.494 25.8759 196.494 24.8923V24.6401C196.494 23.9844 196.595 23.2782 196.822 22.5721C197.125 21.8911 197.554 21.538 198.185 21.538C198.69 21.538 199.094 21.7902 199.422 22.3199C199.699 23.0765 199.851 23.8835 199.851 24.7158C199.825 25.195 199.8 25.5481 199.775 25.775C199.624 27.2378 199.094 27.944 198.185 27.944H198.109C197.706 27.9692 197.327 27.7674 197.024 27.3891Z" fill="#2E2044"/>
<path d="M228.621 20.958H214.438C213.151 20.958 212.116 21.992 212.116 23.2783V26.2543C212.116 27.5405 213.151 28.5745 214.438 28.5745H228.621C229.908 28.5745 230.943 27.5405 230.943 26.2543V23.2783C230.943 21.992 229.908 20.958 228.621 20.958ZM228.394 27.0613H218.653V22.4964H228.394C228.924 22.4964 229.378 22.9252 229.378 23.48V26.0777C229.378 26.6326 228.949 27.0613 228.394 27.0613Z" fill="#2E2044"/>
<path d="M225.113 173.591C224.962 183.175 226.577 192.708 227.233 202.266C228.041 214.221 227.435 226.301 224.382 237.953C221.227 249.983 215.321 261.282 207.523 271.269C203.586 276.288 199.044 280.827 194.829 285.644C190.337 290.789 186.122 296.136 182.236 301.684C181.908 302.138 181.58 302.618 181.277 303.072C180.873 303.652 180.495 304.232 180.116 304.787C179.864 305.14 179.611 305.518 179.384 305.871C172.949 315.656 158.841 347.434 155.636 356.866C155.636 356.866 155.712 356.892 155.788 356.942H159.8C159.927 356.942 162.147 356.967 165.63 356.967H213.479C216.432 356.942 218.602 356.917 219.536 356.866C228.318 355.933 235.158 348.493 235.158 339.464V304.787H236.142C236.142 304.787 236.445 146.378 236.445 142.646C228.52 151.094 225.29 162.57 225.113 173.591Z" fill="#BEDCFF"/>
<path d="M272.458 390.939C272.458 390.939 208.71 421.834 189.605 410.787C169.113 398.984 166.185 360.296 184.911 323.096C190.438 312.126 197.126 301.458 204.293 291.874C215.801 276.616 228.924 259.819 231.297 240.878C235.612 206.049 223.524 183.629 225.492 161.283C228.924 121.839 263.095 119.241 263.095 119.241C263.095 119.241 276.017 220.4 290.831 262.593C297.594 281.861 281.619 330.536 273.619 364.962C271.449 374.268 271.6 381.431 272.458 390.939Z" fill="#FFC6A7"/>
<path d="M270.464 169.379C262.817 167.109 255.574 160.754 253.959 152.355L251.335 138.535C250.88 136.189 252.319 133.919 254.615 133.289L264.609 130.59C264.609 130.565 267.941 153.415 270.464 169.379Z" fill="#FFE1D5"/>
<path d="M137.709 176.439H165.38C165.964 176.439 166.526 176.661 166.953 177.06C167.38 177.459 167.64 178.005 167.68 178.588C167.72 179.171 167.537 179.747 167.168 180.2C166.799 180.653 166.272 180.95 165.693 181.029L165.38 181.051H137.709C137.125 181.051 136.562 180.829 136.135 180.43C135.709 180.031 135.449 179.485 135.409 178.902C135.369 178.319 135.552 177.743 135.921 177.29C136.29 176.836 136.817 176.54 137.395 176.46L137.709 176.439H165.38H137.709ZM151.231 139.566L151.544 139.544C152.102 139.544 152.64 139.746 153.06 140.113C153.48 140.479 153.753 140.985 153.829 141.537L153.85 141.85V165.487L160.783 158.557C161.174 158.167 161.693 157.929 162.244 157.889C162.796 157.848 163.343 158.007 163.787 158.336L164.046 158.557C164.436 158.948 164.674 159.467 164.714 160.018C164.755 160.57 164.596 161.117 164.267 161.561L164.046 161.819L153.174 172.688C152.784 173.078 152.266 173.316 151.715 173.357C151.165 173.398 150.617 173.241 150.173 172.912L149.915 172.688L139.043 161.819C138.631 161.408 138.389 160.856 138.367 160.273C138.345 159.691 138.545 159.122 138.925 158.681C139.306 158.24 139.839 157.959 140.418 157.895C140.998 157.831 141.58 157.988 142.047 158.336L142.305 158.557L149.239 165.494V141.85C149.239 141.293 149.44 140.755 149.807 140.335C150.173 139.915 150.679 139.642 151.231 139.566L151.544 139.544L151.231 139.566Z" fill="white"/>
</svg>
