<svg width="216" height="319" viewBox="0 0 216 319" fill="none" xmlns="http://www.w3.org/2000/svg">
<path d="M69.1479 144.757C58.5272 168.984 60.7723 185.537 56.2822 199.677C49.6335 220.627 30.7236 217.868 30.7236 217.868C30.7236 217.868 33.4867 199.504 34.2638 175.278C34.5229 165.966 40.2218 157.603 48.7701 153.81L69.1479 144.757Z" fill="#FC9F86"/>
<path d="M47.9067 175.709C54.21 160.966 54.1236 143.291 65.8668 119.496C66.8166 117.513 67.9391 115.443 69.1479 113.288L61.9812 115.702L44.3665 121.565C42.9849 121.996 41.6897 122.599 40.3945 123.203V186.917C43.1576 184.244 45.748 180.623 47.9067 175.709Z" fill="#FC9F86"/>
<path d="M40.3948 123.289V187.003C29.6878 197.349 16.1313 193.986 16.1313 193.986C16.1313 193.986 16.4767 192.003 17.0812 188.727C18.2037 182.864 20.0169 173.036 21.6575 164.069C23.2118 155.361 24.6797 147.516 25.025 144.929C26.2339 135.532 32.1055 127.514 40.3948 123.289Z" fill="#FFBDA6"/>
<path d="M56.1096 82.0777C64.917 78.2842 74.2424 73.9734 83.5678 69.0591C84.6903 68.4556 85.8129 67.8521 86.9354 67.2485C83.2225 64.9207 79.5959 62.5066 76.142 60.1788C69.4933 55.6956 63.3627 51.2985 57.9229 47.1601C57.1458 46.5566 56.3687 45.9531 55.5052 45.3496C51.3606 42.2458 45.1436 37.1591 40.3945 33.1931V68.1107C43.4167 71.042 46.7842 73.801 50.3244 76.9048C52.1377 78.5429 54.1236 80.2672 56.1096 82.0777Z" fill="#FC9F86"/>
<path d="M33.5732 27.5029C33.5732 27.5029 19.4987 43.3667 34.9548 62.3343C36.5954 64.4035 38.495 66.3002 40.3946 68.197V33.1932C36.509 29.917 33.5732 27.5029 33.5732 27.5029Z" fill="#FFBDA6"/>
<path d="M39.9627 90.1822C30.2055 93.8895 9.91406 100.442 9.91406 100.442C9.91406 100.442 15.872 120.703 40.1354 117.771C40.2217 117.771 40.3081 117.771 40.3081 117.771V90.0098C40.2217 90.096 40.1354 90.096 39.9627 90.1822Z" fill="#FFBDA6"/>
<path d="M72.0837 100.787C66.6439 93.8031 61.2041 88.3715 56.1096 83.7158C56.0233 83.802 55.8506 83.802 55.7642 83.8883C50.3244 86.2161 45.2299 88.2853 40.3945 90.0958V117.857C50.7561 116.564 60.945 112.081 74.4151 108.805C75.3649 108.546 76.4011 108.374 77.3509 108.115C75.624 105.442 73.897 103.028 72.0837 100.787Z" fill="#FC9F86"/>
<path d="M208.684 274.857C220.686 308.654 142.284 336.071 125.273 306.24C116.552 290.98 115.861 269.857 97.7287 261.149C79.6822 252.527 69.666 237.008 65.176 228.128C63.1037 224.076 62.2402 221.403 62.2402 221.403C62.2402 221.403 63.7081 221.231 66.3849 220.972C82.1 219.42 138.743 214.42 170.864 218.817C173.714 219.162 176.39 219.679 178.808 220.196C187.961 222.265 194.005 225.541 193.401 230.456C191.847 244.423 200.999 253.131 208.684 274.857Z" fill="#FFBDA6"/>
<path d="M156.876 6.89722H64.226C57.6636 6.89722 52.3965 12.1564 52.3965 18.7088V37.4178V105.787V202.867C52.3965 209.419 57.6636 214.678 64.226 214.678H93.9292H156.876C160.503 214.678 163.784 213.04 165.942 210.454C167.669 208.384 168.705 205.798 168.705 202.867V111.65V40.2629V18.7088C168.705 12.2426 163.438 6.89722 156.876 6.89722Z" fill="#340072"/>
<path d="M168.705 18.7088C168.705 12.1564 163.438 6.89722 156.876 6.89722H64.226C57.6636 6.89722 52.3965 12.1564 52.3965 18.7088V191.572H168.705V18.7088Z" fill="#F6FDFF"/>
<path d="M170.778 218.817C168.705 220.627 166.029 221.662 163.093 221.662H70.3567C68.8888 221.662 67.5072 221.403 66.212 220.886C63.5353 221.145 62.0674 221.317 62.0674 221.317C62.0674 221.317 63.0172 223.99 65.0032 228.042C66.3847 228.387 67.7663 228.559 69.2342 228.559H164.129C170.346 228.559 175.786 225.197 178.722 220.196C176.304 219.679 173.627 219.162 170.778 218.817Z" fill="#FC9F86"/>
<path d="M157.999 0H63.1036C53.7782 0 46.1797 7.58703 46.1797 16.8984V204.85C46.1797 214.161 53.7782 221.748 63.1036 221.748H157.999C167.324 221.748 174.923 214.161 174.923 204.85V16.8984C174.836 7.58703 167.324 0 157.999 0ZM168.706 40.263V111.65V202.953C168.706 205.798 167.669 208.471 165.942 210.54C163.784 213.126 160.503 214.765 156.876 214.765H93.9294H64.2261C57.6638 214.765 52.3966 209.505 52.3966 202.953V105.874V37.4178V18.7089C52.3966 12.2427 57.6638 6.8973 64.2261 6.8973H84.9493C86.849 6.8973 88.4032 8.44919 88.4032 10.3459V13.4497C88.4032 15.8638 90.3028 17.7605 92.7205 17.7605H128.382C130.799 17.7605 132.699 15.8638 132.699 13.4497V10.3459C132.699 8.44919 134.253 6.8973 136.153 6.8973H156.876C163.438 6.8973 168.706 12.1565 168.706 18.7089V40.263Z" fill="#44006F"/>
<path d="M81.4091 15.7774H70.184C69.3206 15.7774 68.5435 15.0877 68.5435 14.1393V12.9323C68.5435 12.0701 69.2342 11.2942 70.184 11.2942H81.4091C82.2726 11.2942 83.0497 11.9839 83.0497 12.9323V14.1393C83.0497 15.0877 82.2726 15.7774 81.4091 15.7774Z" fill="#BDD8FF"/>
<path d="M64.3125 15.7774H61.1176C60.2542 15.7774 59.4771 15.0877 59.4771 14.1393V12.9323C59.4771 12.0701 60.1678 11.2942 61.1176 11.2942H64.3125C65.1759 11.2942 65.9531 11.9839 65.9531 12.9323V14.1393C65.9531 15.0877 65.2623 15.7774 64.3125 15.7774Z" fill="#BDD8FF"/>
<path d="M159.725 13.4497C159.725 14.7429 158.689 15.7775 157.394 15.7775C156.099 15.7775 155.062 14.7429 155.062 13.4497C155.062 12.1564 156.099 11.1218 157.394 11.1218C158.603 11.1218 159.725 12.1564 159.725 13.4497Z" fill="#BDD8FF"/>
<path d="M140.815 15.7775C142.103 15.7775 143.147 14.7353 143.147 13.4497C143.147 12.164 142.103 11.1218 140.815 11.1218C139.528 11.1218 138.484 12.164 138.484 13.4497C138.484 14.7353 139.528 15.7775 140.815 15.7775Z" fill="#BDD8FF"/>
<path d="M149.105 15.7775C150.392 15.7775 151.436 14.7353 151.436 13.4497C151.436 12.164 150.392 11.1218 149.105 11.1218C147.817 11.1218 146.773 12.164 146.773 13.4497C146.773 14.7353 147.817 15.7775 149.105 15.7775Z" fill="#BDD8FF"/>
<path d="M162.23 213.471C162.057 213.557 161.884 213.644 161.798 213.73C161.884 213.644 162.057 213.557 162.23 213.471Z" fill="url(#paint0_linear_146_131)"/>
<path d="M161.107 213.989C160.934 214.075 160.762 214.075 160.675 214.161C160.762 214.075 160.934 213.989 161.107 213.989Z" fill="url(#paint1_linear_146_131)"/>
<path d="M165.165 211.402C165.079 211.488 164.993 211.575 164.906 211.661C164.993 211.575 165.079 211.488 165.165 211.402Z" fill="url(#paint2_linear_146_131)"/>
<path d="M163.266 212.868C163.093 212.954 163.007 213.04 162.834 213.126C163.007 213.04 163.179 212.954 163.266 212.868Z" fill="url(#paint3_linear_146_131)"/>
<path d="M159.898 214.333C159.725 214.333 159.639 214.42 159.466 214.42C159.553 214.42 159.725 214.42 159.898 214.333Z" fill="url(#paint4_linear_146_131)"/>
<path d="M164.215 212.178C164.129 212.264 163.956 212.351 163.87 212.437C164.043 212.351 164.129 212.264 164.215 212.178Z" fill="url(#paint5_linear_146_131)"/>
<path d="M128.641 191.573H52.3965V202.953C52.3965 209.505 57.6636 214.765 64.226 214.765H117.588C119.833 207.609 123.373 200.022 128.036 192.521C128.209 192.262 128.382 191.917 128.641 191.573Z" fill="url(#paint6_linear_146_131)"/>
<path d="M159.466 214.506C159.121 214.592 158.776 214.678 158.43 214.678C158.776 214.592 159.121 214.592 159.466 214.506Z" fill="#BDD8FF"/>
<path d="M164.82 211.661C164.647 211.833 164.388 212.006 164.215 212.178C164.474 212.006 164.647 211.833 164.82 211.661Z" fill="#BDD8FF"/>
<path d="M163.87 212.437C163.697 212.609 163.438 212.695 163.266 212.868C163.525 212.782 163.697 212.609 163.87 212.437Z" fill="#BDD8FF"/>
<path d="M161.28 84.8368C158.689 99.7522 165.511 115.616 160.589 138.808C159.898 142.084 158.948 145.274 157.739 148.378C154.372 157.258 149.277 165.449 142.888 172.605C137.707 178.381 132.872 184.848 128.641 191.572H168.705V165.88V68.1108C165.338 71.9906 162.575 77.336 161.28 84.8368Z" fill="#D2E4FF"/>
<path d="M165.943 210.54C165.684 210.885 165.425 211.144 165.166 211.402C165.425 211.057 165.684 210.799 165.943 210.54Z" fill="#BDD8FF"/>
<path d="M161.798 213.73C161.539 213.816 161.366 213.902 161.107 213.989C161.366 213.902 161.539 213.816 161.798 213.73Z" fill="#BDD8FF"/>
<path d="M160.589 214.161C160.33 214.247 160.071 214.334 159.812 214.42C160.157 214.334 160.416 214.247 160.589 214.161Z" fill="#BDD8FF"/>
<path d="M162.834 213.126C162.661 213.213 162.402 213.385 162.229 213.471C162.402 213.385 162.661 213.213 162.834 213.126Z" fill="#BDD8FF"/>
<path d="M117.588 214.765H156.876C157.308 214.765 157.826 214.765 158.258 214.678C157.826 214.765 157.394 214.765 156.962 214.765H117.588Z" fill="#BDD8FF"/>
<path d="M128.036 192.521C123.46 200.022 119.92 207.523 117.588 214.765H156.876C157.308 214.765 157.74 214.765 158.171 214.678C158.258 214.678 158.258 214.678 158.344 214.678C158.689 214.592 159.035 214.592 159.38 214.506C159.553 214.506 159.639 214.42 159.812 214.42C160.071 214.334 160.33 214.247 160.589 214.161C160.762 214.075 160.934 214.075 161.021 213.989C161.28 213.903 161.453 213.816 161.712 213.73C161.884 213.644 162.057 213.558 162.143 213.471C162.316 213.385 162.575 213.213 162.748 213.127C162.92 213.04 163.007 212.954 163.179 212.868C163.352 212.695 163.611 212.609 163.784 212.437C163.87 212.351 164.043 212.264 164.129 212.178C164.302 212.006 164.561 211.833 164.734 211.661C164.82 211.575 164.906 211.488 164.993 211.402C165.252 211.144 165.511 210.799 165.77 210.54C167.497 208.471 168.533 205.884 168.533 202.953V191.573H128.468C128.382 191.917 128.209 192.262 128.036 192.521Z" fill="#3BA3FF"/>
<path d="M193.401 230.456L186.321 226.232C172.246 247.527 151.696 258.563 138.744 251.062C124.928 243.13 126.482 217.696 139.175 192.607C142.888 185.193 147.378 178.037 152.3 171.57C160.071 161.311 165.338 149.24 166.979 136.48C169.915 113.03 161.712 97.8556 163.093 82.7677C165.425 56.1269 188.479 54.4026 188.479 54.4026C188.479 54.4026 188.652 56.3856 188.911 59.8342C188.997 60.5239 189.084 61.2137 189.17 61.9896C189.17 62.0758 189.17 62.2483 189.17 62.3345C189.774 68.3696 190.811 77.3361 192.538 88.1131C192.624 88.6304 192.71 89.0615 192.797 89.5788C192.969 90.5272 193.056 91.3894 193.228 92.3377C196.078 109.581 200.481 130.704 207.13 150.965C212.052 166.311 197.114 207.954 193.401 230.456Z" fill="#FFBDA6"/>
<path d="M192.537 88.1992C187.356 86.6473 183.211 82.4227 182.175 76.7324L180.362 67.4211C180.017 65.8692 181.053 64.3173 182.607 63.8862L189.169 62.0757C189.169 62.1619 189.169 62.3343 189.169 62.4205C189.774 68.4557 190.81 77.4222 192.537 88.1992Z" fill="#FFDED2"/>
<path d="M26.6651 177.605L25.5426 186.313C25.3699 187.865 23.902 189.072 22.3478 188.986L17.167 188.727C18.2895 182.864 20.1028 173.036 21.7434 164.069C25.3699 167.432 27.3559 172.346 26.6651 177.605Z" fill="#FFDED2"/>
<path d="M116.812 181.054L123.806 174.071V168.122C123.806 165.104 126.31 162.604 129.332 162.604H209.98C213.002 162.604 215.506 165.104 215.506 168.122V186.055C215.506 189.072 213.002 191.572 209.98 191.572H129.332C126.31 191.572 123.806 189.072 123.806 186.055V181.054H116.812Z" fill="url(#paint7_linear_146_131)"/>
<path d="M141.506 174.415H198.927C200.05 174.415 200.999 173.467 200.999 172.346C200.999 171.225 200.05 170.277 198.927 170.277H141.506C140.384 170.277 139.434 171.225 139.434 172.346C139.348 173.467 140.298 174.415 141.506 174.415Z" fill="white"/>
<path d="M192.883 183.899H198.841C199.963 183.899 200.913 182.951 200.913 181.83C200.913 180.709 199.963 179.761 198.841 179.761H192.883C191.76 179.761 190.811 180.709 190.811 181.83C190.811 182.951 191.76 183.899 192.883 183.899Z" fill="white"/>
<path d="M141.506 183.899H184.248C185.371 183.899 186.32 182.951 186.32 181.83C186.32 180.709 185.371 179.761 184.248 179.761H141.506C140.384 179.761 139.434 180.709 139.434 181.83C139.348 182.951 140.298 183.899 141.506 183.899Z" fill="white"/>
<path d="M6.37384 87.4233H87.9714C90.9936 87.4233 93.4976 89.9236 93.4976 92.9412V103.373H102.046L93.4976 111.909V122.168C93.4976 125.186 90.9936 127.686 87.9714 127.686H6.37384C3.35171 127.686 0.847656 125.186 0.847656 122.168V92.9412C0.847656 89.9236 3.35171 87.4233 6.37384 87.4233Z" fill="url(#paint8_linear_146_131)"/>
<path d="M33.5729 100.27H75.8827C77.0052 100.27 77.9551 99.3213 77.9551 98.2005C77.9551 97.0797 77.0052 96.1313 75.8827 96.1313H33.5729C32.4504 96.1313 31.5006 97.0797 31.5006 98.2005C31.4142 99.3213 32.364 100.27 33.5729 100.27Z" fill="white"/>
<path d="M18.4634 100.27H24.4214C25.5439 100.27 26.4937 99.3213 26.4937 98.2005C26.4937 97.0797 25.5439 96.1313 24.4214 96.1313H18.4634C17.3409 96.1313 16.3911 97.0797 16.3911 98.2005C16.3911 99.3213 17.3409 100.27 18.4634 100.27Z" fill="white"/>
<path d="M60.9452 115.013H18.6353C17.5128 115.013 16.563 115.961 16.563 117.082C16.563 118.203 17.5128 119.151 18.6353 119.151H60.9452C62.0677 119.151 63.0175 118.203 63.0175 117.082C63.0175 115.961 62.0677 115.013 60.9452 115.013Z" fill="white"/>
<path d="M75.9697 115.013H70.0118C68.8893 115.013 67.9395 115.961 67.9395 117.082C67.9395 118.203 68.8893 119.151 70.0118 119.151H75.9697C77.0922 119.151 78.042 118.203 78.042 117.082C78.042 115.961 77.0922 115.013 75.9697 115.013Z" fill="white"/>
<path d="M69.8385 109.753H75.7964C76.9189 109.753 77.8687 108.805 77.8687 107.684C77.8687 106.563 76.9189 105.615 75.7964 105.615H69.8385C68.716 105.615 67.7662 106.563 67.7662 107.684C67.6798 108.805 68.6297 109.753 69.8385 109.753Z" fill="white"/>
<path d="M42.8126 109.753H61.118C62.2405 109.753 63.1904 108.805 63.1904 107.684C63.1904 106.563 62.2405 105.615 61.118 105.615H42.8126C41.69 105.615 40.7402 106.563 40.7402 107.684C40.7402 108.805 41.69 109.753 42.8126 109.753Z" fill="white"/>
<path d="M18.376 109.753H34.2638C35.3863 109.753 36.3361 108.805 36.3361 107.684C36.3361 106.563 35.3863 105.615 34.2638 105.615H18.376C17.2535 105.615 16.3037 106.563 16.3037 107.684C16.3037 108.805 17.1672 109.753 18.376 109.753Z" fill="white"/>
<path d="M121.647 53.7988C121.647 62.7653 117.847 70.8696 111.717 76.5599C106.191 81.7329 98.7648 84.8367 90.5618 84.8367C82.5316 84.8367 75.1921 81.7329 69.666 76.7323C63.449 71.0421 59.4771 62.8515 59.4771 53.7988C59.4771 36.6418 73.3789 22.761 90.5618 22.761C107.745 22.761 121.647 36.6418 121.647 53.7988Z" fill="#D5F4FF"/>
<path d="M107.313 44.0565C105.845 50.5227 101.614 52.4195 101.614 52.4195C101.614 52.4195 103.255 47.0741 101.787 44.4014L101.701 44.3152L105.241 37.6765C106.363 38.1938 108.263 40.263 107.313 44.0565Z" fill="#340072"/>
<path d="M78.7326 42.332C79.078 48.9706 82.9636 51.5571 82.9636 51.5571C82.9636 51.5571 82.2728 45.9531 84.1724 43.6252L84.2588 43.539L81.9274 36.3831C80.8049 36.7279 78.5599 38.4522 78.7326 42.332Z" fill="#340072"/>
<path d="M111.717 76.4735C106.191 81.6465 98.7648 84.7502 90.5619 84.7502C82.5317 84.7502 75.1922 81.6465 69.666 76.6459C72.8608 70.8694 78.387 66.5586 84.9494 64.8343C86.849 64.317 88.9213 64.0583 90.9936 64.0583C91.4254 64.0583 91.8571 64.0583 92.2888 64.0583C93.8431 64.1446 95.311 64.4032 96.7789 64.7481C100.924 65.7827 104.723 67.9381 107.659 70.9556C109.299 72.68 110.681 74.4905 111.717 76.4735Z" fill="#3BA3FF"/>
<path d="M96.7789 67.2485C96.6926 70.611 93.7568 73.2837 90.3893 73.025C87.4535 72.8526 85.2085 70.611 84.9494 67.7658L84.8631 69.4039C84.7767 72.5077 87.1944 75.1804 90.3029 75.3529C93.6704 75.6115 96.5199 73.025 96.6062 69.6626L96.7789 67.2485Z" fill="#138EEA"/>
<path d="M86.5037 49.8328C88.1443 51.6434 88.576 53.9712 87.0218 55.4369C85.4676 56.8163 82.8772 56.4715 81.2366 54.6609C79.596 52.8504 79.5096 50.2639 81.0639 48.7982C82.5318 47.4188 84.7768 48.0223 86.5037 49.8328Z" fill="#FFBDA6"/>
<path d="M98.6786 62.0755C98.6786 62.1617 98.6786 62.1617 98.6786 62.0755C98.5059 62.1617 98.4196 62.1617 98.2469 62.2479C98.1606 62.2479 98.0742 62.3342 97.9879 62.4204C97.2971 62.8515 96.779 63.7136 96.779 64.5758V66.3863V67.6796C96.6063 71.042 93.7569 73.5423 90.4757 73.3698C87.3672 73.1112 84.9495 70.5247 85.0359 67.4209L84.8632 55.8679C84.2587 54.4885 83.827 53.0228 83.6543 51.4709C82.7909 44.4012 87.0218 38.0212 93.0661 37.3314C99.1104 36.6417 103.428 41.8147 104.291 48.9706C104.982 54.7471 102.91 60.0925 98.6786 62.0755Z" fill="#FFBDA6"/>
<path d="M84.4314 51.9021C84.2587 51.5573 83.827 51.2986 83.1362 50.9537C82.7045 50.7813 82.4454 50.6951 82.2727 50.6089C82.1 50.6089 81.9273 50.6089 81.841 50.7813C81.6683 51.2124 82.1864 51.5573 82.7045 51.8159C82.9635 51.9021 83.2225 52.0746 83.3952 52.1608C83.2225 52.247 82.9635 52.4194 82.7908 52.5919C82.4454 52.8505 82.2727 53.1092 82.1864 53.2816C82.1 53.454 82.1 53.6265 82.1864 53.7127C82.2727 53.7989 82.3591 53.8851 82.4454 53.8851C82.5318 53.8851 82.5318 53.8851 82.6181 53.8851C82.7908 53.7989 83.0499 53.7127 83.3952 53.3678C83.9133 52.9367 84.2587 52.5056 84.345 52.1608C84.4314 51.9883 84.4314 51.9021 84.4314 51.9021Z" fill="#FC9F86"/>
<path d="M97.9876 62.4204C97.2968 62.8515 96.7787 63.7137 96.7787 64.5758V65.9553C95.0518 65.9553 92.2023 64.662 90.8208 62.8515C91.857 63.0239 93.4112 63.455 95.2245 63.1964C96.5197 63.0239 97.2968 62.7653 97.9876 62.4204Z" fill="#FC9F86"/>
<path d="M92.9795 54.0574C92.9795 54.0574 93.7566 58.3682 97.2968 58.4544C100.837 58.5406 100.751 54.5747 100.751 54.5747L92.9795 54.0574Z" fill="white"/>
<path d="M104.377 43.7116C102.996 44.3151 101.442 44.0564 100.06 43.7116C98.6785 43.3667 97.3833 42.8494 96.0881 42.3321C94.7929 41.8148 93.5841 41.3837 92.2889 40.9526C91.1664 40.6078 90.0439 40.3491 88.835 40.3491C87.7125 40.4353 86.59 40.8664 85.8992 41.8148C86.1583 45.7808 84.8631 45.6945 84.8631 48.4535C84.8631 49.3156 83.8269 49.5743 83.3088 48.9708C82.6181 48.0224 82.1 46.9016 81.6682 45.7808C80.8911 43.6253 80.5457 41.3837 80.6321 39.0559C80.7184 37.1591 81.2365 35.0899 82.7044 33.7967C83.6542 32.8483 85.5538 31.9862 86.849 32.9345C87.4535 30.7791 90.0439 29.3135 91.5981 28.7099C94.6202 27.6753 97.9877 27.4167 100.924 28.6237C102.823 29.3997 104.464 30.6067 105.759 32.0724C107.227 33.7105 108.608 35.7797 108.608 38.1075C108.608 39.7456 107.745 41.2113 106.45 42.2459C105.845 43.0218 105.155 43.4529 104.377 43.7116Z" fill="#340072"/>
<path d="M93.2386 33.4517C90.9072 34.0552 88.7486 33.7104 88.5759 32.8482C88.4032 31.9861 90.1301 30.779 92.4615 30.1755C94.7928 29.572 96.9515 29.9169 97.1242 30.779C97.2969 31.7274 95.57 32.9344 93.2386 33.4517Z" fill="#491890"/>
<path d="M85.208 35.8658C84.5173 36.2106 83.8265 36.1244 83.5674 35.6933C83.3948 35.2623 83.7401 34.6587 84.4309 34.3139C85.1217 33.969 85.8125 34.0552 86.0715 34.4863C86.2442 34.9174 85.8988 35.5209 85.208 35.8658Z" fill="#491890"/>
<path d="M104.636 43.7979C103.255 44.4014 101.182 44.0565 99.2827 43.453C101.269 43.2806 103.341 41.9011 104.55 40.3492C105.931 38.4525 106.018 36.2108 105.154 34.0554C104.377 32.2449 103.082 30.5206 101.7 29.1411C103.341 29.8308 104.636 30.9517 105.845 32.2449C107.313 33.883 108.694 35.9522 108.694 38.1938C108.694 39.8319 107.917 41.3838 106.709 42.4184C106.018 43.1081 105.327 43.5392 104.636 43.7979Z" fill="#491890"/>
<path d="M158.603 128.98C158.603 135.446 156.617 141.481 153.163 146.481C151.782 148.464 150.227 150.275 148.414 151.913C145.91 154.241 142.974 156.138 139.78 157.431C136.067 159.069 131.836 159.931 127.518 159.931C124.064 159.931 120.697 159.414 117.588 158.293C113.357 156.914 109.558 154.586 106.277 151.568C105.673 150.965 105.068 150.361 104.464 149.758C99.4556 144.24 96.3472 136.911 96.3472 128.893C96.3472 111.736 110.249 97.8555 127.432 97.8555C144.701 97.9417 158.603 111.823 158.603 128.98Z" fill="#D5F4FF"/>
<path d="M142.284 118.806C144.442 126.134 142.715 133.118 138.398 134.325C134.167 135.532 128.986 130.618 126.828 123.289C124.669 115.961 126.396 108.977 130.713 107.77C134.944 106.477 140.125 111.478 142.284 118.806Z" fill="#F2307F"/>
<path d="M120.524 144.413C120.956 145.793 121.215 147.345 121.215 148.983C121.215 152.863 120.524 153.638 118.279 155.708C114.048 154.328 106.277 151.655 106.277 151.655C105.673 151.052 105.068 150.448 104.464 149.845C104.464 149.586 104.464 149.328 104.464 148.983C104.464 145.103 105.845 141.741 108.09 139.671C107.659 138.292 107.4 136.74 107.4 135.102C107.4 128.808 111.113 123.721 115.775 123.721C120.438 123.721 124.151 128.808 124.151 135.102C124.151 138.895 122.683 142.344 120.524 144.413Z" fill="#F2307F"/>
<path d="M113.876 132.169C114.567 132.514 115.344 132.256 115.603 131.566C115.948 130.876 115.689 130.1 114.998 129.842C114.308 129.497 113.53 129.755 113.271 130.445C112.926 131.049 113.185 131.825 113.876 132.169Z" fill="#F8EB55"/>
<path d="M153.163 146.481C151.782 148.464 150.228 150.275 148.414 151.913C148.414 151.913 142.543 153.206 139.348 154.586C137.362 152.516 136.585 152.172 136.585 148.464C136.585 147.43 136.671 146.481 136.844 145.533C133.822 143.809 131.663 139.756 131.663 135.015C131.663 128.721 135.376 123.634 140.039 123.634C144.701 123.634 148.414 128.721 148.414 135.015C148.414 136.049 148.328 136.998 148.155 137.946C150.746 139.412 152.645 142.602 153.163 146.481Z" fill="#F2307F"/>
<path d="M110.681 119.237C112.149 125.703 116.38 127.6 116.38 127.6C116.38 127.6 114.739 122.255 116.207 119.582L116.293 119.496L112.753 112.857C111.717 113.288 109.817 115.357 110.681 119.237Z" fill="#F2307F"/>
<path d="M139.348 117.513C139.003 124.152 135.117 126.738 135.117 126.738C135.117 126.738 135.808 121.134 133.908 118.806L133.822 118.72L136.153 111.564C137.276 111.909 139.521 113.633 139.348 117.513Z" fill="#F2307F"/>
<path d="M106.363 151.654C111.889 156.827 119.315 159.931 127.518 159.931C135.548 159.931 142.888 156.827 148.414 151.827C145.219 146.05 139.693 141.739 133.131 140.015C131.231 139.498 129.159 139.239 127.086 139.239C126.655 139.239 126.223 139.239 125.791 139.239C124.237 139.325 122.769 139.584 121.301 139.929C117.157 140.963 113.357 143.119 110.422 146.136C108.781 147.861 107.399 149.671 106.363 151.654Z" fill="#03F2EB"/>
<path d="M121.301 142.343C121.388 145.705 124.323 148.378 127.691 148.119C130.627 147.947 132.872 145.705 133.131 142.86L133.217 144.498C133.303 147.602 130.886 150.275 127.777 150.447C124.41 150.706 121.56 148.119 121.474 144.757L121.301 142.343Z" fill="#00C5D0"/>
<path d="M131.577 125.013C129.936 126.824 129.504 129.152 131.058 130.618C132.613 131.997 135.203 131.652 136.844 129.842C138.484 128.031 138.571 125.445 137.016 123.979C135.548 122.599 133.217 123.203 131.577 125.013Z" fill="#FFBDA6"/>
<path d="M119.315 137.256C119.402 137.256 119.402 137.256 119.315 137.256C119.488 137.342 119.574 137.342 119.747 137.429C119.833 137.429 119.92 137.515 120.006 137.601C120.697 138.032 121.215 138.894 121.215 139.756V141.567V142.86C121.388 146.223 124.237 148.723 127.518 148.551C130.627 148.292 133.045 145.705 132.958 142.602L133.131 131.049C133.735 129.669 134.167 128.203 134.34 126.652C135.203 119.582 130.972 113.202 124.928 112.512C118.884 111.822 114.566 116.995 113.703 124.151C113.098 129.842 115.171 135.273 119.315 137.256Z" fill="#FFBDA6"/>
<path d="M133.649 126.996C133.822 126.652 134.253 126.393 134.944 126.048C135.376 125.876 135.635 125.789 135.808 125.703C135.98 125.703 136.153 125.703 136.239 125.876C136.412 126.307 135.894 126.651 135.376 126.91C135.117 126.996 134.858 127.169 134.685 127.255C134.858 127.427 135.117 127.514 135.29 127.686C135.635 127.945 135.808 128.203 135.894 128.376C135.98 128.548 135.98 128.721 135.894 128.807C135.808 128.893 135.721 128.979 135.635 128.979C135.549 128.979 135.549 128.979 135.462 128.979C135.29 128.893 135.03 128.807 134.685 128.462C134.167 128.031 133.822 127.6 133.735 127.255C133.649 127.169 133.649 127.083 133.649 126.996Z" fill="#FC9F86"/>
<path d="M120.092 137.601C120.783 138.032 121.301 138.894 121.301 139.756V141.136C123.028 141.136 125.878 139.843 127.259 138.032C126.223 138.205 124.669 138.636 122.855 138.377C121.56 138.205 120.783 137.946 120.092 137.601Z" fill="#FC9F86"/>
<path d="M125.1 129.238C125.1 129.238 124.323 133.549 120.783 133.635C117.243 133.721 117.329 129.755 117.329 129.755L125.1 129.238Z" fill="white"/>
<path d="M113.703 118.892C115.084 119.496 116.638 119.237 118.02 118.892C119.402 118.547 120.697 118.03 121.992 117.513C123.287 116.995 124.496 116.564 125.791 116.133C126.914 115.788 128.036 115.53 129.245 115.53C130.368 115.616 131.49 116.047 132.181 116.995C131.922 121.824 133.821 120.617 133.044 125.962C134.599 124.755 135.721 122.772 136.412 120.961C137.189 118.806 137.534 116.564 137.448 114.237C137.362 112.34 136.844 110.271 135.376 108.977C134.426 108.029 132.526 107.167 131.231 108.115C130.627 105.96 128.036 104.494 126.482 103.891C123.46 102.856 120.092 102.597 117.157 103.804C115.257 104.58 113.616 105.787 112.321 107.253C110.853 108.891 109.472 110.96 109.472 113.288C109.472 114.926 110.335 116.392 111.63 117.427C112.235 118.202 112.926 118.547 113.703 118.892Z" fill="#F2307F"/>
<path d="M113.444 118.979C114.826 119.582 116.898 119.237 118.798 118.634C116.812 118.461 114.739 117.082 113.53 115.53C112.149 113.633 112.062 111.391 112.926 109.236C113.703 107.426 114.998 105.701 116.38 104.322C114.739 105.012 113.444 106.132 112.235 107.426C110.767 109.064 109.386 111.133 109.386 113.374C109.386 115.013 110.163 116.564 111.372 117.599C111.976 118.203 112.753 118.634 113.444 118.979Z" fill="#F55E9B"/>
<path d="M123.115 109.84C126.223 110.529 128.9 110.185 129.159 109.064C129.418 107.857 127.173 106.391 124.064 105.615C120.956 104.925 118.279 105.27 118.02 106.391C117.761 107.598 120.092 109.15 123.115 109.84Z" fill="#F55E9B"/>
<path d="M132.613 111.736C133.476 112.167 134.426 112.081 134.685 111.478C134.944 110.96 134.426 110.098 133.563 109.667C132.699 109.236 131.749 109.322 131.49 109.926C131.231 110.529 131.749 111.305 132.613 111.736Z" fill="#F55E9B"/>
<path d="M133.908 132.169C134.598 132.514 135.376 132.256 135.635 131.566C135.98 130.876 135.721 130.1 135.03 129.842C134.339 129.497 133.562 129.755 133.303 130.445C132.958 131.049 133.217 131.825 133.908 132.169Z" fill="#F8EB55"/>
<defs>
<linearGradient id="paint0_linear_146_131" x1="52.3995" y1="213.584" x2="168.701" y2="213.584" gradientUnits="userSpaceOnUse">
<stop stop-color="#3BA3FF"/>
<stop offset="0.9981" stop-color="#13FFFF"/>
</linearGradient>
<linearGradient id="paint1_linear_146_131" x1="52.3954" y1="214.059" x2="168.701" y2="214.059" gradientUnits="userSpaceOnUse">
<stop stop-color="#3BA3FF"/>
<stop offset="0.9981" stop-color="#13FFFF"/>
</linearGradient>
<linearGradient id="paint2_linear_146_131" x1="52.359" y1="211.511" x2="168.703" y2="211.511" gradientUnits="userSpaceOnUse">
<stop stop-color="#3BA3FF"/>
<stop offset="0.9981" stop-color="#13FFFF"/>
</linearGradient>
<linearGradient id="paint3_linear_146_131" x1="52.3892" y1="213.001" x2="168.702" y2="213.001" gradientUnits="userSpaceOnUse">
<stop stop-color="#3BA3FF"/>
<stop offset="0.9981" stop-color="#13FFFF"/>
</linearGradient>
<linearGradient id="paint4_linear_146_131" x1="52.3697" y1="214.42" x2="168.703" y2="214.42" gradientUnits="userSpaceOnUse">
<stop stop-color="#3BA3FF"/>
<stop offset="0.9981" stop-color="#13FFFF"/>
</linearGradient>
<linearGradient id="paint5_linear_146_131" x1="52.3822" y1="212.312" x2="168.702" y2="212.312" gradientUnits="userSpaceOnUse">
<stop stop-color="#3BA3FF"/>
<stop offset="0.9981" stop-color="#13FFFF"/>
</linearGradient>
<linearGradient id="paint6_linear_146_131" x1="52.3855" y1="203.173" x2="168.702" y2="203.173" gradientUnits="userSpaceOnUse">
<stop stop-color="#3BA3FF"/>
<stop offset="0.9981" stop-color="#13FFFF"/>
</linearGradient>
<linearGradient id="paint7_linear_146_131" x1="215.611" y1="177.09" x2="116.84" y2="177.09" gradientUnits="userSpaceOnUse">
<stop stop-color="#00E5E5"/>
<stop offset="1" stop-color="#0BFF96"/>
</linearGradient>
<linearGradient id="paint8_linear_146_131" x1="102.086" y1="107.633" x2="0.817868" y2="107.633" gradientUnits="userSpaceOnUse">
<stop stop-color="#00E5E5"/>
<stop offset="1" stop-color="#0BFF96"/>
</linearGradient>
</defs>
</svg>
