<svg width="393" height="584" viewBox="0 0 393 584" fill="none" xmlns="http://www.w3.org/2000/svg">
<path d="M125.595 265.01C106.195 309.362 110.296 339.667 102.094 365.552C89.9483 403.907 55.4053 398.856 55.4053 398.856C55.4053 398.856 60.4527 365.237 61.8722 320.884C62.3454 303.838 72.7556 288.528 88.371 281.583L125.595 265.01Z" fill="#FC9F86"/>
<path d="M86.7936 321.674C98.308 294.683 98.1502 262.327 119.602 218.763C121.337 215.133 123.387 211.345 125.595 207.399L112.504 211.818L80.3267 222.551C77.803 223.341 75.437 224.445 73.071 225.55V342.192C78.1184 337.299 82.8503 330.67 86.7936 321.674Z" fill="#FC9F86"/>
<path d="M73.0711 225.708V342.35C53.5125 361.291 28.7488 355.135 28.7488 355.135C28.7488 355.135 29.3797 351.505 30.4838 345.507C32.5343 334.774 35.8467 316.781 38.8435 300.365C41.6827 284.424 44.3641 270.061 44.995 265.325C47.2033 248.121 57.9289 233.442 73.0711 225.708Z" fill="#FFBDA6"/>
<path d="M101.778 150.262C117.867 143.317 134.901 135.425 151.936 126.428C153.987 125.323 156.037 124.218 158.088 123.114C151.305 118.852 144.681 114.432 138.372 110.171C126.226 101.963 115.027 93.9135 105.09 86.3373C103.671 85.2324 102.251 84.1276 100.674 83.0227C93.1028 77.3406 81.7462 68.0281 73.071 60.7676V124.692C78.5916 130.058 84.7431 135.109 91.2101 140.791C94.5224 143.79 98.1502 146.947 101.778 150.262Z" fill="#FC9F86"/>
<path d="M60.6104 50.3503C60.6104 50.3503 34.9002 79.3925 63.134 114.117C66.1309 117.905 69.601 121.377 73.0711 124.85V60.7676C65.9732 54.7698 60.6104 50.3503 60.6104 50.3503Z" fill="#FFBDA6"/>
<path d="M72.2824 165.098C54.4588 171.885 17.3921 183.881 17.3921 183.881C17.3921 183.881 28.2755 220.973 72.5978 215.607C72.7556 215.607 72.9133 215.607 72.9133 215.607V164.783C72.7556 164.941 72.5978 164.941 72.2824 165.098Z" fill="#FFBDA6"/>
<path d="M130.958 184.513C121.021 171.728 111.084 161.784 101.778 153.261C101.62 153.418 101.305 153.418 101.147 153.576C91.2101 157.838 81.904 161.626 73.071 164.941V215.764C91.9987 213.397 110.611 205.189 135.217 199.191C136.952 198.718 138.845 198.402 140.58 197.929C137.425 193.036 134.271 188.616 130.958 184.513Z" fill="#FC9F86"/>
<path d="M380.488 503.187C402.413 565.059 259.193 615.252 228.12 560.64C212.189 532.703 210.928 494.032 177.804 478.091C144.838 462.307 126.542 433.896 118.34 417.639C114.554 410.22 112.977 405.327 112.977 405.327C112.977 405.327 115.658 405.012 120.548 404.538C149.255 401.697 252.726 392.543 311.402 400.592C316.607 401.224 321.497 402.171 325.913 403.118C342.633 406.906 353.674 412.904 352.57 421.9C349.731 447.47 366.45 463.412 380.488 503.187Z" fill="#FFBDA6"/>
<path d="M285.85 12.6271H116.605C104.617 12.6271 94.9956 22.2552 94.9956 34.2509V68.5017V193.667V371.392C94.9956 383.388 104.617 393.016 116.605 393.016H170.864H285.85C292.474 393.016 298.468 390.017 302.411 385.282C305.566 381.494 307.459 376.759 307.459 371.392V204.4V73.7103V34.2509C307.459 22.413 297.837 12.6271 285.85 12.6271Z" fill="#340072"/>
<path d="M307.459 34.2509C307.459 22.2552 297.837 12.6271 285.85 12.6271H116.605C104.617 12.6271 94.9956 22.2552 94.9956 34.2509V350.716H307.459V34.2509Z" fill="#F6FDFF"/>
<path d="M311.244 400.593C307.459 403.907 302.569 405.801 297.206 405.801H127.804C125.122 405.801 122.598 405.328 120.232 404.381C115.343 404.854 112.661 405.17 112.661 405.17C112.661 405.17 114.396 410.063 118.024 417.481C120.548 418.113 123.072 418.428 125.753 418.428H299.099C310.456 418.428 320.393 412.273 325.756 403.118C321.339 402.171 316.449 401.224 311.244 400.593Z" fill="#FC9F86"/>
<path d="M287.9 0H114.554C97.5192 0 83.6389 13.8897 83.6389 30.9362V375.023C83.6389 392.069 97.5192 405.959 114.554 405.959H287.9C304.935 405.959 318.815 392.069 318.815 375.023V30.9362C318.658 13.8897 304.935 0 287.9 0ZM307.459 73.7103V204.4V371.55C307.459 376.759 305.566 381.652 302.411 385.44C298.468 390.175 292.474 393.174 285.85 393.174H170.864H116.605C104.617 393.174 94.9955 383.546 94.9955 371.55V193.825V68.5016V34.2508C94.9955 22.413 104.617 12.627 116.605 12.627H154.46C157.93 12.627 160.769 15.4681 160.769 18.9405V24.6227C160.769 29.0422 164.239 32.5146 168.656 32.5146H233.799C238.215 32.5146 241.685 29.0422 241.685 24.6227V18.9405C241.685 15.4681 244.524 12.627 247.994 12.627H285.85C297.837 12.627 307.459 22.2551 307.459 34.2508V73.7103Z" fill="#44006F"/>
<path d="M147.993 28.8843H127.488C125.911 28.8843 124.491 27.6216 124.491 25.8854V23.6757C124.491 22.0973 125.753 20.6768 127.488 20.6768H147.993C149.57 20.6768 150.99 21.9395 150.99 23.6757V25.8854C150.99 27.6216 149.57 28.8843 147.993 28.8843Z" fill="#BDD8FF"/>
<path d="M116.762 28.8843H110.926C109.349 28.8843 107.929 27.6216 107.929 25.8854V23.6757C107.929 22.0973 109.191 20.6768 110.926 20.6768H116.762C118.34 20.6768 119.759 21.9395 119.759 23.6757V25.8854C119.759 27.6216 118.497 28.8843 116.762 28.8843Z" fill="#BDD8FF"/>
<path d="M291.055 24.6227C291.055 26.9903 289.162 28.8843 286.796 28.8843C284.43 28.8843 282.537 26.9903 282.537 24.6227C282.537 22.2551 284.43 20.3611 286.796 20.3611C289.004 20.3611 291.055 22.2551 291.055 24.6227Z" fill="#BDD8FF"/>
<path d="M256.512 28.8843C258.864 28.8843 260.77 26.9763 260.77 24.6227C260.77 22.2691 258.864 20.3611 256.512 20.3611C254.16 20.3611 252.253 22.2691 252.253 24.6227C252.253 26.9763 254.16 28.8843 256.512 28.8843Z" fill="#BDD8FF"/>
<path d="M271.654 28.8843C274.006 28.8843 275.913 26.9763 275.913 24.6227C275.913 22.2691 274.006 20.3611 271.654 20.3611C269.302 20.3611 267.395 22.2691 267.395 24.6227C267.395 26.9763 269.302 28.8843 271.654 28.8843Z" fill="#BDD8FF"/>
<path d="M295.629 390.806C295.314 390.964 294.998 391.122 294.84 391.28C294.998 391.122 295.314 390.964 295.629 390.806Z" fill="url(#paint0_linear_110_355)"/>
<path d="M293.578 391.753C293.263 391.911 292.948 391.911 292.79 392.069C292.948 391.911 293.263 391.753 293.578 391.753Z" fill="url(#paint1_linear_110_355)"/>
<path d="M300.992 387.018C300.834 387.176 300.677 387.334 300.519 387.492C300.677 387.334 300.834 387.176 300.992 387.018Z" fill="url(#paint2_linear_110_355)"/>
<path d="M297.522 389.702C297.206 389.859 297.049 390.017 296.733 390.175C297.049 390.017 297.364 389.859 297.522 389.702Z" fill="url(#paint3_linear_110_355)"/>
<path d="M291.37 392.385C291.055 392.385 290.897 392.543 290.582 392.543C290.739 392.543 291.055 392.543 291.37 392.385Z" fill="url(#paint4_linear_110_355)"/>
<path d="M299.257 388.439C299.099 388.597 298.784 388.755 298.626 388.912C298.941 388.755 299.099 388.597 299.257 388.439Z" fill="url(#paint5_linear_110_355)"/>
<path d="M234.272 350.716H94.9956V371.55C94.9956 383.546 104.617 393.174 116.605 393.174H214.082C218.183 380.074 224.65 366.184 233.168 352.452C233.483 351.978 233.799 351.347 234.272 350.716Z" fill="url(#paint6_linear_110_355)"/>
<path d="M290.582 392.701C289.951 392.859 289.32 393.016 288.689 393.016C289.32 392.859 289.951 392.859 290.582 392.701Z" fill="#BDD8FF"/>
<path d="M300.361 387.492C300.046 387.808 299.572 388.123 299.257 388.439C299.73 388.123 300.046 387.808 300.361 387.492Z" fill="#BDD8FF"/>
<path d="M298.626 388.912C298.31 389.228 297.837 389.386 297.522 389.702C297.995 389.544 298.31 389.228 298.626 388.912Z" fill="#BDD8FF"/>
<path d="M293.894 155.312C289.162 182.618 301.623 211.661 292.632 254.119C291.37 260.117 289.635 265.957 287.427 271.639C281.275 287.896 271.969 302.891 260.297 315.991C250.833 326.566 242.001 338.404 234.272 350.716H307.459V303.68V124.692C301.307 131.795 296.26 141.581 293.894 155.312Z" fill="#D2E4FF"/>
<path d="M302.411 385.44C301.938 386.071 301.465 386.545 300.992 387.018C301.465 386.387 301.938 385.913 302.411 385.44Z" fill="#BDD8FF"/>
<path d="M294.84 391.28C294.367 391.438 294.052 391.596 293.578 391.754C294.052 391.596 294.367 391.438 294.84 391.28Z" fill="#BDD8FF"/>
<path d="M292.632 392.069C292.159 392.227 291.686 392.385 291.213 392.543C291.844 392.385 292.317 392.227 292.632 392.069Z" fill="#BDD8FF"/>
<path d="M296.733 390.175C296.418 390.333 295.944 390.649 295.629 390.806C295.944 390.649 296.418 390.333 296.733 390.175Z" fill="#BDD8FF"/>
<path d="M214.082 393.174H285.85C286.638 393.174 287.585 393.174 288.373 393.016C287.585 393.174 286.796 393.174 286.007 393.174H214.082Z" fill="#BDD8FF"/>
<path d="M233.168 352.452C224.808 366.184 218.341 379.916 214.082 393.174H285.85C286.638 393.174 287.427 393.174 288.216 393.016C288.373 393.016 288.373 393.016 288.531 393.016C289.162 392.858 289.793 392.858 290.424 392.701C290.739 392.701 290.897 392.543 291.213 392.543C291.686 392.385 292.159 392.227 292.632 392.069C292.948 391.911 293.263 391.911 293.421 391.754C293.894 391.596 294.209 391.438 294.683 391.28C294.998 391.122 295.314 390.964 295.471 390.807C295.787 390.649 296.26 390.333 296.575 390.175C296.891 390.017 297.049 389.859 297.364 389.702C297.68 389.386 298.153 389.228 298.468 388.912C298.626 388.755 298.941 388.597 299.099 388.439C299.415 388.123 299.888 387.808 300.203 387.492C300.361 387.334 300.519 387.176 300.676 387.018C301.15 386.545 301.623 385.914 302.096 385.44C305.251 381.652 307.143 376.917 307.143 371.55V350.716H233.956C233.799 351.347 233.483 351.978 233.168 352.452Z" fill="#3BA3FF"/>
<path d="M352.57 421.901L339.636 414.167C313.926 453.152 276.386 473.356 252.726 459.624C227.489 445.103 230.328 398.541 253.515 352.61C260.297 339.036 268.499 325.935 277.49 314.097C291.686 295.315 301.307 273.217 304.304 249.857C309.667 206.925 294.683 179.146 297.206 151.524C301.465 102.752 343.579 99.5957 343.579 99.5957C343.579 99.5957 343.895 103.226 344.368 109.539C344.525 110.802 344.683 112.065 344.841 113.485C344.841 113.643 344.841 113.959 344.841 114.117C345.945 125.165 347.838 141.581 350.992 161.31C351.15 162.257 351.308 163.047 351.466 163.994C351.781 165.73 351.939 167.308 352.254 169.044C357.459 200.612 365.504 239.282 377.649 276.374C386.64 304.469 359.352 380.705 352.57 421.901Z" fill="#FFBDA6"/>
<path d="M350.992 161.468C341.529 158.627 333.958 150.893 332.065 140.476L328.752 123.429C328.122 120.588 330.014 117.747 332.853 116.958L344.841 113.643C344.841 113.801 344.841 114.117 344.841 114.275C345.945 125.323 347.838 141.738 350.992 161.468Z" fill="#FFDED2"/>
<path d="M47.9917 325.146L45.9412 341.088C45.6258 343.929 42.9444 346.138 40.1052 345.981L30.6414 345.507C32.6919 334.774 36.0042 316.781 39.0011 300.365C45.6258 306.521 49.2536 315.518 47.9917 325.146Z" fill="#FFDED2"/>
<path d="M212.663 331.459L225.439 318.675V307.784C225.439 302.259 230.013 297.682 235.534 297.682H382.854C388.375 297.682 392.949 302.259 392.949 307.784V340.614C392.949 346.138 388.375 350.716 382.854 350.716H235.534C230.013 350.716 225.439 346.138 225.439 340.614V331.459H212.663Z" fill="url(#paint7_linear_110_355)"/>
<path d="M257.774 319.306H362.664C364.715 319.306 366.45 317.57 366.45 315.518C366.45 313.466 364.715 311.73 362.664 311.73H257.774C255.723 311.73 253.988 313.466 253.988 315.518C253.83 317.57 255.565 319.306 257.774 319.306Z" fill="white"/>
<path d="M351.623 336.668H362.507C364.557 336.668 366.292 334.932 366.292 332.88C366.292 330.828 364.557 329.092 362.507 329.092H351.623C349.573 329.092 347.838 330.828 347.838 332.88C347.838 334.932 349.573 336.668 351.623 336.668Z" fill="white"/>
<path d="M257.774 336.668H335.85C337.901 336.668 339.636 334.932 339.636 332.88C339.636 330.828 337.901 329.092 335.85 329.092H257.774C255.723 329.092 253.988 330.828 253.988 332.88C253.83 334.932 255.565 336.668 257.774 336.668Z" fill="white"/>
<path d="M10.9251 160.048H159.981C165.501 160.048 170.075 164.625 170.075 170.149V189.248H185.691L170.075 204.874V223.656C170.075 229.181 165.501 233.758 159.981 233.758H10.9251C5.40451 233.758 0.830322 229.181 0.830322 223.656V170.149C0.830322 164.625 5.40451 160.048 10.9251 160.048Z" fill="url(#paint8_linear_110_355)"/>
<path d="M60.6102 183.565H137.898C139.949 183.565 141.684 181.829 141.684 179.777C141.684 177.725 139.949 175.989 137.898 175.989H60.6102C58.5597 175.989 56.8247 177.725 56.8247 179.777C56.6669 181.829 58.402 183.565 60.6102 183.565Z" fill="white"/>
<path d="M33.007 183.565H43.8904C45.9409 183.565 47.6759 181.829 47.6759 179.777C47.6759 177.725 45.9409 175.989 43.8904 175.989H33.007C30.9565 175.989 29.2214 177.725 29.2214 179.777C29.2214 181.829 30.9565 183.565 33.007 183.565Z" fill="white"/>
<path d="M110.611 210.556H33.3226C31.2721 210.556 29.5371 212.292 29.5371 214.344C29.5371 216.396 31.2721 218.132 33.3226 218.132H110.611C112.661 218.132 114.396 216.396 114.396 214.344C114.396 212.292 112.661 210.556 110.611 210.556Z" fill="white"/>
<path d="M138.056 210.556H127.173C125.122 210.556 123.387 212.292 123.387 214.344C123.387 216.396 125.122 218.132 127.173 218.132H138.056C140.106 218.132 141.841 216.396 141.841 214.344C141.841 212.292 140.106 210.556 138.056 210.556Z" fill="white"/>
<path d="M126.857 200.928H137.74C139.791 200.928 141.526 199.191 141.526 197.14C141.526 195.088 139.791 193.351 137.74 193.351H126.857C124.807 193.351 123.071 195.088 123.071 197.14C122.914 199.191 124.649 200.928 126.857 200.928Z" fill="white"/>
<path d="M77.4872 200.928H110.926C112.977 200.928 114.712 199.191 114.712 197.14C114.712 195.088 112.977 193.351 110.926 193.351H77.4872C75.4367 193.351 73.7017 195.088 73.7017 197.14C73.7017 199.191 75.4367 200.928 77.4872 200.928Z" fill="white"/>
<path d="M32.8495 200.928H61.8719C63.9224 200.928 65.6575 199.191 65.6575 197.14C65.6575 195.088 63.9224 193.351 61.8719 193.351H32.8495C30.799 193.351 29.064 195.088 29.064 197.14C29.064 199.191 30.6413 200.928 32.8495 200.928Z" fill="white"/>
<path d="M221.496 98.4908C221.496 114.906 214.555 129.743 203.356 140.16C193.262 149.63 179.697 155.312 164.712 155.312C150.044 155.312 136.636 149.63 126.542 140.476C115.185 130.058 107.929 115.064 107.929 98.4908C107.929 67.0811 133.324 41.6692 164.712 41.6692C196.101 41.6692 221.496 67.0811 221.496 98.4908Z" fill="#D5F4FF"/>
<path d="M195.312 80.6551C192.631 92.4929 184.902 95.9654 184.902 95.9654C184.902 95.9654 187.899 86.1794 185.218 81.2864L185.06 81.1286L191.527 68.9751C193.577 69.9221 197.047 73.7102 195.312 80.6551Z" fill="#340072"/>
<path d="M143.103 77.4984C143.734 89.6519 150.832 94.387 150.832 94.387C150.832 94.387 149.57 84.1275 153.04 79.8659L153.198 79.7081L148.939 66.6075C146.889 67.2389 142.788 70.3956 143.103 77.4984Z" fill="#340072"/>
<path d="M203.357 140.002C193.262 149.472 179.697 155.155 164.713 155.155C150.044 155.155 136.637 149.472 126.542 140.318C132.378 129.743 142.473 121.851 154.46 118.694C157.93 117.747 161.716 117.274 165.501 117.274C166.29 117.274 167.079 117.274 167.867 117.274C170.706 117.431 173.388 117.905 176.069 118.536C183.64 120.43 190.58 124.376 195.943 129.901C198.94 133.057 201.464 136.372 203.357 140.002Z" fill="#3BA3FF"/>
<path d="M176.069 123.114C175.912 129.269 170.549 134.162 164.397 133.689C159.034 133.373 154.933 129.269 154.46 124.061L154.302 127.059C154.145 132.742 158.561 137.635 164.239 137.95C170.391 138.424 175.596 133.689 175.754 127.533L176.069 123.114Z" fill="#138EEA"/>
<path d="M157.299 91.2302C160.296 94.5448 161.085 98.8064 158.246 101.49C155.407 104.015 150.675 103.384 147.678 100.069C144.681 96.7545 144.523 92.0194 147.362 89.3361C150.044 86.8107 154.145 87.9156 157.299 91.2302Z" fill="#FFBDA6"/>
<path d="M179.539 113.643C179.539 113.801 179.539 113.801 179.539 113.643C179.224 113.801 179.066 113.801 178.751 113.959C178.593 113.959 178.435 114.117 178.277 114.275C177.016 115.064 176.069 116.642 176.069 118.221V121.535V123.903C175.754 130.058 170.549 134.636 164.555 134.32C158.877 133.846 154.46 129.111 154.618 123.429L154.302 102.279C153.198 99.7535 152.41 97.0702 152.094 94.2291C150.517 81.2864 158.246 69.6064 169.287 68.3437C180.328 67.081 188.215 76.5513 189.792 89.6518C191.054 100.227 187.268 110.013 179.539 113.643Z" fill="#FFBDA6"/>
<path d="M153.514 95.0183C153.198 94.387 152.41 93.9135 151.148 93.2821C150.359 92.9664 149.886 92.8086 149.571 92.6508C149.255 92.6508 148.94 92.6508 148.782 92.9664C148.466 93.7556 149.413 94.387 150.359 94.8605C150.832 95.0183 151.306 95.334 151.621 95.4918C151.306 95.6497 150.832 95.9653 150.517 96.281C149.886 96.7545 149.57 97.228 149.413 97.5437C149.255 97.8594 149.255 98.1751 149.413 98.3329C149.57 98.4908 149.728 98.6486 149.886 98.6486C150.044 98.6486 150.044 98.6486 150.201 98.6486C150.517 98.4908 150.99 98.3329 151.621 97.7016C152.567 96.9124 153.198 96.1232 153.356 95.4918C153.514 95.1762 153.514 95.0183 153.514 95.0183Z" fill="#FC9F86"/>
<path d="M178.277 114.275C177.016 115.064 176.069 116.642 176.069 118.22V120.746C172.915 120.746 167.709 118.378 165.186 115.064C167.079 115.379 169.918 116.169 173.23 115.695C175.596 115.379 177.016 114.906 178.277 114.275Z" fill="#FC9F86"/>
<path d="M169.129 98.9642C169.129 98.9642 170.548 106.856 177.015 107.014C183.482 107.172 183.325 99.9113 183.325 99.9113L169.129 98.9642Z" fill="white"/>
<path d="M189.95 80.0238C187.426 81.1286 184.587 80.6551 182.063 80.0238C179.539 79.3924 177.173 78.4454 174.807 77.4984C172.442 76.5513 170.233 75.7621 167.867 74.9729C165.817 74.3416 163.766 73.8681 161.558 73.8681C159.508 74.0259 157.457 74.8151 156.195 76.5513C156.668 83.8119 154.302 83.654 154.302 88.7048C154.302 90.2832 152.41 90.7567 151.463 89.6519C150.201 87.9156 149.255 85.8638 148.466 83.8119C147.047 79.8659 146.416 75.7621 146.574 71.5005C146.731 68.0281 147.678 64.24 150.359 61.8724C152.094 60.1362 155.564 58.5578 157.93 60.294C159.034 56.3481 163.766 53.6648 166.605 52.56C172.126 50.6659 178.278 50.1924 183.64 52.4021C187.11 53.8227 190.107 56.0324 192.473 58.7157C195.155 61.7146 197.678 65.5027 197.678 69.7643C197.678 72.7632 196.101 75.4465 193.735 77.3405C192.631 78.7611 191.369 79.5502 189.95 80.0238Z" fill="#340072"/>
<path d="M169.602 61.2411C165.343 62.3459 161.4 61.7146 161.085 60.1362C160.769 58.5578 163.924 56.3481 168.183 55.2432C172.441 54.1384 176.385 54.7697 176.7 56.3481C177.016 58.0843 173.861 60.294 169.602 61.2411Z" fill="#491890"/>
<path d="M154.933 65.6606C153.671 66.2919 152.41 66.1341 151.936 65.3449C151.621 64.5557 152.252 63.4509 153.514 62.8195C154.776 62.1882 156.037 62.346 156.511 63.1352C156.826 63.9244 156.195 65.0292 154.933 65.6606Z" fill="#491890"/>
<path d="M190.423 80.1816C187.899 81.2864 184.113 80.6551 180.643 79.5502C184.271 79.2345 188.057 76.7091 190.265 73.868C192.789 70.3956 192.946 66.2918 191.369 62.3459C189.949 59.0313 187.583 55.8745 185.06 53.3491C188.057 54.6118 190.423 56.6637 192.631 59.0313C195.312 62.0302 197.836 65.8183 197.836 69.9221C197.836 72.921 196.416 75.7621 194.208 77.6562C192.946 78.9189 191.684 79.708 190.423 80.1816Z" fill="#491890"/>
<path d="M289.004 236.125C289.004 247.963 285.377 259.012 279.067 268.167C276.544 271.797 273.704 275.111 270.392 278.11C265.818 282.372 260.455 285.844 254.619 288.212C247.837 291.211 240.108 292.789 232.221 292.789C225.912 292.789 219.761 291.842 214.082 289.79C206.353 287.265 199.413 283.003 193.42 277.479C192.315 276.374 191.211 275.269 190.107 274.164C180.959 264.063 175.281 250.647 175.281 235.968C175.281 204.558 200.675 179.146 232.064 179.146C263.61 179.304 289.004 204.716 289.004 236.125Z" fill="#D5F4FF"/>
<path d="M259.193 217.501C263.136 230.917 259.982 243.702 252.095 245.911C244.366 248.121 234.903 239.124 230.959 225.708C227.016 212.292 230.171 199.507 238.057 197.297C245.786 194.93 255.25 204.084 259.193 217.501Z" fill="#F2307F"/>
<path d="M219.445 264.378C220.234 266.903 220.707 269.744 220.707 272.743C220.707 279.846 219.445 281.267 215.344 285.055C207.615 282.529 193.42 277.636 193.42 277.636C192.315 276.531 191.211 275.427 190.107 274.322C190.107 273.848 190.107 273.375 190.107 272.743C190.107 265.641 192.631 259.485 196.732 255.697C195.943 253.171 195.47 250.33 195.47 247.331C195.47 235.809 202.252 226.497 210.77 226.497C219.287 226.497 226.07 235.809 226.07 247.331C226.07 254.276 223.388 260.59 219.445 264.378Z" fill="#F2307F"/>
<path d="M207.3 241.965C208.562 242.597 209.981 242.123 210.454 240.86C211.085 239.598 210.612 238.177 209.35 237.704C208.088 237.072 206.669 237.546 206.196 238.809C205.565 239.913 206.038 241.334 207.3 241.965Z" fill="#F8EB55"/>
<path d="M279.067 268.166C276.544 271.797 273.705 275.111 270.392 278.11C270.392 278.11 259.667 280.478 253.831 283.003C250.203 279.215 248.783 278.584 248.783 271.797C248.783 269.903 248.941 268.167 249.256 266.43C243.736 263.274 239.792 255.855 239.792 247.174C239.792 235.652 246.575 226.339 255.092 226.339C263.61 226.339 270.392 235.652 270.392 247.174C270.392 249.068 270.235 250.804 269.919 252.541C274.651 255.224 278.121 261.064 279.067 268.166Z" fill="#F2307F"/>
<path d="M201.464 218.29C204.145 230.128 211.874 233.6 211.874 233.6C211.874 233.6 208.877 223.814 211.559 218.921L211.716 218.763L205.249 206.61C203.357 207.399 199.887 211.187 201.464 218.29Z" fill="#F2307F"/>
<path d="M253.83 215.133C253.199 227.287 246.102 232.022 246.102 232.022C246.102 232.022 247.363 221.762 243.893 217.501L243.736 217.343L247.994 204.242C250.045 204.874 254.146 208.03 253.83 215.133Z" fill="#F2307F"/>
<path d="M193.577 277.637C203.672 287.107 217.237 292.789 232.221 292.789C246.89 292.789 260.297 287.107 270.392 277.952C264.556 267.377 254.461 259.485 242.474 256.329C239.004 255.382 235.218 254.908 231.433 254.908C230.644 254.908 229.855 254.908 229.067 254.908C226.228 255.066 223.546 255.539 220.865 256.171C213.294 258.065 206.354 262.011 200.991 267.535C197.994 270.692 195.47 274.006 193.577 277.637Z" fill="#03F2EB"/>
<path d="M220.865 260.59C221.022 266.746 226.385 271.639 232.537 271.165C237.9 270.85 242.001 266.746 242.474 261.537L242.632 264.536C242.789 270.218 238.373 275.111 232.695 275.427C226.543 275.9 221.338 271.165 221.18 265.01L220.865 260.59Z" fill="#00C5D0"/>
<path d="M239.635 228.865C236.638 232.179 235.849 236.441 238.688 239.124C241.528 241.65 246.259 241.018 249.256 237.704C252.253 234.389 252.411 229.654 249.572 226.971C246.89 224.445 242.632 225.55 239.635 228.865Z" fill="#FFBDA6"/>
<path d="M217.237 251.278C217.395 251.278 217.395 251.278 217.237 251.278C217.552 251.436 217.71 251.436 218.026 251.593C218.183 251.593 218.341 251.751 218.499 251.909C219.761 252.698 220.707 254.277 220.707 255.855V259.17V261.537C221.023 267.693 226.228 272.27 232.221 271.955C237.9 271.481 242.316 266.746 242.158 261.064L242.474 239.914C243.578 237.388 244.367 234.705 244.682 231.864C246.259 218.921 238.531 207.241 227.49 205.978C216.448 204.716 208.562 214.186 206.985 227.286C205.88 237.704 209.666 247.648 217.237 251.278Z" fill="#FFBDA6"/>
<path d="M243.42 232.495C243.736 231.864 244.525 231.39 245.786 230.759C246.575 230.443 247.048 230.285 247.364 230.128C247.679 230.128 247.995 230.128 248.152 230.443C248.468 231.232 247.521 231.864 246.575 232.337C246.102 232.495 245.629 232.811 245.313 232.969C245.629 233.284 246.102 233.442 246.417 233.758C247.048 234.231 247.364 234.705 247.521 235.021C247.679 235.336 247.679 235.652 247.521 235.81C247.364 235.968 247.206 236.125 247.048 236.125C246.891 236.125 246.891 236.125 246.733 236.125C246.417 235.968 245.944 235.81 245.313 235.178C244.367 234.389 243.736 233.6 243.578 232.969C243.42 232.811 243.42 232.653 243.42 232.495Z" fill="#FC9F86"/>
<path d="M218.656 251.909C219.918 252.698 220.865 254.277 220.865 255.855V258.381C224.019 258.381 229.224 256.013 231.748 252.698C229.855 253.014 227.016 253.803 223.704 253.33C221.338 253.014 219.918 252.541 218.656 251.909Z" fill="#FC9F86"/>
<path d="M227.805 236.599C227.805 236.599 226.385 244.491 219.918 244.649C213.451 244.806 213.609 237.546 213.609 237.546L227.805 236.599Z" fill="white"/>
<path d="M206.984 217.658C209.508 218.763 212.347 218.29 214.871 217.658C217.395 217.027 219.761 216.08 222.127 215.133C224.493 214.186 226.701 213.397 229.067 212.608C231.117 211.976 233.168 211.503 235.376 211.503C237.426 211.661 239.477 212.45 240.739 214.186C240.266 223.025 243.736 220.815 242.316 230.601C245.155 228.391 247.206 224.761 248.468 221.447C249.887 217.501 250.518 213.397 250.36 209.135C250.203 205.663 249.256 201.875 246.575 199.507C244.84 197.771 241.37 196.192 239.004 197.929C237.9 193.983 233.168 191.299 230.329 190.195C224.808 188.301 218.656 187.827 213.294 190.037C209.824 191.457 206.827 193.667 204.461 196.35C201.779 199.349 199.256 203.137 199.256 207.399C199.256 210.398 200.833 213.081 203.199 214.975C204.303 216.396 205.565 217.027 206.984 217.658Z" fill="#F2307F"/>
<path d="M206.511 217.816C209.035 218.921 212.821 218.29 216.291 217.185C212.663 216.869 208.877 214.344 206.669 211.503C204.145 208.03 203.988 203.927 205.565 199.981C206.984 196.666 209.35 193.509 211.874 190.984C208.877 192.247 206.511 194.298 204.303 196.666C201.622 199.665 199.098 203.453 199.098 207.557C199.098 210.556 200.517 213.397 202.726 215.291C203.83 216.396 205.249 217.185 206.511 217.816Z" fill="#F55E9B"/>
<path d="M224.177 201.085C229.855 202.348 234.745 201.717 235.218 199.665C235.691 197.455 231.59 194.772 225.912 193.351C220.234 192.089 215.344 192.72 214.871 194.772C214.398 196.982 218.656 199.823 224.177 201.085Z" fill="#F55E9B"/>
<path d="M241.527 204.558C243.105 205.347 244.84 205.189 245.313 204.084C245.786 203.137 244.84 201.559 243.263 200.77C241.685 199.981 239.95 200.138 239.477 201.243C239.004 202.348 239.95 203.769 241.527 204.558Z" fill="#F55E9B"/>
<path d="M243.893 241.965C245.155 242.597 246.575 242.123 247.048 240.861C247.679 239.598 247.206 238.177 245.944 237.704C244.682 237.072 243.262 237.546 242.789 238.809C242.158 239.914 242.631 241.334 243.893 241.965Z" fill="#F8EB55"/>
<defs>
<linearGradient id="paint0_linear_110_355" x1="94.983" y1="391.013" x2="307.452" y2="391.013" gradientUnits="userSpaceOnUse">
<stop stop-color="#3BA3FF"/>
<stop offset="0.9981" stop-color="#13FFFF"/>
</linearGradient>
<linearGradient id="paint1_linear_110_355" x1="94.9905" y1="391.882" x2="307.451" y2="391.882" gradientUnits="userSpaceOnUse">
<stop stop-color="#3BA3FF"/>
<stop offset="0.9981" stop-color="#13FFFF"/>
</linearGradient>
<linearGradient id="paint2_linear_110_355" x1="94.9402" y1="387.217" x2="307.453" y2="387.217" gradientUnits="userSpaceOnUse">
<stop stop-color="#3BA3FF"/>
<stop offset="0.9981" stop-color="#13FFFF"/>
</linearGradient>
<linearGradient id="paint3_linear_110_355" x1="94.972" y1="389.945" x2="307.452" y2="389.945" gradientUnits="userSpaceOnUse">
<stop stop-color="#3BA3FF"/>
<stop offset="0.9981" stop-color="#13FFFF"/>
</linearGradient>
<linearGradient id="paint4_linear_110_355" x1="94.9576" y1="392.544" x2="307.453" y2="392.544" gradientUnits="userSpaceOnUse">
<stop stop-color="#3BA3FF"/>
<stop offset="0.9981" stop-color="#13FFFF"/>
</linearGradient>
<linearGradient id="paint5_linear_110_355" x1="94.9499" y1="388.683" x2="307.453" y2="388.683" gradientUnits="userSpaceOnUse">
<stop stop-color="#3BA3FF"/>
<stop offset="0.9981" stop-color="#13FFFF"/>
</linearGradient>
<linearGradient id="paint6_linear_110_355" x1="94.9756" y1="371.954" x2="307.452" y2="371.954" gradientUnits="userSpaceOnUse">
<stop stop-color="#3BA3FF"/>
<stop offset="0.9981" stop-color="#13FFFF"/>
</linearGradient>
<linearGradient id="paint7_linear_110_355" x1="393.142" y1="324.202" x2="212.714" y2="324.202" gradientUnits="userSpaceOnUse">
<stop stop-color="#00E5E5"/>
<stop offset="1" stop-color="#0BFF96"/>
</linearGradient>
<linearGradient id="paint8_linear_110_355" x1="185.763" y1="197.045" x2="0.775908" y2="197.045" gradientUnits="userSpaceOnUse">
<stop stop-color="#00E5E5"/>
<stop offset="1" stop-color="#0BFF96"/>
</linearGradient>
</defs>
</svg>
