<svg width="327" height="486" viewBox="0 0 327 486" fill="none" xmlns="http://www.w3.org/2000/svg">
<path d="M104.25 220.539C88.1086 257.449 91.5207 282.668 84.6965 304.21C74.5914 336.128 45.8511 331.925 45.8511 331.925C45.8511 331.925 50.0506 303.947 51.2317 267.037C51.6254 252.851 60.2869 240.11 73.2791 234.331L104.25 220.539Z" fill="#FC9F86"/>
<path d="M71.9667 267.694C81.5468 245.233 81.4156 218.306 99.2635 182.053C100.707 179.032 102.413 175.879 104.25 172.596L93.3579 176.274L66.5861 185.205C64.4863 185.862 62.5178 186.782 60.5493 187.701V284.77C64.7488 280.698 68.6858 275.181 71.9667 267.694Z" fill="#FC9F86"/>
<path d="M60.5492 187.833V284.901C44.2762 300.663 23.6724 295.541 23.6724 295.541C23.6724 295.541 24.1973 292.52 25.1159 287.528C26.822 278.596 29.5779 263.622 32.0714 249.962C34.4336 236.695 36.6646 224.742 37.1895 220.802C39.0268 206.484 47.9507 194.269 60.5492 187.833Z" fill="#FFBDA6"/>
<path d="M84.434 125.047C97.8199 119.267 111.993 112.7 126.167 105.212C127.873 104.293 129.579 103.374 131.285 102.454C125.642 98.9076 120.13 95.2298 114.88 91.6833C104.775 84.853 95.4577 78.1541 87.1899 71.8492C86.0088 70.9298 84.8277 70.0103 83.5153 69.0909C77.2161 64.3622 67.7672 56.6125 60.5493 50.5703V103.768C65.1425 108.234 70.2607 112.437 75.6413 117.165C78.3972 119.661 81.4156 122.288 84.434 125.047Z" fill="#FC9F86"/>
<path d="M50.1819 41.9011C50.1819 41.9011 28.7907 66.0698 52.2816 94.9671C54.7751 98.1195 57.6623 101.009 60.5494 103.899V50.5703C54.6439 45.579 50.1819 41.9011 50.1819 41.9011Z" fill="#FFBDA6"/>
<path d="M59.8932 137.394C45.0637 143.042 14.2236 153.024 14.2236 153.024C14.2236 153.024 23.2788 183.892 60.1557 179.426C60.2869 179.426 60.4182 179.426 60.4182 179.426V137.131C60.2869 137.262 60.1557 137.262 59.8932 137.394Z" fill="#FFBDA6"/>
<path d="M108.712 153.55C100.445 142.91 92.1768 134.635 84.434 127.542C84.3027 127.673 84.0403 127.673 83.909 127.805C75.6413 131.351 67.8984 134.504 60.5493 137.262V179.557C76.2974 177.587 91.7831 170.757 112.256 165.765C113.699 165.371 115.274 165.109 116.718 164.715C114.093 160.643 111.468 156.965 108.712 153.55Z" fill="#FC9F86"/>
<path d="M316.325 418.748C334.567 470.238 215.406 512.008 189.553 466.56C176.298 443.311 175.248 411.13 147.689 397.863C120.261 384.728 105.038 361.085 98.2134 347.556C95.0638 341.382 93.7515 337.31 93.7515 337.31C93.7515 337.31 95.9824 337.048 100.051 336.654C123.935 334.289 210.025 326.671 258.844 333.37C263.175 333.895 267.243 334.683 270.918 335.471C284.829 338.624 294.015 343.615 293.097 351.102C290.734 372.381 304.645 385.648 316.325 418.748Z" fill="#FFBDA6"/>
<path d="M237.585 10.5081H96.7701C86.7963 10.5081 78.791 18.5205 78.791 28.5032V57.0064V161.168V309.07C78.791 319.052 86.7963 327.065 96.7701 327.065H141.915H237.585C243.097 327.065 248.083 324.569 251.364 320.629C253.989 317.476 255.564 313.536 255.564 309.07V170.1V61.341V28.5032C255.564 18.6518 247.559 10.5081 237.585 10.5081Z" fill="#340072"/>
<path d="M255.564 28.5032C255.564 18.5205 247.559 10.5081 237.585 10.5081H96.7701C86.7963 10.5081 78.791 18.5205 78.791 28.5032V291.863H255.564V28.5032Z" fill="#F6FDFF"/>
<path d="M258.713 333.37C255.563 336.128 251.495 337.704 247.033 337.704H106.087C103.856 337.704 101.757 337.31 99.788 336.522C95.7198 336.916 93.4888 337.179 93.4888 337.179C93.4888 337.179 94.9323 341.251 97.9507 347.424C100.05 347.95 102.15 348.212 104.381 348.212H248.608C258.057 348.212 266.324 343.09 270.786 335.471C267.112 334.683 263.044 333.895 258.713 333.37Z" fill="#FC9F86"/>
<path d="M239.29 0H95.0637C80.8904 0 69.3418 11.5589 69.3418 25.7449V312.091C69.3418 326.277 80.8904 337.836 95.0637 337.836H239.29C253.464 337.836 265.012 326.277 265.012 312.091V25.7449C264.881 11.5589 253.464 0 239.29 0ZM255.563 61.3411V170.1V309.201C255.563 313.536 253.989 317.608 251.364 320.76C248.083 324.701 243.096 327.196 237.584 327.196H141.914H96.7698C86.796 327.196 78.7907 319.184 78.7907 309.201V161.299V57.0065V28.5032C78.7907 18.6519 86.796 10.5081 96.7698 10.5081H128.266C131.153 10.5081 133.515 12.8724 133.515 15.7622V20.4908C133.515 24.1687 136.403 27.0584 140.077 27.0584H194.277C197.952 27.0584 200.839 24.1687 200.839 20.4908V15.7622C200.839 12.8724 203.201 10.5081 206.088 10.5081H237.584C247.558 10.5081 255.563 18.5205 255.563 28.5032V61.3411Z" fill="#44006F"/>
<path d="M122.885 24.0373H105.825C104.513 24.0373 103.332 22.9865 103.332 21.5416V19.7027C103.332 18.3892 104.381 17.207 105.825 17.207H122.885C124.198 17.207 125.379 18.2578 125.379 19.7027V21.5416C125.379 22.9865 124.198 24.0373 122.885 24.0373Z" fill="#BDD8FF"/>
<path d="M96.9009 24.0373H92.0452C90.7329 24.0373 89.5518 22.9865 89.5518 21.5416V19.7027C89.5518 18.3892 90.6016 17.207 92.0452 17.207H96.9009C98.2132 17.207 99.3943 18.2578 99.3943 19.7027V21.5416C99.3943 22.9865 98.3445 24.0373 96.9009 24.0373Z" fill="#BDD8FF"/>
<path d="M241.915 20.4908C241.915 22.4611 240.34 24.0373 238.372 24.0373C236.403 24.0373 234.829 22.4611 234.829 20.4908C234.829 18.5206 236.403 16.9443 238.372 16.9443C240.209 16.9443 241.915 18.5206 241.915 20.4908Z" fill="#BDD8FF"/>
<path d="M213.175 24.0373C215.132 24.0373 216.718 22.4495 216.718 20.4908C216.718 18.5322 215.132 16.9443 213.175 16.9443C211.218 16.9443 209.631 18.5322 209.631 20.4908C209.631 22.4495 211.218 24.0373 213.175 24.0373Z" fill="#BDD8FF"/>
<path d="M225.773 24.0373C227.73 24.0373 229.317 22.4495 229.317 20.4908C229.317 18.5322 227.73 16.9443 225.773 16.9443C223.816 16.9443 222.23 18.5322 222.23 20.4908C222.23 22.4495 223.816 24.0373 225.773 24.0373Z" fill="#BDD8FF"/>
<path d="M245.721 325.226C245.459 325.357 245.196 325.489 245.065 325.62C245.196 325.489 245.459 325.357 245.721 325.226Z" fill="url(#paint0_linear_145_94)"/>
<path d="M244.015 326.014C243.753 326.145 243.49 326.145 243.359 326.277C243.49 326.145 243.753 326.014 244.015 326.014Z" fill="url(#paint1_linear_145_94)"/>
<path d="M250.183 322.073C250.052 322.205 249.921 322.336 249.79 322.468C249.921 322.336 250.052 322.205 250.183 322.073Z" fill="url(#paint2_linear_145_94)"/>
<path d="M247.296 324.307C247.033 324.438 246.902 324.569 246.64 324.701C246.902 324.569 247.165 324.438 247.296 324.307Z" fill="url(#paint3_linear_145_94)"/>
<path d="M242.178 326.54C241.915 326.54 241.784 326.671 241.521 326.671C241.653 326.671 241.915 326.671 242.178 326.54Z" fill="url(#paint4_linear_145_94)"/>
<path d="M248.74 323.256C248.609 323.387 248.346 323.518 248.215 323.65C248.477 323.518 248.609 323.387 248.74 323.256Z" fill="url(#paint5_linear_145_94)"/>
<path d="M194.671 291.863H78.791V309.201C78.791 319.184 86.7963 327.196 96.7701 327.196H177.873C181.285 316.294 186.666 304.735 193.752 293.308C194.015 292.913 194.277 292.388 194.671 291.863Z" fill="url(#paint6_linear_145_94)"/>
<path d="M241.522 326.802C240.997 326.934 240.472 327.065 239.947 327.065C240.472 326.934 240.997 326.934 241.522 326.802Z" fill="#BDD8FF"/>
<path d="M249.658 322.468C249.396 322.73 249.002 322.993 248.74 323.256C249.133 322.993 249.396 322.73 249.658 322.468Z" fill="#BDD8FF"/>
<path d="M248.215 323.65C247.952 323.912 247.558 324.044 247.296 324.307C247.69 324.175 247.952 323.912 248.215 323.65Z" fill="#BDD8FF"/>
<path d="M244.277 129.25C240.34 151.974 250.708 176.142 243.228 211.476C242.178 216.467 240.734 221.327 238.897 226.056C233.779 239.585 226.036 252.063 216.325 262.965C208.451 271.766 201.101 281.617 194.671 291.863H255.564V252.72V103.768C250.446 109.678 246.246 117.822 244.277 129.25Z" fill="#D2E4FF"/>
<path d="M251.364 320.76C250.971 321.285 250.577 321.68 250.183 322.074C250.577 321.548 250.971 321.154 251.364 320.76Z" fill="#BDD8FF"/>
<path d="M245.065 325.62C244.671 325.751 244.409 325.883 244.015 326.014C244.409 325.883 244.671 325.751 245.065 325.62Z" fill="#BDD8FF"/>
<path d="M243.228 326.277C242.834 326.408 242.441 326.54 242.047 326.671C242.572 326.54 242.965 326.408 243.228 326.277Z" fill="#BDD8FF"/>
<path d="M246.64 324.701C246.377 324.832 245.984 325.095 245.721 325.226C245.984 325.095 246.377 324.832 246.64 324.701Z" fill="#BDD8FF"/>
<path d="M177.873 327.196H237.585C238.241 327.196 239.028 327.196 239.684 327.065C239.028 327.196 238.372 327.196 237.716 327.196H177.873Z" fill="#BDD8FF"/>
<path d="M193.752 293.308C186.797 304.735 181.416 316.163 177.873 327.196H237.585C238.241 327.196 238.897 327.196 239.553 327.065C239.684 327.065 239.685 327.065 239.816 327.065C240.341 326.933 240.866 326.933 241.391 326.802C241.653 326.802 241.784 326.671 242.047 326.671C242.44 326.539 242.834 326.408 243.228 326.277C243.49 326.145 243.753 326.145 243.884 326.014C244.278 325.883 244.54 325.751 244.934 325.62C245.196 325.489 245.459 325.357 245.59 325.226C245.853 325.095 246.246 324.832 246.509 324.701C246.771 324.569 246.902 324.438 247.165 324.306C247.427 324.044 247.821 323.912 248.083 323.65C248.215 323.518 248.477 323.387 248.608 323.256C248.871 322.993 249.265 322.73 249.527 322.468C249.658 322.336 249.79 322.205 249.921 322.073C250.314 321.679 250.708 321.154 251.102 320.76C253.727 317.608 255.301 313.667 255.301 309.201V291.863H194.409C194.277 292.388 194.015 292.913 193.752 293.308Z" fill="#3BA3FF"/>
<path d="M293.096 351.102L282.335 344.666C260.944 377.11 229.71 393.923 210.025 382.495C189.028 370.411 191.39 331.662 210.681 293.439C216.324 282.143 223.149 271.241 230.629 261.389C242.44 245.758 250.445 227.369 252.939 207.929C257.401 172.202 244.933 149.084 247.033 126.097C250.577 85.5097 285.616 82.8827 285.616 82.8827C285.616 82.8827 285.879 85.9038 286.272 91.1578C286.404 92.2086 286.535 93.2595 286.666 94.4416C286.666 94.573 286.666 94.8357 286.666 94.967C287.585 104.162 289.159 117.822 291.784 134.241C291.915 135.029 292.047 135.686 292.178 136.474C292.44 137.919 292.572 139.232 292.834 140.677C297.165 166.948 303.858 199.129 313.963 229.996C321.443 253.377 298.74 316.82 293.096 351.102Z" fill="#FFBDA6"/>
<path d="M291.784 134.372C283.91 132.008 277.611 125.572 276.036 116.903L273.28 102.717C272.755 100.352 274.33 97.9881 276.692 97.3314L286.666 94.573C286.666 94.7043 286.666 94.9671 286.666 95.0984C287.585 104.293 289.16 117.954 291.784 134.372Z" fill="#FFDED2"/>
<path d="M39.6829 270.584L37.9768 283.85C37.7144 286.215 35.4834 288.054 33.1211 287.922L25.2471 287.528C26.9531 278.596 29.709 263.622 32.2025 249.962C37.7143 255.084 40.7327 262.571 39.6829 270.584Z" fill="#FFDED2"/>
<path d="M176.691 275.838L187.321 265.198V256.135C187.321 251.538 191.127 247.729 195.72 247.729H318.293C322.887 247.729 326.692 251.538 326.692 256.135V283.456C326.692 288.054 322.887 291.863 318.293 291.863H195.72C191.127 291.863 187.321 288.054 187.321 283.456V275.838H176.691Z" fill="url(#paint7_linear_145_94)"/>
<path d="M214.224 265.724H301.495C303.201 265.724 304.645 264.279 304.645 262.571C304.645 260.864 303.201 259.419 301.495 259.419H214.224C212.518 259.419 211.075 260.864 211.075 262.571C210.943 264.279 212.387 265.724 214.224 265.724Z" fill="white"/>
<path d="M292.309 280.173H301.364C303.07 280.173 304.514 278.728 304.514 277.02C304.514 275.313 303.07 273.868 301.364 273.868H292.309C290.603 273.868 289.159 275.313 289.159 277.02C289.159 278.728 290.603 280.173 292.309 280.173Z" fill="white"/>
<path d="M214.224 280.173H279.185C280.891 280.173 282.335 278.728 282.335 277.02C282.335 275.313 280.891 273.868 279.185 273.868H214.224C212.518 273.868 211.075 275.313 211.075 277.02C210.943 278.728 212.387 280.173 214.224 280.173Z" fill="white"/>
<path d="M8.84285 133.19H132.859C137.453 133.19 141.258 137 141.258 141.597V157.49H154.251L141.258 170.494V186.125C141.258 190.722 137.453 194.531 132.859 194.531H8.84285C4.24964 194.531 0.443848 190.722 0.443848 186.125V141.597C0.443848 137 4.24964 133.19 8.84285 133.19Z" fill="url(#paint8_linear_145_94)"/>
<path d="M50.1818 152.762H114.487C116.193 152.762 117.636 151.317 117.636 149.609C117.636 147.902 116.193 146.457 114.487 146.457H50.1818C48.4758 146.457 47.0322 147.902 47.0322 149.609C46.901 151.317 48.3446 152.762 50.1818 152.762Z" fill="white"/>
<path d="M27.216 152.762H36.2712C37.9773 152.762 39.4208 151.317 39.4208 149.609C39.4208 147.902 37.9773 146.457 36.2712 146.457H27.216C25.51 146.457 24.0664 147.902 24.0664 149.609C24.0664 151.317 25.51 152.762 27.216 152.762Z" fill="white"/>
<path d="M91.7826 175.223H27.4777C25.7717 175.223 24.3281 176.668 24.3281 178.375C24.3281 180.083 25.7717 181.528 27.4777 181.528H91.7826C93.4887 181.528 94.9322 180.083 94.9322 178.375C94.9322 176.668 93.4887 175.223 91.7826 175.223Z" fill="white"/>
<path d="M114.617 175.223H105.562C103.856 175.223 102.413 176.668 102.413 178.375C102.413 180.083 103.856 181.528 105.562 181.528H114.617C116.323 181.528 117.767 180.083 117.767 178.375C117.767 176.668 116.323 175.223 114.617 175.223Z" fill="white"/>
<path d="M105.3 167.21H114.355C116.061 167.21 117.505 165.765 117.505 164.058C117.505 162.35 116.061 160.905 114.355 160.905H105.3C103.594 160.905 102.15 162.35 102.15 164.058C102.019 165.765 103.463 167.21 105.3 167.21Z" fill="white"/>
<path d="M64.2234 167.21H92.045C93.7511 167.21 95.1947 165.765 95.1947 164.058C95.1947 162.35 93.7511 160.905 92.045 160.905H64.2234C62.5173 160.905 61.0737 162.35 61.0737 164.058C61.0737 165.765 62.5173 167.21 64.2234 167.21Z" fill="white"/>
<path d="M27.0842 167.21H51.2313C52.9374 167.21 54.381 165.765 54.381 164.058C54.381 162.35 52.9374 160.905 51.2313 160.905H27.0842C25.3782 160.905 23.9346 162.35 23.9346 164.058C23.9346 165.765 25.2469 167.21 27.0842 167.21Z" fill="white"/>
<path d="M184.041 81.9632C184.041 95.6238 178.266 107.971 168.949 116.64C160.55 124.521 149.263 129.25 136.796 129.25C124.591 129.25 113.436 124.521 105.037 116.903C95.5885 108.234 89.5518 95.7551 89.5518 81.9632C89.5518 55.8243 110.681 34.6768 136.796 34.6768C162.912 34.6768 184.041 55.8243 184.041 81.9632Z" fill="#D5F4FF"/>
<path d="M162.256 67.1205C160.025 76.9719 153.594 79.8616 153.594 79.8616C153.594 79.8616 156.088 71.7178 153.857 67.6459L153.725 67.5146L159.106 57.4005C160.812 58.1886 163.699 61.341 162.256 67.1205Z" fill="#340072"/>
<path d="M118.817 64.4934C119.342 74.6075 125.248 78.548 125.248 78.548C125.248 78.548 124.198 70.0102 127.085 66.4637L127.216 66.3323L123.673 55.4302C121.967 55.9556 118.555 58.5826 118.817 64.4934Z" fill="#340072"/>
<path d="M168.949 116.509C160.55 124.39 149.264 129.118 136.796 129.118C124.592 129.118 113.437 124.39 105.038 116.771C109.893 107.971 118.292 101.403 128.266 98.7761C131.153 97.988 134.303 97.594 137.453 97.594C138.109 97.594 138.765 97.594 139.421 97.594C141.783 97.7253 144.014 98.1194 146.245 98.6448C152.544 100.221 158.319 103.505 162.781 108.102C165.274 110.729 167.374 113.488 168.949 116.509Z" fill="#3BA3FF"/>
<path d="M146.245 102.454C146.114 107.577 141.652 111.649 136.534 111.255C132.072 110.992 128.66 107.577 128.266 103.242L128.135 105.738C128.004 110.466 131.678 114.538 136.403 114.801C141.521 115.195 145.851 111.255 145.983 106.132L146.245 102.454Z" fill="#138EEA"/>
<path d="M130.628 75.921C133.122 78.6794 133.778 82.2259 131.416 84.4588C129.054 86.5604 125.117 86.035 122.623 83.2767C120.13 80.5183 119.998 76.5777 122.361 74.3448C124.592 72.2432 128.004 73.1626 130.628 75.921Z" fill="#FFBDA6"/>
<path d="M149.132 94.5729C149.132 94.7043 149.132 94.7043 149.132 94.5729C148.87 94.7043 148.739 94.7043 148.476 94.8356C148.345 94.8356 148.214 94.967 148.082 95.0983C147.032 95.7551 146.245 97.0686 146.245 98.3821V101.141V103.111C145.983 108.233 141.652 112.043 136.665 111.78C131.941 111.386 128.266 107.445 128.397 102.717L128.135 85.1156C127.216 83.014 126.56 80.781 126.297 78.4167C124.985 67.6459 131.416 57.9259 140.602 56.8751C149.788 55.8243 156.35 63.7054 157.662 74.6075C158.712 83.4081 155.563 91.5519 149.132 94.5729Z" fill="#FFBDA6"/>
<path d="M127.479 79.0735C127.216 78.5481 126.56 78.1541 125.51 77.6287C124.854 77.366 124.46 77.2346 124.198 77.1033C123.935 77.1033 123.673 77.1033 123.542 77.366C123.279 78.0227 124.067 78.5481 124.854 78.9422C125.248 79.0735 125.641 79.3362 125.904 79.4676C125.641 79.5989 125.248 79.8616 124.985 80.1244C124.46 80.5184 124.198 80.9125 124.067 81.1752C123.935 81.4379 123.935 81.7006 124.067 81.8319C124.198 81.9633 124.329 82.0946 124.46 82.0946C124.592 82.0946 124.592 82.0946 124.723 82.0946C124.985 81.9633 125.379 81.8319 125.904 81.3065C126.691 80.6498 127.216 79.993 127.348 79.4676C127.479 79.2049 127.479 79.0735 127.479 79.0735Z" fill="#FC9F86"/>
<path d="M148.082 95.0984C147.033 95.7551 146.245 97.0687 146.245 98.3822V100.484C143.62 100.484 139.29 98.5135 137.19 95.7551C138.765 96.0178 141.127 96.6746 143.883 96.2806C145.851 96.0178 147.033 95.6238 148.082 95.0984Z" fill="#FC9F86"/>
<path d="M140.471 82.3573C140.471 82.3573 141.652 88.9249 147.032 89.0562C152.413 89.1876 152.282 83.1454 152.282 83.1454L140.471 82.3573Z" fill="white"/>
<path d="M157.794 66.5951C155.694 67.5146 153.332 67.1205 151.232 66.5951C149.132 66.0697 147.164 65.2816 145.195 64.4935C143.227 63.7054 141.389 63.0486 139.421 62.3919C137.715 61.8665 136.009 61.4724 134.172 61.4724C132.465 61.6038 130.759 62.2605 129.71 63.7054C130.103 69.7475 128.135 69.6162 128.135 73.8194C128.135 75.1329 126.56 75.527 125.773 74.6075C124.723 73.1627 123.935 71.4551 123.279 69.7475C122.098 66.4638 121.573 63.0486 121.704 59.5021C121.835 56.6124 122.623 53.46 124.854 51.4897C126.297 50.0448 129.185 48.7313 131.153 50.1762C132.072 46.8924 136.009 44.6594 138.371 43.74C142.964 42.1638 148.082 41.7697 152.544 43.6086C155.431 44.7908 157.925 46.6297 159.893 48.8627C162.124 51.3584 164.224 54.5108 164.224 58.0573C164.224 60.553 162.912 62.7859 160.943 64.3621C160.025 65.5443 158.975 66.2011 157.794 66.5951Z" fill="#340072"/>
<path d="M140.865 50.9643C137.321 51.8837 134.04 51.3583 133.778 50.0448C133.515 48.7313 136.14 46.8924 139.683 45.9729C143.227 45.0535 146.508 45.5789 146.77 46.8924C147.033 48.3373 144.408 50.1762 140.865 50.9643Z" fill="#491890"/>
<path d="M128.66 54.6421C127.61 55.1675 126.56 55.0362 126.166 54.3794C125.904 53.7227 126.429 52.8032 127.479 52.2778C128.529 51.7524 129.579 51.8838 129.972 52.5405C130.235 53.1973 129.71 54.1167 128.66 54.6421Z" fill="#491890"/>
<path d="M158.188 66.7265C156.088 67.6459 152.938 67.1205 150.051 66.2011C153.07 65.9384 156.219 63.8367 158.057 61.4724C160.156 58.5827 160.288 55.1675 158.975 51.8838C157.794 49.1254 155.826 46.4984 153.726 44.3967C156.219 45.4475 158.188 47.1551 160.025 49.1254C162.256 51.6211 164.356 54.7735 164.356 58.1886C164.356 60.6843 163.175 63.0486 161.337 64.6248C160.288 65.6757 159.238 66.3324 158.188 66.7265Z" fill="#491890"/>
<path d="M240.209 196.502C240.209 206.353 237.191 215.548 231.942 223.166C229.842 226.187 227.48 228.945 224.724 231.441C220.918 234.988 216.456 237.877 211.6 239.848C205.957 242.343 199.527 243.657 192.965 243.657C187.716 243.657 182.597 242.869 177.873 241.161C171.443 239.059 165.668 235.513 160.681 230.916C159.763 229.996 158.844 229.077 157.925 228.157C150.314 219.751 145.589 208.586 145.589 196.37C145.589 170.231 166.718 149.084 192.834 149.084C219.081 149.215 240.209 170.363 240.209 196.502Z" fill="#D5F4FF"/>
<path d="M215.406 181.002C218.687 192.167 216.062 202.806 209.5 204.645C203.07 206.484 195.196 198.997 191.915 187.832C188.634 176.667 191.259 166.028 197.82 164.189C204.251 162.219 212.125 169.837 215.406 181.002Z" fill="#F2307F"/>
<path d="M182.335 220.014C182.991 222.115 183.385 224.48 183.385 226.975C183.385 232.886 182.335 234.068 178.923 237.221C172.492 235.119 160.681 231.047 160.681 231.047C159.763 230.128 158.844 229.208 157.925 228.289C157.925 227.895 157.925 227.501 157.925 226.975C157.925 221.064 160.025 215.942 163.437 212.789C162.781 210.688 162.387 208.323 162.387 205.828C162.387 196.239 168.03 188.489 175.117 188.489C182.204 188.489 187.847 196.239 187.847 205.828C187.847 211.607 185.616 216.861 182.335 220.014Z" fill="#F2307F"/>
<path d="M172.23 201.362C173.28 201.887 174.461 201.493 174.854 200.442C175.379 199.391 174.986 198.209 173.936 197.815C172.886 197.29 171.705 197.684 171.311 198.735C170.786 199.654 171.18 200.836 172.23 201.362Z" fill="#F8EB55"/>
<path d="M231.942 223.166C229.842 226.187 227.48 228.945 224.724 231.441C224.724 231.441 215.8 233.411 210.944 235.513C207.926 232.36 206.745 231.835 206.745 226.187C206.745 224.611 206.876 223.166 207.138 221.721C202.545 219.094 199.264 212.92 199.264 205.696C199.264 196.108 204.907 188.358 211.994 188.358C219.081 188.358 224.724 196.108 224.724 205.696C224.724 207.272 224.592 208.717 224.33 210.162C228.267 212.395 231.154 217.255 231.942 223.166Z" fill="#F2307F"/>
<path d="M167.374 181.659C169.605 191.51 176.036 194.4 176.036 194.4C176.036 194.4 173.542 186.256 175.773 182.184L175.904 182.053L170.524 171.939C168.949 172.596 166.062 175.748 167.374 181.659Z" fill="#F2307F"/>
<path d="M210.944 179.032C210.419 189.146 204.513 193.086 204.513 193.086C204.513 193.086 205.563 184.549 202.676 181.002L202.545 180.871L206.088 169.969C207.794 170.494 211.206 173.121 210.944 179.032Z" fill="#F2307F"/>
<path d="M160.812 231.047C169.211 238.928 180.498 243.657 192.965 243.657C205.17 243.657 216.325 238.928 224.724 231.31C219.868 222.509 211.469 215.942 201.495 213.315C198.608 212.526 195.458 212.132 192.309 212.132C191.653 212.132 190.996 212.132 190.34 212.132C187.978 212.264 185.747 212.658 183.516 213.183C177.217 214.759 171.442 218.043 166.981 222.641C164.487 225.268 162.387 228.026 160.812 231.047Z" fill="#03F2EB"/>
<path d="M183.516 216.861C183.647 221.984 188.109 226.056 193.227 225.662C197.689 225.399 201.102 221.984 201.495 217.649L201.626 220.145C201.758 224.874 198.083 228.945 193.359 229.208C188.241 229.602 183.91 225.662 183.779 220.539L183.516 216.861Z" fill="#00C5D0"/>
<path d="M199.133 190.459C196.64 193.218 195.984 196.764 198.346 198.997C200.708 201.099 204.645 200.574 207.139 197.815C209.632 195.057 209.763 191.116 207.401 188.883C205.17 186.782 201.627 187.701 199.133 190.459Z" fill="#FFBDA6"/>
<path d="M180.498 209.111C180.629 209.111 180.629 209.111 180.498 209.111C180.76 209.243 180.891 209.243 181.154 209.374C181.285 209.374 181.416 209.505 181.548 209.637C182.597 210.294 183.385 211.607 183.385 212.921V215.679V217.649C183.647 222.772 187.978 226.581 192.965 226.318C197.689 225.924 201.364 221.984 201.233 217.255L201.495 199.654C202.414 197.552 203.07 195.319 203.332 192.955C204.645 182.184 198.214 172.464 189.028 171.414C179.842 170.363 173.28 178.244 171.967 189.146C171.049 197.815 174.198 206.09 180.498 209.111Z" fill="#FFBDA6"/>
<path d="M202.283 193.481C202.545 192.955 203.201 192.561 204.251 192.036C204.907 191.773 205.301 191.642 205.564 191.51C205.826 191.51 206.089 191.51 206.22 191.773C206.482 192.43 205.695 192.955 204.907 193.349C204.514 193.481 204.12 193.743 203.858 193.875C204.12 194.137 204.514 194.269 204.776 194.531C205.301 194.925 205.564 195.319 205.695 195.582C205.826 195.845 205.826 196.108 205.695 196.239C205.564 196.37 205.432 196.502 205.301 196.502C205.17 196.502 205.17 196.502 205.039 196.502C204.776 196.37 204.382 196.239 203.858 195.714C203.07 195.057 202.545 194.4 202.414 193.875C202.283 193.743 202.283 193.612 202.283 193.481Z" fill="#FC9F86"/>
<path d="M181.679 209.637C182.729 210.293 183.516 211.607 183.516 212.921V215.022C186.141 215.022 190.471 213.052 192.571 210.293C190.996 210.556 188.634 211.213 185.878 210.819C183.91 210.556 182.729 210.162 181.679 209.637Z" fill="#FC9F86"/>
<path d="M189.29 196.896C189.29 196.896 188.109 203.463 182.729 203.595C177.348 203.726 177.479 197.684 177.479 197.684L189.29 196.896Z" fill="white"/>
<path d="M171.968 181.133C174.067 182.053 176.43 181.659 178.529 181.133C180.629 180.608 182.598 179.82 184.566 179.032C186.535 178.244 188.372 177.587 190.34 176.93C192.046 176.405 193.753 176.011 195.59 176.011C197.296 176.142 199.002 176.799 200.052 178.244C199.658 185.599 202.545 183.76 201.364 191.904C203.726 190.065 205.432 187.044 206.482 184.286C207.663 181.002 208.188 177.587 208.057 174.04C207.926 171.151 207.138 167.998 204.907 166.028C203.464 164.583 200.577 163.27 198.608 164.715C197.69 161.431 193.753 159.198 191.39 158.278C186.797 156.702 181.679 156.308 177.217 158.147C174.33 159.329 171.836 161.168 169.868 163.401C167.637 165.897 165.537 169.049 165.537 172.596C165.537 175.091 166.849 177.324 168.818 178.9C169.737 180.083 170.786 180.608 171.968 181.133Z" fill="#F2307F"/>
<path d="M171.574 181.265C173.674 182.184 176.823 181.659 179.71 180.739C176.692 180.477 173.542 178.375 171.705 176.011C169.605 173.121 169.474 169.706 170.786 166.422C171.967 163.664 173.936 161.037 176.036 158.935C173.542 159.986 171.574 161.693 169.737 163.664C167.506 166.159 165.406 169.312 165.406 172.727C165.406 175.223 166.587 177.587 168.424 179.163C169.343 180.083 170.524 180.739 171.574 181.265Z" fill="#F55E9B"/>
<path d="M186.272 167.342C190.997 168.392 195.065 167.867 195.459 166.159C195.852 164.321 192.44 162.088 187.716 160.905C182.991 159.855 178.923 160.38 178.529 162.088C178.136 163.926 181.679 166.291 186.272 167.342Z" fill="#F55E9B"/>
<path d="M200.708 170.231C202.02 170.888 203.464 170.757 203.857 169.837C204.251 169.049 203.464 167.736 202.151 167.079C200.839 166.422 199.395 166.553 199.002 167.473C198.608 168.392 199.395 169.574 200.708 170.231Z" fill="#F55E9B"/>
<path d="M202.677 201.362C203.726 201.887 204.907 201.493 205.301 200.442C205.826 199.391 205.432 198.209 204.383 197.815C203.333 197.29 202.152 197.684 201.758 198.735C201.233 199.654 201.627 200.836 202.677 201.362Z" fill="#F8EB55"/>
<defs>
<linearGradient id="paint0_linear_145_94" x1="78.7943" y1="325.398" x2="255.557" y2="325.398" gradientUnits="userSpaceOnUse">
<stop stop-color="#3BA3FF"/>
<stop offset="0.9981" stop-color="#13FFFF"/>
</linearGradient>
<linearGradient id="paint1_linear_145_94" x1="78.7863" y1="326.121" x2="255.557" y2="326.121" gradientUnits="userSpaceOnUse">
<stop stop-color="#3BA3FF"/>
<stop offset="0.9981" stop-color="#13FFFF"/>
</linearGradient>
<linearGradient id="paint2_linear_145_94" x1="78.7348" y1="322.239" x2="255.56" y2="322.239" gradientUnits="userSpaceOnUse">
<stop stop-color="#3BA3FF"/>
<stop offset="0.9981" stop-color="#13FFFF"/>
</linearGradient>
<linearGradient id="paint3_linear_145_94" x1="78.7786" y1="324.509" x2="255.558" y2="324.509" gradientUnits="userSpaceOnUse">
<stop stop-color="#3BA3FF"/>
<stop offset="0.9981" stop-color="#13FFFF"/>
</linearGradient>
<linearGradient id="paint4_linear_145_94" x1="78.7589" y1="326.672" x2="255.559" y2="326.672" gradientUnits="userSpaceOnUse">
<stop stop-color="#3BA3FF"/>
<stop offset="0.9981" stop-color="#13FFFF"/>
</linearGradient>
<linearGradient id="paint5_linear_145_94" x1="78.7639" y1="323.459" x2="255.559" y2="323.459" gradientUnits="userSpaceOnUse">
<stop stop-color="#3BA3FF"/>
<stop offset="0.9981" stop-color="#13FFFF"/>
</linearGradient>
<linearGradient id="paint6_linear_145_94" x1="78.7743" y1="309.537" x2="255.558" y2="309.537" gradientUnits="userSpaceOnUse">
<stop stop-color="#3BA3FF"/>
<stop offset="0.9981" stop-color="#13FFFF"/>
</linearGradient>
<linearGradient id="paint7_linear_145_94" x1="326.853" y1="269.798" x2="176.735" y2="269.798" gradientUnits="userSpaceOnUse">
<stop stop-color="#00E5E5"/>
<stop offset="1" stop-color="#0BFF96"/>
</linearGradient>
<linearGradient id="paint8_linear_145_94" x1="154.311" y1="163.979" x2="0.398574" y2="163.979" gradientUnits="userSpaceOnUse">
<stop stop-color="#00E5E5"/>
<stop offset="1" stop-color="#0BFF96"/>
</linearGradient>
</defs>
</svg>
