<svg width="199" height="330" viewBox="0 0 199 330" fill="none" xmlns="http://www.w3.org/2000/svg">
<path d="M58.1899 167.93C47.7271 191.719 49.9536 208.03 45.5173 221.966C38.9551 242.593 20.4233 239.9 20.4233 239.9C20.4233 239.9 23.1855 221.816 23.8886 198.06C24.1565 188.875 29.7311 180.661 38.118 176.914L58.1899 167.93Z" fill="#FF896F"/>
<path d="M37.3145 198.378C43.5253 183.923 43.4081 166.475 54.9925 143.087C55.9634 141.096 57.0181 139.072 58.1899 136.997L51.1422 139.356L33.8493 145.145C32.4933 145.596 31.2043 146.148 29.9487 146.801V209.452C32.6774 206.776 35.2387 203.196 37.3145 198.378Z" fill="#FF896F"/>
<path d="M29.9319 146.801V209.453C19.4356 219.641 6.12695 216.362 6.12695 216.362C6.12695 216.362 6.49524 214.388 7.0979 211.226C8.18603 205.471 10.0107 195.785 11.6346 186.985C13.2082 178.419 14.5809 170.657 14.899 168.148C16.0708 158.896 21.7961 150.983 29.9319 146.801Z" fill="#FFC6A7"/>
<path d="M45.4003 106.316C54.0384 102.618 74.5288 92.3131 75.6337 91.7108C71.9842 89.4022 34.6195 62.1165 29.9321 58.2352V92.5975C32.9119 95.4749 43.4417 104.526 45.4003 106.316Z" fill="#FF896F"/>
<path d="M23.202 52.6309C23.202 52.6309 9.39107 68.206 24.5747 86.8593C26.2153 88.8668 28.0065 90.7572 29.9317 92.6142V58.2352C26.0981 55.0566 23.202 52.6309 23.202 52.6309Z" fill="#FFC6A7"/>
<path d="M29.5302 112.74C19.9044 116.42 0 122.861 0 122.861C0 122.861 5.85917 142.819 29.7311 139.875C29.7981 139.858 29.865 139.858 29.932 139.841V112.589C29.7981 112.639 29.6641 112.689 29.5302 112.74Z" fill="#FFC6A7"/>
<path d="M61.1029 123.129C55.7627 116.219 50.456 110.899 45.4003 106.316C45.2832 106.366 45.1492 106.433 45.0321 106.483C39.7253 108.758 34.6529 110.782 29.9321 112.589V139.858C40.1438 138.553 50.0877 134.153 63.3964 130.991C64.3506 130.774 65.3215 130.556 66.3092 130.339C64.585 127.746 62.8607 125.354 61.1197 123.129H61.1029Z" fill="#FF896F"/>
<path d="M198.642 316.939C198.391 318.897 197.856 320.787 197.086 322.627C197.086 322.627 191.544 325.785 154.734 328.943C117.924 332.101 108.327 322.627 108.327 322.627C108.143 322.125 107.959 321.623 107.775 321.122V321.105C107.708 320.938 107.658 320.77 107.591 320.62C106.653 318.077 105.766 315.417 104.829 312.774C104.745 312.573 104.678 312.339 104.611 312.138C104.126 310.749 103.657 309.361 103.155 307.972C103.121 307.889 103.088 307.805 103.054 307.721C102.251 305.496 101.414 303.305 100.526 301.18C100.326 300.695 100.125 300.193 99.907 299.708C99.8735 299.641 99.84 299.574 99.8233 299.507C96.425 291.795 92.2901 285.304 86.23 282.393C68.5018 273.911 58.6584 258.637 54.2055 249.888C52.1799 245.889 51.2759 243.263 51.2759 243.263C51.2759 243.263 52.749 243.095 55.3606 242.844C70.812 241.339 126.474 236.42 158.03 240.753C160.859 241.121 163.487 241.59 165.865 242.125C174.837 244.166 180.429 247.378 180.245 252.213C179.96 260.076 182.404 266.935 185.652 273.627C185.652 273.643 185.669 273.66 185.669 273.677C185.886 274.129 186.121 274.597 186.338 275.049C187.192 276.772 188.096 278.478 189 280.201C189.017 280.235 189.033 280.268 189.05 280.285C189.87 281.874 190.724 283.48 191.544 285.12C191.645 285.321 191.745 285.505 191.829 285.705C192.85 287.73 193.838 289.804 194.725 291.929C194.826 292.163 194.943 292.414 195.043 292.665C197.973 299.825 199.814 307.638 198.642 316.939Z" fill="#FFC6A7"/>
<path d="M158.047 240.787C156.005 242.543 153.343 243.614 150.464 243.614H59.4121C57.9892 243.614 56.6332 243.363 55.3776 242.895C52.7494 243.146 51.293 243.296 51.293 243.296C51.293 243.296 52.1802 245.939 54.2226 249.921C55.5451 250.256 56.9178 250.423 58.3407 250.423H151.552C157.679 250.423 163.019 247.11 165.898 242.159C163.504 241.623 160.876 241.155 158.047 240.787Z" fill="#FF896F"/>
<path d="M16.4896 200.268L15.3679 208.834C15.1503 210.406 13.7776 211.544 12.204 211.46L7.09814 211.209C8.18628 205.454 10.011 195.768 11.6348 186.968C15.2005 190.23 17.1592 195.115 16.4896 200.268Z" fill="#FFE1D5"/>
<g clip-path="url(#clip0_146_348)">
<path d="M73.9464 113.156H78.6831C78.7832 113.156 78.8794 113.194 78.9525 113.263C79.0256 113.331 79.07 113.424 79.0768 113.524C79.0837 113.624 79.0523 113.723 78.9892 113.8C78.9261 113.878 78.8359 113.928 78.7368 113.942L78.6831 113.946H73.9464C73.8464 113.946 73.7501 113.908 73.677 113.839C73.6039 113.771 73.5595 113.678 73.5527 113.578C73.5459 113.478 73.5772 113.379 73.6403 113.302C73.7034 113.224 73.7936 113.174 73.8927 113.16L73.9464 113.156H78.6831H73.9464ZM76.2611 106.844L76.3148 106.841C76.4101 106.841 76.5023 106.875 76.5742 106.938C76.6461 107.001 76.6928 107.087 76.7058 107.182L76.7095 107.235V111.282L77.8963 110.095C77.9632 110.028 78.052 109.988 78.1464 109.981C78.2408 109.974 78.3345 110.001 78.4105 110.057L78.4547 110.095C78.5216 110.162 78.5623 110.251 78.5692 110.345C78.5762 110.44 78.549 110.533 78.4926 110.609L78.4547 110.654L76.5937 112.514C76.5269 112.581 76.4383 112.622 76.344 112.629C76.2497 112.636 76.1561 112.609 76.08 112.553L76.0358 112.514L74.1748 110.654C74.1042 110.583 74.0628 110.489 74.0591 110.389C74.0553 110.289 74.0894 110.192 74.1546 110.116C74.2197 110.041 74.311 109.993 74.4102 109.982C74.5093 109.971 74.6089 109.998 74.689 110.057L74.7332 110.095L75.92 111.283V107.235C75.92 107.14 75.9546 107.048 76.0173 106.976C76.08 106.904 76.1666 106.857 76.2611 106.844L76.3148 106.841L76.2611 106.844Z" fill="black"/>
</g>
<path d="M147.818 5.06897H53.5025C47.0909 5.06897 41.9014 10.2718 41.9014 16.6792V154.212V157.591V238.093C44.7473 240.452 48.4134 241.857 52.4144 241.857H148.907C152.891 241.857 156.557 240.452 159.42 238.093L155.988 157.591V154.212L159.42 16.6792C159.42 10.2718 154.23 5.06897 147.818 5.06897Z" fill="#FAFAFF"/>
<path d="M129.638 99.5568C128.567 99.5568 127.512 99.6572 126.491 99.8579C125.47 87.2272 114.907 77.2899 102.017 77.2899C90.9344 77.2899 81.5765 84.6174 78.513 94.6885C77.2407 94.4209 75.9015 94.287 74.5455 94.287C63.7144 94.287 54.9424 103.053 54.9424 113.877C54.9424 124.517 63.4298 133.166 73.9931 133.451C74.1605 133.467 74.3279 133.467 74.4785 133.467H129.521C129.538 133.467 129.555 133.467 129.571 133.467C129.588 133.467 129.605 133.467 129.622 133.467C138.996 133.467 146.58 125.872 146.58 116.52C146.597 107.152 138.996 99.5568 129.638 99.5568Z" fill="#615ED1"/>
<path d="M95.0527 62.1496H52.85C51.7953 62.1496 50.9248 61.2964 50.9248 60.2258C50.9248 59.1718 51.7786 58.3019 52.85 58.3019H95.0527C96.1074 58.3019 96.9779 59.1551 96.9779 60.2258C96.9779 61.2964 96.1241 62.1496 95.0527 62.1496Z" fill="#615ED1"/>
<path d="M148.672 62.1496H104.243C103.188 62.1496 102.318 61.2964 102.318 60.2258C102.318 59.1718 103.172 58.3019 104.243 58.3019H148.689C149.744 58.3019 150.614 59.1551 150.614 60.2258C150.597 61.2964 149.744 62.1496 148.672 62.1496Z" fill="#FC888B"/>
<path d="M148.673 53.5842H52.85C51.7953 53.5842 50.9248 52.731 50.9248 51.6603C50.9248 50.6064 51.7786 49.7365 52.85 49.7365H148.689C149.744 49.7365 150.614 50.5896 150.614 51.6603C150.598 52.7143 149.744 53.5842 148.673 53.5842Z" fill="#7474F7"/>
<path d="M148.672 45.0021H84.6063C83.5517 45.0021 82.6812 44.1489 82.6812 43.0782C82.6812 42.0242 83.5349 41.1543 84.6063 41.1543H148.672C149.727 41.1543 150.597 42.0075 150.597 43.0782C150.597 44.1321 149.744 45.0021 148.672 45.0021Z" fill="#615ED1"/>
<path d="M76.0355 45.0021H52.85C51.7953 45.0021 50.9248 44.1489 50.9248 43.0782C50.9248 42.0242 51.7786 41.1543 52.85 41.1543H76.0523C77.1069 41.1543 77.9774 42.0075 77.9774 43.0782C77.9607 44.1321 77.1069 45.0021 76.0355 45.0021Z" fill="#FC888B"/>
<path d="M159.419 24.3915H41.8174V14.404C41.8174 8.79967 46.3708 4.24927 51.9789 4.24927H149.241C154.849 4.24927 159.403 8.79967 159.403 14.404V24.3915H159.419Z" fill="#615ED1"/>
<path d="M148.907 0H52.4147C43.2744 0 35.8584 7.42787 35.8584 16.5789V227.035C35.8584 232.205 38.2188 236.805 41.9017 239.85C44.7476 242.209 48.4138 243.614 52.4147 243.614H148.907C152.891 243.614 156.557 242.209 159.42 239.85C163.12 236.822 165.48 232.205 165.48 227.035V16.5789C165.48 7.42787 158.064 0 148.907 0ZM159.42 225.195C159.42 231.619 154.23 236.822 147.819 236.822H53.5029C49.9204 236.822 46.7062 235.199 44.5802 232.623C42.9061 230.615 41.9017 228.022 41.9017 225.195V18.4358C41.9017 12.0117 47.0913 6.82561 53.5029 6.82561H147.819C154.23 6.82561 159.42 12.0285 159.42 18.4358V225.195Z" fill="#2E2044"/>
<path d="M102.351 157.708C103.609 157.708 104.628 156.682 104.628 155.416C104.628 154.151 103.609 153.125 102.351 153.125C101.094 153.125 100.075 154.151 100.075 155.416C100.075 156.682 101.094 157.708 102.351 157.708Z" fill="#615ED1"/>
<path d="M85.2591 157.708C86.5165 157.708 87.5358 156.682 87.5358 155.416C87.5358 154.151 86.5165 153.125 85.2591 153.125C84.0017 153.125 82.9824 154.151 82.9824 155.416C82.9824 156.682 84.0017 157.708 85.2591 157.708Z" fill="#FC888B"/>
<path d="M93.8133 157.708C95.0707 157.708 96.09 156.682 96.09 155.416C96.09 154.151 95.0707 153.125 93.8133 153.125C92.5559 153.125 91.5366 154.151 91.5366 155.416C91.5366 156.682 92.5559 157.708 93.8133 157.708Z" fill="#615ED1"/>
<path d="M110.906 157.708C112.163 157.708 113.182 156.682 113.182 155.416C113.182 154.151 112.163 153.125 110.906 153.125C109.648 153.125 108.629 154.151 108.629 155.416C108.629 156.682 109.648 157.708 110.906 157.708Z" fill="#615ED1"/>
<path d="M92.5578 186.399H79.1821C77.5248 186.399 76.1855 185.061 76.1855 183.405V170.038C76.1855 168.382 77.5248 167.043 79.1821 167.043H92.5578C94.2151 167.043 95.5543 168.382 95.5543 170.038V183.405C95.5543 185.061 94.2151 186.399 92.5578 186.399Z" fill="#7474F7"/>
<path d="M141.423 186.399H128.047C126.39 186.399 125.051 185.061 125.051 183.405V170.038C125.051 168.382 126.39 167.043 128.047 167.043H141.423C143.08 167.043 144.42 168.382 144.42 170.038V183.405C144.42 185.061 143.08 186.399 141.423 186.399Z" fill="#7474F7"/>
<path d="M116.982 186.399H103.606C101.949 186.399 100.61 185.061 100.61 183.405V170.038C100.61 168.382 101.949 167.043 103.606 167.043H116.982C118.639 167.043 119.979 168.382 119.979 170.038V183.405C119.995 185.061 118.639 186.399 116.982 186.399Z" fill="#FC888B"/>
<path d="M68.1168 186.399H54.7412C53.0839 186.399 51.7446 185.061 51.7446 183.405V170.038C51.7446 168.382 53.0839 167.043 54.7412 167.043H68.1168C69.7741 167.043 71.1134 168.382 71.1134 170.038V183.405C71.1134 185.061 69.7741 186.399 68.1168 186.399Z" fill="#E16C74"/>
<path d="M92.5578 216.864H79.1821C77.5248 216.864 76.1855 215.525 76.1855 213.869V200.502C76.1855 198.846 77.5248 197.508 79.1821 197.508H92.5578C94.2151 197.508 95.5543 198.846 95.5543 200.502V213.869C95.5543 215.509 94.2151 216.864 92.5578 216.864Z" fill="#FC888B"/>
<path d="M141.423 216.864H128.047C126.39 216.864 125.051 215.525 125.051 213.869V200.502C125.051 198.846 126.39 197.508 128.047 197.508H141.423C143.08 197.508 144.42 198.846 144.42 200.502V213.869C144.42 215.509 143.08 216.864 141.423 216.864Z" fill="#FC888B"/>
<path d="M116.982 216.864H103.606C101.949 216.864 100.61 215.525 100.61 213.869V200.502C100.61 198.846 101.949 197.508 103.606 197.508H116.982C118.639 197.508 119.979 198.846 119.979 200.502V213.869C119.995 215.509 118.639 216.864 116.982 216.864Z" fill="#E16C74"/>
<path d="M68.1168 216.864H54.7412C53.0839 216.864 51.7446 215.525 51.7446 213.869V200.502C51.7446 198.846 53.0839 197.508 54.7412 197.508H68.1168C69.7741 197.508 71.1134 198.846 71.1134 200.502V213.869C71.1134 215.509 69.7741 216.864 68.1168 216.864Z" fill="#7474F7"/>
<path d="M52.1968 14.5386C50.7739 14.5386 49.4514 15.0405 48.4302 15.8937C48.1791 16.0945 47.8276 16.0945 47.5932 15.8603L47.5765 15.8435C47.3254 15.5926 47.3421 15.1576 47.6267 14.9401C48.8655 13.9196 50.4558 13.3007 52.1968 13.3007C53.9379 13.3007 55.5282 13.9196 56.767 14.9401C57.0516 15.1744 57.0683 15.5926 56.8172 15.8435L56.8005 15.8603C56.5661 16.0945 56.2146 16.0945 55.9635 15.8937C54.9423 15.0573 53.6198 14.5386 52.1968 14.5386Z" fill="#2E2044"/>
<path d="M52.1969 17.0306C51.4436 17.0306 50.7238 17.2815 50.1546 17.6998C49.9035 17.8838 49.5687 17.8503 49.3511 17.6328C49.0832 17.3652 49.1167 16.9135 49.418 16.696C50.1881 16.1272 51.159 15.7759 52.1969 15.7759C53.2348 15.7759 54.1891 16.1105 54.9759 16.696C55.2772 16.9135 55.3107 17.3652 55.0428 17.6328C54.8252 17.8503 54.4904 17.8838 54.2393 17.6998C53.6534 17.2815 52.9503 17.0306 52.1969 17.0306Z" fill="#2E2044"/>
<path d="M52.1964 19.5065C52.0793 19.5065 51.9621 19.5233 51.8449 19.5735C51.6105 19.6571 51.3427 19.6236 51.1585 19.4396C50.8405 19.1218 50.9576 18.5864 51.3762 18.4191C51.6273 18.3187 51.8951 18.2686 52.1797 18.2686C52.4643 18.2686 52.7321 18.3187 52.9832 18.4191C53.4018 18.5864 53.5189 19.1218 53.2009 19.4396C53.0167 19.6236 52.7489 19.6571 52.5145 19.5735C52.4308 19.54 52.3136 19.5065 52.1964 19.5065Z" fill="#2E2044"/>
<path d="M64.1659 16.4283H62.7095V19.6237H64.1659V16.4283Z" fill="#2E2044"/>
<path d="M61.6044 18.0344H60.1479V19.6237H61.6044V18.0344Z" fill="#2E2044"/>
<path d="M66.7269 14.7721H65.2705V19.6236H66.7269V14.7721Z" fill="#2E2044"/>
<path d="M69.2884 13.2498H67.832V19.6237H69.2884V13.2498Z" fill="#2E2044"/>
<path d="M117.803 13.5342C117.234 13.5342 116.748 13.8353 116.346 14.4208C116.095 15.0064 115.961 15.6755 115.961 16.3949V16.4451C115.961 17.131 116.079 17.7667 116.296 18.3355C116.648 19.0047 117.15 19.3393 117.786 19.3393H117.836C118.422 19.3393 118.908 19.0382 119.276 18.4526C119.527 17.8336 119.661 17.2147 119.661 16.6124V16.2778C119.661 15.7927 119.561 15.2406 119.376 14.6383C119.008 13.9022 118.489 13.5342 117.803 13.5342ZM117.066 18.1682C116.832 17.7333 116.715 17.1645 116.715 16.512V16.3447C116.715 15.9098 116.782 15.4413 116.932 14.9729C117.133 14.5212 117.418 14.287 117.836 14.287C118.171 14.287 118.439 14.4543 118.657 14.8056C118.841 15.3075 118.941 15.8428 118.941 16.3949C118.924 16.7128 118.908 16.947 118.891 17.0975C118.791 18.0679 118.439 18.5363 117.836 18.5363H117.786C117.518 18.553 117.267 18.4192 117.066 18.1682Z" fill="#2E2044"/>
<path d="M121.586 13.5509C121.318 13.5509 121.034 13.6178 120.766 13.7517C120.13 14.1364 119.812 14.655 119.812 15.3075C119.812 15.5752 119.878 15.8428 120.012 16.144C120.364 16.7295 120.866 17.0474 121.486 17.0975L120.682 18.185C120.247 18.7036 120.197 18.8709 120.197 18.9545C120.197 19.0716 120.247 19.2891 120.598 19.356C120.682 19.356 120.766 19.3226 120.849 19.2556L122.825 16.6291C123.176 16.2109 123.361 15.7759 123.361 15.341C123.361 15.0733 123.277 14.7722 123.109 14.4543C122.724 13.8353 122.205 13.5509 121.586 13.5509ZM122.557 15.3242C122.557 15.4748 122.524 15.6254 122.457 15.7592C122.256 16.1272 121.971 16.2945 121.586 16.2945C121.435 16.2945 121.301 16.2611 121.184 16.2276C120.782 16.0101 120.598 15.7425 120.598 15.3911V15.2573C120.598 15.1904 120.615 15.09 120.649 14.9896C120.866 14.5547 121.134 14.3539 121.519 14.3539H121.603C121.703 14.3539 121.804 14.3706 121.854 14.3874C122.339 14.5547 122.557 14.8558 122.557 15.3242Z" fill="#2E2044"/>
<path d="M124.85 18.0176H124.783C124.599 18.0176 124.348 18.118 124.248 18.5864C124.248 18.8206 124.348 19.105 124.833 19.1886H124.85H124.867C125.319 19.0715 125.419 18.8206 125.419 18.6366V18.5362C125.319 18.1012 125.051 18.0176 124.85 18.0176Z" fill="#2E2044"/>
<path d="M124.833 15.4246C124.616 15.4246 124.348 15.5249 124.248 16.0101C124.248 16.2443 124.348 16.5287 124.833 16.5956H124.934H124.951C125.336 16.4618 125.419 16.2276 125.419 16.0603V15.9432V15.9097C125.286 15.5082 125.018 15.4246 124.833 15.4246Z" fill="#2E2044"/>
<path d="M127.596 13.5342C127.027 13.5342 126.541 13.8353 126.139 14.4208C125.888 15.0064 125.754 15.6755 125.754 16.3949V16.4451C125.754 17.131 125.872 17.7667 126.089 18.3355C126.441 19.0047 126.943 19.3393 127.579 19.3393H127.629C128.215 19.3393 128.701 19.0382 129.069 18.4526C129.32 17.8336 129.454 17.2147 129.454 16.6124V16.2778C129.454 15.7927 129.354 15.2406 129.169 14.6383C128.801 13.9022 128.265 13.5342 127.596 13.5342ZM128.717 16.4116C128.701 16.7295 128.684 16.9637 128.667 17.1143C128.567 18.0846 128.215 18.553 127.613 18.553H127.562C127.295 18.553 127.06 18.4192 126.843 18.1682C126.608 17.7333 126.491 17.1645 126.491 16.512V16.3447C126.491 15.9098 126.558 15.4413 126.709 14.9729C126.909 14.5212 127.194 14.287 127.613 14.287C127.947 14.287 128.215 14.4543 128.433 14.8056C128.617 15.341 128.717 15.8763 128.717 16.4116Z" fill="#2E2044"/>
<path d="M133.003 14.6216C132.651 13.9022 132.116 13.5342 131.446 13.5342C130.877 13.5342 130.391 13.8353 129.99 14.4208C129.738 15.0064 129.604 15.6755 129.604 16.3949V16.4451C129.604 17.131 129.722 17.7667 129.939 18.3355C130.291 19.0047 130.793 19.3393 131.429 19.3393H131.479C132.065 19.3393 132.551 19.0382 132.919 18.4526C133.17 17.8336 133.304 17.2147 133.304 16.6124V16.2778C133.287 15.7592 133.187 15.2239 133.003 14.6216ZM130.693 18.1682C130.458 17.7333 130.341 17.1645 130.341 16.512V16.3447C130.341 15.9098 130.408 15.4413 130.559 14.9729C130.76 14.5212 131.044 14.287 131.463 14.287C131.797 14.287 132.065 14.4543 132.283 14.8056C132.467 15.3075 132.568 15.8428 132.568 16.3949C132.551 16.7128 132.534 16.947 132.517 17.0975C132.417 18.0679 132.065 18.5363 131.463 18.5363H131.412C131.145 18.553 130.894 18.4192 130.693 18.1682Z" fill="#2E2044"/>
<path d="M151.652 13.9021H142.244C141.39 13.9021 140.704 14.588 140.704 15.4412V17.4153C140.704 18.2685 141.39 18.9544 142.244 18.9544H151.652C152.506 18.9544 153.192 18.2685 153.192 17.4153V15.4412C153.192 14.588 152.506 13.9021 151.652 13.9021ZM151.501 17.9506H145.039V14.9226H151.501C151.853 14.9226 152.154 15.207 152.154 15.575V17.2982C152.154 17.6662 151.87 17.9506 151.501 17.9506Z" fill="#2E2044"/>
<path d="M149.325 115.149C149.225 121.506 150.296 127.83 150.732 134.17C151.267 142.1 150.865 150.113 148.84 157.842C146.747 165.822 142.83 173.317 137.657 179.942C135.046 183.271 132.032 186.282 129.237 189.477C126.257 192.89 123.461 196.437 120.883 200.117C120.666 200.418 120.448 200.736 120.247 201.037C119.979 201.422 119.728 201.807 119.477 202.175C119.31 202.409 119.142 202.66 118.992 202.894C114.723 209.385 105.365 230.465 103.239 236.721C103.239 236.721 103.289 236.738 103.339 236.772H106.001C106.085 236.772 107.558 236.788 109.868 236.788H141.608C143.567 236.772 145.006 236.755 145.626 236.721C151.451 236.102 155.988 231.167 155.988 225.178V202.175H156.641C156.641 202.175 156.842 97.0975 156.842 94.6216C151.585 100.226 149.442 107.838 149.325 115.149Z" fill="#BEDCFF"/>
<path d="M180.73 259.323C180.73 259.323 138.444 279.816 125.771 272.489C112.178 264.66 110.236 238.997 122.658 214.321C126.324 207.043 130.76 199.967 135.514 193.61C143.148 183.488 151.853 172.347 153.427 159.783C156.289 136.679 148.271 121.807 149.576 106.985C151.853 80.8198 174.52 79.0967 174.52 79.0967C174.52 79.0967 183.091 146.198 192.917 174.187C197.404 186.968 186.807 219.256 181.5 242.092C180.061 248.265 180.161 253.016 180.73 259.323Z" fill="#FFC6A7"/>
<path d="M91.347 117.038H109.702C110.09 117.038 110.463 117.185 110.746 117.45C111.029 117.714 111.201 118.076 111.228 118.463C111.254 118.85 111.133 119.232 110.888 119.533C110.644 119.833 110.294 120.03 109.91 120.083L109.702 120.097H91.347C90.9594 120.097 90.5864 119.95 90.3032 119.685C90.02 119.42 89.8478 119.058 89.8214 118.672C89.795 118.285 89.9163 117.903 90.1609 117.602C90.4055 117.301 90.755 117.105 91.139 117.052L91.347 117.038H109.702H91.347ZM100.316 92.5787L100.524 92.5645C100.894 92.5645 101.251 92.6983 101.53 92.9413C101.808 93.1842 101.99 93.5198 102.04 93.886L102.054 94.094V109.773L106.653 105.176C106.912 104.917 107.256 104.76 107.622 104.733C107.988 104.706 108.351 104.811 108.646 105.03L108.817 105.176C109.076 105.436 109.234 105.78 109.261 106.145C109.288 106.511 109.182 106.874 108.964 107.169L108.817 107.34L101.605 114.55C101.346 114.809 101.003 114.966 100.638 114.994C100.272 115.021 99.9095 114.916 99.6149 114.699L99.4436 114.55L92.2321 107.34C91.9584 107.067 91.7982 106.701 91.7837 106.315C91.7692 105.928 91.9014 105.551 92.1538 105.258C92.4062 104.966 92.7601 104.779 93.1443 104.737C93.5284 104.694 93.9144 104.799 94.2246 105.03L94.396 105.176L98.9949 109.777V94.094C98.9949 93.7244 99.1288 93.3673 99.3717 93.0887C99.6147 92.8102 99.9503 92.629 100.316 92.5787L100.524 92.5645L100.316 92.5787Z" fill="white"/>
<path d="M179.408 112.355C174.335 110.849 169.531 106.633 168.46 101.062L166.719 91.8947C166.417 90.3388 167.371 88.8332 168.895 88.4149L175.524 86.6249C175.524 86.6082 177.734 101.765 179.408 112.355Z" fill="#FFE1D5"/>
<defs>
<clipPath id="clip0_146_348">
<rect width="8.42094" height="8.42094" fill="white" transform="translate(72.104 106.314)"/>
</clipPath>
</defs>
</svg>
