<svg width="65" height="65" viewBox="0 0 65 65" fill="none" xmlns="http://www.w3.org/2000/svg">
<path d="M62.2826 28.0699L6.9998 0.456167C6.25401 0.110979 5.43363 -0.0423811 4.61336 0.0100467C3.79309 0.0624744 2.99896 0.319025 2.30328 0.756345C1.6076 1.19366 1.03246 1.79786 0.630204 2.51394C0.227952 3.23002 0.011368 4.03524 0.000167161 4.85629V60.06C-0.00679765 60.9028 0.20399 61.7331 0.612156 62.4708C1.02032 63.2084 1.61206 63.8284 2.33019 64.2708C3.04831 64.7132 3.86853 64.9631 4.71156 64.9962C5.5546 65.0294 6.39194 64.8447 7.14265 64.4601L62.2826 36.8464C63.0994 36.4368 63.7861 35.8083 64.266 35.0313C64.7459 34.2543 65 33.3592 65 32.4462C65 31.5332 64.7459 30.6382 64.266 29.8612C63.7861 29.0841 63.0994 28.4557 62.2826 28.0461V28.0699Z" fill="#FF6D69"/>
</svg>
