<svg width="84" height="51" viewBox="0 0 84 51" fill="none" xmlns="http://www.w3.org/2000/svg">
<rect y="20.0771" width="77.5721" height="31.7618" rx="10" transform="rotate(-15 0 20.0771)" fill="#C378F7"/>
<path d="M18.9907 30.0738L20.6871 26.6376L20.2523 25.0149L12.6794 27.044L13.2178 29.0531L17.8233 27.8191L16.2728 30.9345L16.7159 32.5882L17.8596 32.2818C19.2814 31.9008 20.0208 32.2493 20.2403 33.0684C20.4763 33.9493 19.8403 34.6664 18.5884 35.0018C17.4602 35.3041 16.2213 35.2551 15.2366 34.8564L14.7764 37.0337C16.0261 37.4939 17.6988 37.4929 19.2134 37.0871C22.2889 36.263 23.2481 34.2171 22.7594 32.3934C22.3329 30.8016 21.0208 29.8611 18.9907 30.0738ZM24.0956 31.9525L28.4693 30.7806L27.9517 28.8488L23.578 30.0207L24.0956 31.9525ZM27.5126 23.0695L28.5313 26.8714L30.7568 26.2751L30.2847 24.5132L33.8702 23.5525L32.3432 33.3702L35.0632 32.6414L36.6175 22.3691L36.1827 20.7463L27.5126 23.0695ZM43.7668 21.3976L44.5377 24.769C44.8828 26.3661 45.1752 27.8282 44.0315 28.1347C43.9233 28.1637 43.7956 28.1813 43.6678 28.199L44.0742 30.2103C44.5864 30.2056 45.0048 30.1598 45.3757 30.0604C47.4312 29.5096 47.3554 27.3103 46.684 24.3098L46.3678 22.8209L48.9951 22.1169L50.693 28.4534L53.1039 27.8074L50.876 19.4927L43.7668 21.3976ZM62.3996 20.8939C61.6832 18.2202 59.3587 17.0873 56.9169 17.7415C54.3823 18.4207 52.9617 20.7228 53.6284 23.211C54.291 25.6838 56.6456 26.9909 59.5202 26.2207C61.0193 25.819 62.0541 25.0448 62.5908 23.9568L60.9354 22.9096C60.5085 23.6037 59.9453 24.0362 59.0643 24.2723C57.797 24.6118 56.7463 24.2142 56.2371 23.2409L62.5272 21.5555C62.4888 21.3504 62.4493 21.0794 62.3996 20.8939ZM57.421 19.5611C58.5028 19.2712 59.4732 19.74 59.9248 20.7454L55.8293 21.8428C55.7136 20.7308 56.3237 19.8551 57.421 19.5611ZM69.8242 14.4155L61.8032 16.5648L62.3332 18.543L65.146 17.7893L66.8439 24.1258L69.2394 23.4839L67.5415 17.1474L70.3543 16.3938L69.8242 14.4155Z" fill="white"/>
</svg>
