<svg width="104" height="64" viewBox="0 0 104 64" fill="none" xmlns="http://www.w3.org/2000/svg">
<rect y="24.9554" width="96.4202" height="39.4792" rx="10" transform="rotate(-15 0 24.9554)" fill="#C378F7"/>
<path d="M22.8541 37.8788L24.9746 33.5836L24.4311 31.5551L14.9651 34.0916L15.638 36.603L21.3949 35.0604L19.4568 38.9547L20.0107 41.0218L21.4402 40.6388C23.2175 40.1625 24.1418 40.5982 24.4161 41.622C24.7112 42.7232 23.9161 43.6195 22.3513 44.0388C20.941 44.4167 19.3924 44.3554 18.1615 43.857L17.5863 46.5786C19.1484 47.1539 21.2393 47.1527 23.1325 46.6454C26.9769 45.6153 28.1759 43.0579 27.565 40.7783C27.0319 38.7885 25.3917 37.6129 22.8541 37.8788ZM29.2353 40.2272L34.7024 38.7623L34.0554 36.3475L28.5882 37.8124L29.2353 40.2272ZM33.5065 29.1234L34.7798 33.8758L37.5617 33.1304L36.9716 30.9281L41.4535 29.7271L39.5447 41.9993L42.9448 41.0883L44.8877 28.2479L44.3441 26.2195L33.5065 29.1234ZM53.8243 27.0336L54.7878 31.2478C55.2192 33.2441 55.5847 35.0718 54.1551 35.4549C54.0199 35.4911 53.8602 35.5132 53.7005 35.5353L54.2085 38.0495C54.8488 38.0436 55.3718 37.9862 55.8354 37.862C58.4048 37.1735 58.31 34.4244 57.4707 30.6738L57.0755 28.8127L60.3597 27.9327L62.482 35.8533L65.4957 35.0458L62.7108 24.6524L53.8243 27.0336ZM77.1153 26.404C76.2197 23.0619 73.3142 21.6456 70.2619 22.4635C67.0936 23.3124 65.3179 26.19 66.1513 29.3003C66.9795 32.3913 69.9227 34.0252 73.516 33.0624C75.3898 32.5603 76.6834 31.5925 77.3543 30.2325L75.285 28.9235C74.7514 29.7912 74.0473 30.3318 72.9462 30.6269C71.3621 31.0513 70.0487 30.5543 69.4121 29.3376L77.2747 27.2309C77.2267 26.9745 77.1774 26.6358 77.1153 26.404ZM70.892 24.7379C72.2443 24.3755 73.4573 24.9616 74.0218 26.2183L68.9024 27.59C68.7577 26.2001 69.5204 25.1054 70.892 24.7379ZM86.3961 18.306L76.3697 20.9925L77.0323 23.4653L80.5483 22.5232L82.6706 30.4438L85.665 29.6414L83.5427 21.7208L87.0586 20.7787L86.3961 18.306Z" fill="white"/>
</svg>
