<svg width="137" height="84" viewBox="0 0 137 84" fill="none" xmlns="http://www.w3.org/2000/svg">
<rect y="32.87" width="127" height="52" rx="10" transform="rotate(-15 0 32.87)" fill="#C378F7"/>
<path d="M30.2395 60.8223C29.0173 61.1498 27.7608 61.3159 26.4701 61.3208C25.1749 61.309 24.028 61.1139 23.0294 60.7354L23.7771 57.1973C24.5769 57.5034 25.4586 57.6799 26.4223 57.7268C27.3859 57.7736 28.3198 57.6759 29.2239 57.4337C30.2452 57.16 30.995 56.7438 31.4733 56.1849C31.9516 55.6261 32.0966 54.9951 31.9082 54.2919C31.7287 53.6222 31.3279 53.1643 30.7057 52.9183C30.0835 52.6723 29.1948 52.704 28.0395 53.0136L26.1811 53.5116L25.461 50.8244L28.8711 43.9619L29.7135 45.2974L20.4966 47.7671L19.6218 44.5022L31.9277 41.2049L32.6343 43.8419L29.2493 50.6976L26.8737 50.069L28.054 49.7527C30.2138 49.174 31.9764 49.2221 33.3416 49.8971C34.7068 50.5721 35.5935 51.6714 36.0018 53.195C36.2665 54.1828 36.2559 55.1816 35.9702 56.1913C35.68 57.1842 35.0709 58.0921 34.1429 58.915C33.2149 59.7379 31.9138 60.3736 30.2395 60.8223ZM38.1731 52.4786L37.3319 49.3393L44.4392 47.435L45.2803 50.5742L38.1731 52.4786ZM51.5754 54.7823L54.3643 36.8619L55.8901 38.3372L46.4221 40.8742L47.7189 38.481L48.9974 43.2527L45.381 44.2217L43.7256 38.0436L57.8146 34.2685L58.5212 36.9055L55.9954 53.598L51.5754 54.7823ZM70.6383 49.6475L69.9778 46.3791C70.0828 46.3689 70.1877 46.3587 70.2927 46.3486C70.3931 46.3217 70.4852 46.297 70.5689 46.2745C71.0377 46.1489 71.3702 45.9163 71.5663 45.5766C71.7624 45.237 71.8668 44.8232 71.8796 44.3352C71.888 43.8305 71.8387 43.2785 71.7319 42.679C71.6419 42.0751 71.5284 41.4505 71.3914 40.8053L70.1388 35.3268L81.6913 32.2314L85.3116 45.7427L81.3938 46.7925L78.3791 35.5414L79.5138 36.2602L73.5869 37.8483L74.1465 36.6217L74.8791 40.0592C75.1519 41.2781 75.3475 42.4101 75.466 43.455C75.6013 44.4955 75.6085 45.4266 75.4878 46.2486C75.3626 47.0537 75.0859 47.729 74.6578 48.2744C74.2253 48.803 73.5904 49.1795 72.7533 49.4038C72.4519 49.4846 72.127 49.5447 71.7787 49.5842C71.4304 49.6237 71.0503 49.6448 70.6383 49.6475ZM95.738 43.1643C94.1976 43.5771 92.7607 43.6391 91.4272 43.3504C90.1105 43.0572 88.9949 42.4768 88.0805 41.6092C87.1617 40.7249 86.5228 39.6131 86.1639 38.2736C85.8005 36.9175 85.7895 35.6374 86.1308 34.4333C86.4844 33.2081 87.1269 32.1566 88.0581 31.279C88.9849 30.3847 90.1347 29.7536 91.5076 29.3857C92.8303 29.0313 94.0953 28.9974 95.3026 29.284C96.5222 29.5494 97.5831 30.1265 98.4852 31.0153C99.3828 31.8874 100.027 33.0517 100.417 34.5084C100.457 34.659 100.496 34.8371 100.533 35.0425C100.566 35.2311 100.596 35.4114 100.624 35.5833L89.6495 38.524L89.0371 36.2387L97.9526 33.8498L96.6275 34.9316C96.439 34.2284 96.133 33.6554 95.7093 33.2127C95.2856 32.7699 94.7845 32.4735 94.2059 32.3235C93.6229 32.1567 92.9965 32.163 92.3268 32.3425C91.6571 32.5219 91.1031 32.8319 90.6648 33.2723C90.2388 33.6915 89.9553 34.2071 89.8142 34.8192C89.6687 35.4145 89.6923 36.0721 89.8852 36.792L90.0467 37.3947C90.2441 38.1314 90.5782 38.7418 91.0488 39.2258C91.5317 39.6886 92.1065 39.9921 92.7733 40.1365C93.4523 40.2596 94.1936 40.2135 94.9972 39.9982C95.7172 39.8053 96.3159 39.5282 96.7933 39.167C97.2875 38.8013 97.7023 38.3402 98.0377 37.7838L100.728 39.4855C100.297 40.3547 99.664 41.1074 98.8296 41.7438C97.9907 42.3633 96.9602 42.8368 95.738 43.1643ZM107.639 39.7601L104.638 28.5592L105.759 29.2278L100.309 30.6881L99.4479 27.4735L112.482 23.981L113.343 27.1956L107.894 28.6558L108.53 27.5162L111.532 38.7171L107.639 39.7601Z" fill="white"/>
</svg>
