<svg width="175" height="36" viewBox="0 0 175 36" fill="none" xmlns="http://www.w3.org/2000/svg">
<path d="M44.6748 6.182V19H41.3428V6.182H44.6748ZM47.0636 10.279H50.1406V11.384C50.5599 10.874 50.9849 10.534 51.4156 10.364C51.8462 10.1827 52.3506 10.092 52.9286 10.092C53.5406 10.092 54.0619 10.194 54.4926 10.398C54.9346 10.5907 55.3086 10.8683 55.6146 11.231C55.8639 11.5257 56.0339 11.8543 56.1246 12.217C56.2152 12.5797 56.2606 12.9933 56.2606 13.458V19H53.1836V14.597C53.1836 14.1663 53.1496 13.8207 53.0816 13.56C53.0249 13.288 52.9172 13.0727 52.7586 12.914C52.6226 12.778 52.4696 12.6817 52.2996 12.625C52.1296 12.5683 51.9482 12.54 51.7556 12.54C51.2342 12.54 50.8319 12.6987 50.5486 13.016C50.2766 13.322 50.1406 13.764 50.1406 14.342V19H47.0636V10.279ZM58.3526 10.279H61.4296V11.384C61.849 10.874 62.274 10.534 62.7046 10.364C63.1353 10.1827 63.6396 10.092 64.2176 10.092C64.8296 10.092 65.351 10.194 65.7816 10.398C66.2236 10.5907 66.5976 10.8683 66.9036 11.231C67.153 11.5257 67.323 11.8543 67.4136 12.217C67.5043 12.5797 67.5496 12.9933 67.5496 13.458V19H64.4726V14.597C64.4726 14.1663 64.4386 13.8207 64.3706 13.56C64.314 13.288 64.2063 13.0727 64.0476 12.914C63.9116 12.778 63.7586 12.6817 63.5886 12.625C63.4186 12.5683 63.2373 12.54 63.0446 12.54C62.5233 12.54 62.121 12.6987 61.8376 13.016C61.5656 13.322 61.4296 13.764 61.4296 14.342V19H58.3526V10.279ZM72.5487 14.597C72.5487 14.8917 72.5997 15.1637 72.7017 15.413C72.815 15.651 72.9567 15.8607 73.1267 16.042C73.308 16.2233 73.5177 16.365 73.7557 16.467C74.005 16.569 74.2657 16.62 74.5377 16.62C74.8097 16.62 75.0647 16.569 75.3027 16.467C75.552 16.365 75.7617 16.2233 75.9317 16.042C76.113 15.8607 76.2547 15.651 76.3567 15.413C76.47 15.1637 76.5267 14.8973 76.5267 14.614C76.5267 14.342 76.47 14.087 76.3567 13.849C76.2547 13.5997 76.113 13.3843 75.9317 13.203C75.7617 13.0217 75.552 12.88 75.3027 12.778C75.0647 12.676 74.8097 12.625 74.5377 12.625C74.2657 12.625 74.005 12.676 73.7557 12.778C73.5177 12.88 73.308 13.0217 73.1267 13.203C72.9567 13.3843 72.815 13.594 72.7017 13.832C72.5997 14.07 72.5487 14.325 72.5487 14.597ZM69.3017 14.563C69.3017 13.917 69.432 13.3163 69.6927 12.761C69.9534 12.1943 70.316 11.707 70.7807 11.299C71.2454 10.8797 71.795 10.551 72.4297 10.313C73.0757 10.075 73.7784 9.956 74.5377 9.956C75.2857 9.956 75.977 10.075 76.6117 10.313C77.2577 10.5397 77.813 10.8627 78.2777 11.282C78.7537 11.69 79.122 12.183 79.3827 12.761C79.6434 13.3277 79.7737 13.9567 79.7737 14.648C79.7737 15.3393 79.6377 15.974 79.3657 16.552C79.105 17.1187 78.7424 17.6117 78.2777 18.031C77.813 18.439 77.252 18.7563 76.5947 18.983C75.9487 19.2097 75.246 19.323 74.4867 19.323C73.7387 19.323 73.0474 19.2097 72.4127 18.983C71.778 18.7563 71.2284 18.4333 70.7637 18.014C70.3104 17.5947 69.9534 17.096 69.6927 16.518C69.432 15.9287 69.3017 15.277 69.3017 14.563ZM90.9434 6.182V16.178H94.9384V19H87.6114V6.182H90.9434ZM99.4472 10.279V19H96.3702V10.279H99.4472ZM96.1662 6.93C96.1662 6.692 96.2115 6.471 96.3022 6.267C96.3929 6.05167 96.5175 5.86467 96.6762 5.706C96.8349 5.54733 97.0162 5.42267 97.2202 5.332C97.4355 5.24133 97.6622 5.196 97.9002 5.196C98.1382 5.196 98.3592 5.24133 98.5632 5.332C98.7785 5.42267 98.9655 5.54733 99.1242 5.706C99.2829 5.86467 99.4075 6.05167 99.4982 6.267C99.5889 6.471 99.6342 6.692 99.6342 6.93C99.6342 7.168 99.5889 7.39467 99.4982 7.61C99.4075 7.814 99.2829 7.99533 99.1242 8.154C98.9655 8.31267 98.7785 8.43733 98.5632 8.528C98.3592 8.61867 98.1382 8.664 97.9002 8.664C97.6622 8.664 97.4355 8.61867 97.2202 8.528C97.0162 8.43733 96.8349 8.31267 96.6762 8.154C96.5175 7.99533 96.3929 7.814 96.3022 7.61C96.2115 7.39467 96.1662 7.168 96.1662 6.93ZM101.55 10.279H104.627V11.384C105.046 10.874 105.471 10.534 105.902 10.364C106.333 10.1827 106.837 10.092 107.415 10.092C108.027 10.092 108.548 10.194 108.979 10.398C109.421 10.5907 109.795 10.8683 110.101 11.231C110.35 11.5257 110.52 11.8543 110.611 12.217C110.702 12.5797 110.747 12.9933 110.747 13.458V19H107.67V14.597C107.67 14.1663 107.636 13.8207 107.568 13.56C107.511 13.288 107.404 13.0727 107.245 12.914C107.109 12.778 106.956 12.6817 106.786 12.625C106.616 12.5683 106.435 12.54 106.242 12.54C105.721 12.54 105.318 12.6987 105.035 13.016C104.763 13.322 104.627 13.764 104.627 14.342V19H101.55V10.279ZM115.695 14.597C115.695 14.8803 115.746 15.1467 115.848 15.396C115.95 15.634 116.086 15.8437 116.256 16.025C116.438 16.2063 116.647 16.348 116.885 16.45C117.135 16.552 117.401 16.603 117.684 16.603C117.956 16.603 118.211 16.552 118.449 16.45C118.699 16.348 118.908 16.2063 119.078 16.025C119.26 15.8437 119.401 15.634 119.503 15.396C119.616 15.1467 119.673 14.886 119.673 14.614C119.673 14.3307 119.616 14.07 119.503 13.832C119.401 13.594 119.26 13.3843 119.078 13.203C118.897 13.0217 118.681 12.88 118.432 12.778C118.194 12.676 117.945 12.625 117.684 12.625C117.412 12.625 117.157 12.6817 116.919 12.795C116.681 12.897 116.471 13.0387 116.29 13.22C116.109 13.39 115.961 13.594 115.848 13.832C115.746 14.07 115.695 14.325 115.695 14.597ZM122.597 10.279V18.405C122.597 18.8923 122.569 19.3287 122.512 19.714C122.455 20.0993 122.376 20.4393 122.274 20.734C122.138 21.108 121.923 21.4537 121.628 21.771C121.345 22.0997 120.999 22.383 120.591 22.621C120.183 22.859 119.718 23.046 119.197 23.182C118.687 23.318 118.132 23.386 117.531 23.386C116.851 23.386 116.228 23.301 115.661 23.131C115.095 22.961 114.596 22.723 114.165 22.417C113.746 22.1223 113.4 21.771 113.128 21.363C112.856 20.9663 112.675 20.53 112.584 20.054H116.052C116.268 20.632 116.755 20.921 117.514 20.921C118.16 20.921 118.653 20.7397 118.993 20.377C119.345 20.0143 119.52 19.51 119.52 18.864V18.031C119.294 18.2463 119.073 18.4277 118.857 18.575C118.653 18.711 118.444 18.8243 118.228 18.915C118.013 19.0057 117.786 19.068 117.548 19.102C117.31 19.1473 117.049 19.17 116.766 19.17C116.143 19.17 115.571 19.0623 115.049 18.847C114.528 18.6317 114.075 18.3313 113.689 17.946C113.315 17.5607 113.02 17.1017 112.805 16.569C112.601 16.025 112.499 15.4243 112.499 14.767C112.499 14.0983 112.613 13.4807 112.839 12.914C113.066 12.336 113.372 11.8373 113.757 11.418C114.154 10.9873 114.618 10.653 115.151 10.415C115.695 10.1657 116.284 10.041 116.919 10.041C117.95 10.041 118.818 10.4263 119.52 11.197V10.279H122.597ZM127.273 10.279L129.347 14.75L131.455 10.279H134.889L130.35 19H128.293L123.805 10.279H127.273ZM138.407 14.597C138.407 14.8917 138.458 15.1637 138.56 15.413C138.674 15.651 138.815 15.8607 138.985 16.042C139.167 16.2233 139.376 16.365 139.614 16.467C139.864 16.569 140.124 16.62 140.396 16.62C140.668 16.62 140.923 16.569 141.161 16.467C141.411 16.365 141.62 16.2233 141.79 16.042C141.972 15.8607 142.113 15.651 142.215 15.413C142.329 15.1637 142.385 14.8973 142.385 14.614C142.385 14.342 142.329 14.087 142.215 13.849C142.113 13.5997 141.972 13.3843 141.79 13.203C141.62 13.0217 141.411 12.88 141.161 12.778C140.923 12.676 140.668 12.625 140.396 12.625C140.124 12.625 139.864 12.676 139.614 12.778C139.376 12.88 139.167 13.0217 138.985 13.203C138.815 13.3843 138.674 13.594 138.56 13.832C138.458 14.07 138.407 14.325 138.407 14.597ZM135.16 14.563C135.16 13.917 135.291 13.3163 135.551 12.761C135.812 12.1943 136.175 11.707 136.639 11.299C137.104 10.8797 137.654 10.551 138.288 10.313C138.934 10.075 139.637 9.956 140.396 9.956C141.144 9.956 141.836 10.075 142.47 10.313C143.116 10.5397 143.672 10.8627 144.136 11.282C144.612 11.69 144.981 12.183 145.241 12.761C145.502 13.3277 145.632 13.9567 145.632 14.648C145.632 15.3393 145.496 15.974 145.224 16.552C144.964 17.1187 144.601 17.6117 144.136 18.031C143.672 18.439 143.111 18.7563 142.453 18.983C141.807 19.2097 141.105 19.323 140.345 19.323C139.597 19.323 138.906 19.2097 138.271 18.983C137.637 18.7563 137.087 18.4333 136.622 18.014C136.169 17.5947 135.812 17.096 135.551 16.518C135.291 15.9287 135.16 15.277 135.16 14.563Z" fill="white"/>
<path d="M43.079 23C44.1057 23 44.8537 23.2017 45.323 23.605C45.7923 24.0083 46.027 24.5767 46.027 25.31C46.027 25.7427 45.928 26.1497 45.73 26.531C45.5393 26.905 45.213 27.2093 44.751 27.444C44.2963 27.6787 43.6767 27.796 42.892 27.796H41.99V30.854H41V23H43.079ZM42.991 23.847H41.99V26.949H42.782C43.53 26.949 44.0873 26.828 44.454 26.586C44.8207 26.344 45.004 25.9333 45.004 25.354C45.004 24.848 44.8427 24.4703 44.52 24.221C44.1973 23.9717 43.6877 23.847 42.991 23.847ZM49.7612 24.859C50.4798 24.859 51.0115 25.0167 51.3562 25.332C51.7008 25.6473 51.8732 26.1497 51.8732 26.839V30.854H51.1692L50.9822 30.018H50.9382C50.6815 30.3407 50.4102 30.579 50.1242 30.733C49.8455 30.887 49.4568 30.964 48.9582 30.964C48.4228 30.964 47.9792 30.8247 47.6272 30.546C47.2752 30.26 47.0992 29.8163 47.0992 29.215C47.0992 28.6283 47.3302 28.1773 47.7922 27.862C48.2542 27.5393 48.9655 27.3633 49.9262 27.334L50.9272 27.301V26.949C50.9272 26.4577 50.8208 26.1167 50.6082 25.926C50.3955 25.7353 50.0948 25.64 49.7062 25.64C49.3982 25.64 49.1048 25.6877 48.8262 25.783C48.5475 25.871 48.2872 25.9737 48.0452 26.091L47.7482 25.365C48.0048 25.2257 48.3092 25.1083 48.6612 25.013C49.0132 24.9103 49.3798 24.859 49.7612 24.859ZM50.0472 28.005C49.3138 28.0343 48.8042 28.1517 48.5182 28.357C48.2395 28.5623 48.1002 28.852 48.1002 29.226C48.1002 29.556 48.1992 29.798 48.3972 29.952C48.6025 30.106 48.8628 30.183 49.1782 30.183C49.6768 30.183 50.0912 30.0473 50.4212 29.776C50.7512 29.4973 50.9162 29.072 50.9162 28.5V27.972L50.0472 28.005ZM55.2452 24.848C55.9198 24.848 56.4552 24.9837 56.8512 25.255C57.2545 25.519 57.4562 25.9003 57.4562 26.399C57.4562 26.7583 57.3572 27.0443 57.1592 27.257C56.9612 27.4623 56.6898 27.6127 56.3452 27.708V27.752C56.5798 27.818 56.7962 27.9097 56.9942 28.027C57.1922 28.1443 57.3498 28.2983 57.4672 28.489C57.5918 28.6797 57.6542 28.9253 57.6542 29.226C57.6542 29.7173 57.4488 30.1317 57.0382 30.469C56.6348 30.799 56.0005 30.964 55.1352 30.964C54.7098 30.964 54.3248 30.9273 53.9802 30.854C53.6355 30.788 53.3495 30.6963 53.1222 30.579V29.71C53.3715 29.8273 53.6648 29.9337 54.0022 30.029C54.3468 30.1243 54.7208 30.172 55.1242 30.172C55.5642 30.172 55.9345 30.0987 56.2352 29.952C56.5432 29.798 56.6972 29.5377 56.6972 29.171C56.6972 28.511 56.1362 28.181 55.0142 28.181H54.2222V27.389H54.8602C55.3662 27.389 55.7695 27.323 56.0702 27.191C56.3782 27.0517 56.5322 26.817 56.5322 26.487C56.5322 26.2083 56.4148 25.9993 56.1802 25.86C55.9528 25.7207 55.6228 25.651 55.1902 25.651C54.8675 25.651 54.5815 25.684 54.3322 25.75C54.0902 25.8087 53.8225 25.9003 53.5292 26.025L53.1882 25.255C53.8042 24.9837 54.4898 24.848 55.2452 24.848ZM63.8278 26.443C63.8278 26.8097 63.7178 27.0957 63.4978 27.301C63.2778 27.5063 62.9954 27.6457 62.6508 27.719V27.763C63.0174 27.8143 63.3364 27.9463 63.6078 28.159C63.8791 28.3643 64.0148 28.687 64.0148 29.127C64.0148 29.6257 63.8278 30.04 63.4538 30.37C63.0871 30.6927 62.4784 30.854 61.6278 30.854H59.0868V24.958H61.6168C62.0348 24.958 62.4088 25.0057 62.7388 25.101C63.0761 25.189 63.3401 25.343 63.5308 25.563C63.7288 25.7757 63.8278 26.069 63.8278 26.443ZM62.8488 26.564C62.8488 26.2853 62.7461 26.0837 62.5408 25.959C62.3428 25.827 62.0164 25.761 61.5618 25.761H60.0548V27.378H61.3857C62.3611 27.378 62.8488 27.1067 62.8488 26.564ZM63.0138 29.127C63.0138 28.7897 62.8854 28.5477 62.6288 28.401C62.3721 28.2543 61.9944 28.181 61.4958 28.181H60.0548V30.073H61.5178C62.0018 30.073 62.3721 30.0033 62.6288 29.864C62.8854 29.7173 63.0138 29.4717 63.0138 29.127ZM66.3376 28.555C66.3376 28.643 66.334 28.775 66.3266 28.951C66.3193 29.127 66.3083 29.303 66.2936 29.479C66.2863 29.655 66.279 29.7943 66.2716 29.897L69.4286 24.958H70.6166V30.854H69.7146V27.378C69.7146 27.2607 69.7146 27.1067 69.7146 26.916C69.722 26.7253 69.7293 26.5383 69.7366 26.355C69.744 26.1643 69.7513 26.0213 69.7586 25.926L66.6236 30.854H65.4246V24.958H66.3376V28.555ZM77.234 26.443C77.234 26.8097 77.124 27.0957 76.904 27.301C76.684 27.5063 76.4017 27.6457 76.057 27.719V27.763C76.4237 27.8143 76.7427 27.9463 77.014 28.159C77.2853 28.3643 77.421 28.687 77.421 29.127C77.421 29.6257 77.234 30.04 76.86 30.37C76.4933 30.6927 75.8847 30.854 75.034 30.854H72.493V24.958H75.023C75.441 24.958 75.815 25.0057 76.145 25.101C76.4823 25.189 76.7463 25.343 76.937 25.563C77.135 25.7757 77.234 26.069 77.234 26.443ZM76.255 26.564C76.255 26.2853 76.1523 26.0837 75.947 25.959C75.749 25.827 75.4227 25.761 74.968 25.761H73.461V27.378H74.792C75.7673 27.378 76.255 27.1067 76.255 26.564ZM76.42 29.127C76.42 28.7897 76.2917 28.5477 76.035 28.401C75.7783 28.2543 75.4007 28.181 74.902 28.181H73.461V30.073H74.924C75.408 30.073 75.7783 30.0033 76.035 29.864C76.2917 29.7173 76.42 29.4717 76.42 29.127ZM81.0639 24.859C81.7826 24.859 82.3142 25.0167 82.6589 25.332C83.0036 25.6473 83.1759 26.1497 83.1759 26.839V30.854H82.4719L82.2849 30.018H82.2409C81.9842 30.3407 81.7129 30.579 81.4269 30.733C81.1482 30.887 80.7596 30.964 80.2609 30.964C79.7256 30.964 79.2819 30.8247 78.9299 30.546C78.5779 30.26 78.4019 29.8163 78.4019 29.215C78.4019 28.6283 78.6329 28.1773 79.0949 27.862C79.5569 27.5393 80.2682 27.3633 81.2289 27.334L82.2299 27.301V26.949C82.2299 26.4577 82.1236 26.1167 81.9109 25.926C81.6982 25.7353 81.3976 25.64 81.0089 25.64C80.7009 25.64 80.4076 25.6877 80.1289 25.783C79.8502 25.871 79.5899 25.9737 79.3479 26.091L79.0509 25.365C79.3076 25.2257 79.6119 25.1083 79.9639 25.013C80.3159 24.9103 80.6826 24.859 81.0639 24.859ZM81.3499 28.005C80.6166 28.0343 80.1069 28.1517 79.8209 28.357C79.5422 28.5623 79.4029 28.852 79.4029 29.226C79.4029 29.556 79.5019 29.798 79.6999 29.952C79.9052 30.106 80.1656 30.183 80.4809 30.183C80.9796 30.183 81.3939 30.0473 81.7239 29.776C82.0539 29.4973 82.2189 29.072 82.2189 28.5V27.972L81.3499 28.005ZM87.2739 24.848C87.7799 24.848 88.2126 24.958 88.5719 25.178C88.9386 25.398 89.2172 25.7097 89.4079 26.113C89.6059 26.509 89.7049 26.9747 89.7049 27.51V28.093H85.6679C85.6826 28.7603 85.8512 29.27 86.1739 29.622C86.5039 29.9667 86.9622 30.139 87.5489 30.139C87.9229 30.139 88.2529 30.106 88.5389 30.04C88.8322 29.9667 89.1329 29.864 89.4409 29.732V30.579C89.1402 30.711 88.8432 30.8063 88.5499 30.865C88.2566 30.931 87.9082 30.964 87.5049 30.964C86.9476 30.964 86.4526 30.8503 86.0199 30.623C85.5946 30.3957 85.2609 30.0583 85.0189 29.611C84.7842 29.1563 84.6669 28.6027 84.6669 27.95C84.6669 27.3047 84.7732 26.751 84.9859 26.289C85.2059 25.827 85.5102 25.4713 85.8989 25.222C86.2949 24.9727 86.7532 24.848 87.2739 24.848ZM87.2629 25.64C86.8009 25.64 86.4342 25.7903 86.1629 26.091C85.8989 26.3843 85.7412 26.795 85.6899 27.323H88.6929C88.6856 26.8243 88.5682 26.421 88.3409 26.113C88.1136 25.7977 87.7542 25.64 87.2629 25.64ZM97.5309 24.958V30.854H96.6619V27.092C96.6619 26.938 96.6656 26.7767 96.6729 26.608C96.6876 26.4393 96.7022 26.2743 96.7169 26.113H96.6839L94.7589 30.854H93.9449L92.0749 26.113H92.0419C92.0639 26.443 92.0749 26.7803 92.0749 27.125V30.854H91.2059V24.958H92.4929L94.3519 29.699L96.2439 24.958H97.5309ZM105.612 24.848C106.338 24.848 106.921 25.101 107.361 25.607C107.809 26.113 108.033 26.8757 108.033 27.895C108.033 28.8997 107.809 29.6623 107.361 30.183C106.921 30.7037 106.335 30.964 105.602 30.964C105.147 30.964 104.769 30.8797 104.468 30.711C104.175 30.535 103.944 30.3333 103.775 30.106H103.71C103.724 30.2307 103.739 30.3883 103.753 30.579C103.768 30.7697 103.775 30.9347 103.775 31.074V33.494H102.808V24.958H103.6L103.732 25.761H103.775C103.951 25.5043 104.182 25.288 104.468 25.112C104.754 24.936 105.136 24.848 105.612 24.848ZM105.437 25.662C104.835 25.662 104.41 25.8307 104.161 26.168C103.919 26.5053 103.79 27.0187 103.775 27.708V27.895C103.775 28.621 103.893 29.182 104.127 29.578C104.369 29.9667 104.813 30.161 105.458 30.161C105.818 30.161 106.111 30.062 106.339 29.864C106.573 29.666 106.746 29.3983 106.856 29.061C106.973 28.7163 107.032 28.324 107.032 27.884C107.032 27.2093 106.899 26.6703 106.635 26.267C106.379 25.8637 105.979 25.662 105.437 25.662ZM108.544 24.958H109.578L110.854 28.313C110.964 28.6063 111.063 28.8887 111.151 29.16C111.239 29.424 111.305 29.677 111.349 29.919H111.393C111.437 29.7357 111.506 29.4973 111.602 29.204C111.697 28.9033 111.796 28.6027 111.899 28.302L113.098 24.958H114.143L111.602 31.668C111.396 32.2253 111.129 32.669 110.799 32.999C110.476 33.329 110.029 33.494 109.457 33.494C109.281 33.494 109.127 33.483 108.995 33.461C108.863 33.4463 108.749 33.428 108.654 33.406V32.636C108.734 32.6507 108.83 32.6653 108.94 32.68C109.057 32.6947 109.178 32.702 109.303 32.702C109.64 32.702 109.911 32.6067 110.117 32.416C110.329 32.2253 110.494 31.9723 110.612 31.657L110.92 30.876L108.544 24.958ZM117.44 30.964C116.919 30.964 116.454 30.8577 116.043 30.645C115.64 30.4323 115.321 30.1023 115.086 29.655C114.859 29.2077 114.745 28.6357 114.745 27.939C114.745 27.213 114.866 26.6227 115.108 26.168C115.35 25.7133 115.676 25.3797 116.087 25.167C116.505 24.9543 116.978 24.848 117.506 24.848C117.807 24.848 118.096 24.881 118.375 24.947C118.654 25.0057 118.881 25.079 119.057 25.167L118.76 25.97C118.584 25.904 118.379 25.8417 118.144 25.783C117.909 25.7243 117.689 25.695 117.484 25.695C116.325 25.695 115.746 26.4393 115.746 27.928C115.746 28.6393 115.885 29.1857 116.164 29.567C116.45 29.941 116.872 30.128 117.429 30.128C117.752 30.128 118.034 30.095 118.276 30.029C118.525 29.963 118.753 29.8823 118.958 29.787V30.645C118.76 30.7477 118.54 30.8247 118.298 30.876C118.063 30.9347 117.777 30.964 117.44 30.964ZM122.725 30.964C122.204 30.964 121.739 30.8577 121.328 30.645C120.925 30.4323 120.606 30.1023 120.371 29.655C120.144 29.2077 120.03 28.6357 120.03 27.939C120.03 27.213 120.151 26.6227 120.393 26.168C120.635 25.7133 120.962 25.3797 121.372 25.167C121.79 24.9543 122.263 24.848 122.791 24.848C123.092 24.848 123.382 24.881 123.66 24.947C123.939 25.0057 124.166 25.079 124.342 25.167L124.045 25.97C123.869 25.904 123.664 25.8417 123.429 25.783C123.195 25.7243 122.974 25.695 122.769 25.695C121.61 25.695 121.031 26.4393 121.031 27.928C121.031 28.6393 121.17 29.1857 121.449 29.567C121.735 29.941 122.157 30.128 122.714 30.128C123.037 30.128 123.319 30.095 123.561 30.029C123.81 29.963 124.038 29.8823 124.243 29.787V30.645C124.045 30.7477 123.825 30.8247 123.583 30.876C123.348 30.9347 123.062 30.964 122.725 30.964ZM129.132 24.958H130.188L127.669 27.796L130.397 30.854H129.275L126.613 27.862V30.854H125.645V24.958H126.613V27.818L129.132 24.958ZM130.544 24.958H131.578L132.854 28.313C132.964 28.6063 133.063 28.8887 133.151 29.16C133.239 29.424 133.305 29.677 133.349 29.919H133.393C133.437 29.7357 133.506 29.4973 133.602 29.204C133.697 28.9033 133.796 28.6027 133.899 28.302L135.098 24.958H136.143L133.602 31.668C133.396 32.2253 133.129 32.669 132.799 32.999C132.476 33.329 132.029 33.494 131.457 33.494C131.281 33.494 131.127 33.483 130.995 33.461C130.863 33.4463 130.749 33.428 130.654 33.406V32.636C130.734 32.6507 130.83 32.6653 130.94 32.68C131.057 32.6947 131.178 32.702 131.303 32.702C131.64 32.702 131.911 32.6067 132.117 32.416C132.329 32.2253 132.494 31.9723 132.612 31.657L132.92 30.876L130.544 24.958ZM144.731 27.895C144.731 28.8703 144.496 29.6257 144.027 30.161C143.558 30.6963 142.923 30.964 142.124 30.964C141.376 30.964 140.771 30.7293 140.309 30.26C139.854 29.7907 139.598 29.1123 139.539 28.225H138.043V30.854H137.075V24.958H138.043V27.411H139.55C139.631 26.5823 139.898 25.948 140.353 25.508C140.808 25.068 141.405 24.848 142.146 24.848C142.652 24.848 143.099 24.969 143.488 25.211C143.877 25.4457 144.181 25.7903 144.401 26.245C144.621 26.6923 144.731 27.2423 144.731 27.895ZM140.529 27.895C140.529 28.6357 140.657 29.2003 140.914 29.589C141.171 29.9703 141.578 30.161 142.135 30.161C142.7 30.161 143.107 29.9703 143.356 29.589C143.605 29.2003 143.73 28.6357 143.73 27.895C143.73 27.1543 143.602 26.597 143.345 26.223C143.096 25.849 142.692 25.662 142.135 25.662C141.578 25.662 141.171 25.849 140.914 26.223C140.657 26.597 140.529 27.1543 140.529 27.895ZM152.47 24.848C153.196 24.848 153.779 25.101 154.219 25.607C154.666 26.113 154.89 26.8757 154.89 27.895C154.89 28.8997 154.666 29.6623 154.219 30.183C153.779 30.7037 153.192 30.964 152.459 30.964C152.004 30.964 151.627 30.8797 151.326 30.711C151.033 30.535 150.802 30.3333 150.633 30.106H150.567C150.582 30.2307 150.596 30.3883 150.611 30.579C150.626 30.7697 150.633 30.9347 150.633 31.074V33.494H149.665V24.958H150.457L150.589 25.761H150.633C150.809 25.5043 151.04 25.288 151.326 25.112C151.612 24.936 151.993 24.848 152.47 24.848ZM152.294 25.662C151.693 25.662 151.267 25.8307 151.018 26.168C150.776 26.5053 150.648 27.0187 150.633 27.708V27.895C150.633 28.621 150.75 29.182 150.985 29.578C151.227 29.9667 151.671 30.161 152.316 30.161C152.675 30.161 152.969 30.062 153.196 29.864C153.431 29.666 153.603 29.3983 153.713 29.061C153.83 28.7163 153.889 28.324 153.889 27.884C153.889 27.2093 153.757 26.6703 153.493 26.267C153.236 25.8637 152.837 25.662 152.294 25.662ZM158.709 24.848C159.215 24.848 159.648 24.958 160.007 25.178C160.374 25.398 160.653 25.7097 160.843 26.113C161.041 26.509 161.14 26.9747 161.14 27.51V28.093H157.103C157.118 28.7603 157.287 29.27 157.609 29.622C157.939 29.9667 158.398 30.139 158.984 30.139C159.358 30.139 159.688 30.106 159.974 30.04C160.268 29.9667 160.568 29.864 160.876 29.732V30.579C160.576 30.711 160.279 30.8063 159.985 30.865C159.692 30.931 159.344 30.964 158.94 30.964C158.383 30.964 157.888 30.8503 157.455 30.623C157.03 30.3957 156.696 30.0583 156.454 29.611C156.22 29.1563 156.102 28.6027 156.102 27.95C156.102 27.3047 156.209 26.751 156.421 26.289C156.641 25.827 156.946 25.4713 157.334 25.222C157.73 24.9727 158.189 24.848 158.709 24.848ZM158.698 25.64C158.236 25.64 157.87 25.7903 157.598 26.091C157.334 26.3843 157.177 26.795 157.125 27.323H160.128C160.121 26.8243 160.004 26.421 159.776 26.113C159.549 25.7977 159.19 25.64 158.698 25.64ZM163.488 27.103C163.488 27.7777 163.866 28.115 164.621 28.115C164.988 28.115 165.322 28.06 165.622 27.95C165.923 27.8327 166.231 27.6787 166.546 27.488V24.958H167.514V30.854H166.546V28.225C166.216 28.4377 165.89 28.6063 165.567 28.731C165.252 28.8483 164.871 28.907 164.423 28.907C163.822 28.907 163.353 28.7493 163.015 28.434C162.685 28.1187 162.52 27.697 162.52 27.169V24.958H163.488V27.103ZM172.105 27.378C173.637 27.378 174.404 27.9353 174.404 29.05C174.404 29.6 174.217 30.04 173.843 30.37C173.469 30.6927 172.875 30.854 172.061 30.854H169.388V24.958H170.356V27.378H172.105ZM173.436 29.105C173.436 28.7457 173.307 28.5037 173.051 28.379C172.801 28.247 172.449 28.181 171.995 28.181H170.356V30.073H172.017C172.427 30.073 172.765 29.9997 173.029 29.853C173.3 29.7063 173.436 29.457 173.436 29.105Z" fill="white"/>
<path d="M18 36C27.9411 36 36 27.9411 36 18C36 8.05887 27.9411 0 18 0C8.05887 0 0 8.05887 0 18C0 27.9411 8.05887 36 18 36Z" fill="url(#paint0_linear_1430_102)"/>
<defs>
<linearGradient id="paint0_linear_1430_102" x1="18" y1="18" x2="18" y2="36" gradientUnits="userSpaceOnUse">
<stop stop-color="#B467E9"/>
<stop offset="1" stop-color="#E967CC"/>
</linearGradient>
</defs>
</svg>
