<svg width="127" height="27" viewBox="0 0 127 27" fill="none" xmlns="http://www.w3.org/2000/svg">
<path d="M32.5197 4.49997V13.8304H30.0942V4.49997H32.5197ZM34.2585 7.48224H36.4983V8.28658C36.8035 7.91535 37.1129 7.66786 37.4264 7.54411C37.7398 7.41214 38.107 7.34612 38.5277 7.34612C38.9732 7.34612 39.3527 7.42037 39.6662 7.56886C39.9879 7.70913 40.2602 7.9112 40.4829 8.17521C40.6644 8.38973 40.7881 8.62892 40.8541 8.89294C40.9201 9.15695 40.9531 9.45802 40.9531 9.79628V13.8304H38.7133V10.6254C38.7133 10.3119 38.6886 10.0603 38.6391 9.87053C38.5978 9.67253 38.5194 9.51581 38.404 9.40029C38.305 9.3013 38.1936 9.2312 38.0699 9.18993C37.9461 9.14865 37.8141 9.12805 37.6739 9.12805C37.2943 9.12805 37.0015 9.24357 36.7953 9.47454C36.5973 9.69728 36.4983 10.019 36.4983 10.4398V13.8304H34.2585V7.48224ZM42.4759 7.48224H44.7157V8.28658C45.021 7.91535 45.3304 7.66786 45.6438 7.54411C45.9573 7.41214 46.3244 7.34612 46.7452 7.34612C47.1906 7.34612 47.5702 7.42037 47.8836 7.56886C48.2054 7.70913 48.4776 7.9112 48.7003 8.17521C48.8819 8.38973 49.0056 8.62892 49.0716 8.89294C49.1376 9.15695 49.1706 9.45802 49.1706 9.79628V13.8304H46.9308V10.6254C46.9308 10.3119 46.906 10.0603 46.8565 9.87053C46.8153 9.67253 46.7369 9.51581 46.6214 9.40029C46.5224 9.3013 46.411 9.2312 46.2873 9.18993C46.1635 9.14865 46.0316 9.12805 45.8913 9.12805C45.5118 9.12805 45.219 9.24357 45.0127 9.47454C44.8147 9.69728 44.7157 10.019 44.7157 10.4398V13.8304H42.4759V7.48224ZM52.8095 10.6254C52.8095 10.8399 52.8466 11.0379 52.9209 11.2194C53.0033 11.3926 53.1065 11.5452 53.2302 11.6772C53.3622 11.8092 53.5148 11.9123 53.6881 11.9866C53.8695 12.0608 54.0593 12.0979 54.2573 12.0979C54.4553 12.0979 54.6409 12.0608 54.8142 11.9866C54.9956 11.9123 55.1483 11.8092 55.272 11.6772C55.404 11.5452 55.5071 11.3926 55.5814 11.2194C55.6639 11.0379 55.7051 10.844 55.7051 10.6378C55.7051 10.4398 55.6639 10.2541 55.5814 10.0809C55.5071 9.89943 55.404 9.74263 55.272 9.61066C55.1483 9.47869 54.9956 9.37555 54.8142 9.3013C54.6409 9.22705 54.4553 9.18993 54.2573 9.18993C54.0593 9.18993 53.8695 9.22705 53.6881 9.3013C53.5148 9.37555 53.3622 9.47869 53.2302 9.61066C53.1065 9.74263 53.0033 9.89528 52.9209 10.0685C52.8466 10.2418 52.8095 10.4274 52.8095 10.6254ZM50.4459 10.6006C50.4459 10.1304 50.5408 9.69313 50.7306 9.28892C50.9203 8.87641 51.1843 8.5217 51.5225 8.22471C51.8608 7.9195 52.2609 7.68023 52.7229 7.50699C53.1931 7.33374 53.7046 7.24712 54.2573 7.24712C54.8018 7.24712 55.305 7.33374 55.767 7.50699C56.2372 7.67201 56.6415 7.90712 56.9797 8.21234C57.3262 8.50933 57.5943 8.86819 57.7841 9.28892C57.9738 9.70143 58.0687 10.1593 58.0687 10.6625C58.0687 11.1657 57.9697 11.6277 57.7717 12.0484C57.5819 12.461 57.318 12.8198 56.9797 13.125C56.6415 13.422 56.2331 13.653 55.7546 13.818C55.2844 13.983 54.7729 14.0655 54.2202 14.0655C53.6757 14.0655 53.1725 13.983 52.7105 13.818C52.2485 13.653 51.8484 13.4179 51.5102 13.1127C51.1802 12.8074 50.9203 12.4444 50.7306 12.0237C50.5408 11.5947 50.4459 11.1204 50.4459 10.6006ZM66.1993 4.49997V11.7762H69.1073V13.8304H63.7739V4.49997H66.1993ZM72.3893 7.48224V13.8304H70.1495V7.48224H72.3893ZM70.001 5.04445C70.001 4.87121 70.034 4.71034 70.1 4.56184C70.166 4.4051 70.2567 4.26898 70.3723 4.15348C70.4878 4.03798 70.6198 3.94724 70.7682 3.88124C70.925 3.81524 71.09 3.78225 71.2632 3.78225C71.4365 3.78225 71.5973 3.81524 71.7458 3.88124C71.9026 3.94724 72.0387 4.03798 72.1542 4.15348C72.2697 4.26898 72.3604 4.4051 72.4264 4.56184C72.4925 4.71034 72.5254 4.87121 72.5254 5.04445C72.5254 5.21769 72.4925 5.38269 72.4264 5.53943C72.3604 5.68793 72.2697 5.81992 72.1542 5.93542C72.0387 6.05092 71.9026 6.14166 71.7458 6.20766C71.5973 6.27366 71.4365 6.30665 71.2632 6.30665C71.09 6.30665 70.925 6.27366 70.7682 6.20766C70.6198 6.14166 70.4878 6.05092 70.3723 5.93542C70.2567 5.81992 70.166 5.68793 70.1 5.53943C70.034 5.38269 70.001 5.21769 70.001 5.04445ZM73.9198 7.48224H76.1596V8.28658C76.4646 7.91535 76.774 7.66786 77.0877 7.54411C77.4015 7.41214 77.7683 7.34612 78.1891 7.34612C78.6345 7.34612 79.0138 7.42037 79.3275 7.56886C79.6493 7.70913 79.9215 7.9112 80.1442 8.17521C80.3255 8.38973 80.4492 8.62892 80.5155 8.89294C80.5817 9.15695 80.6145 9.45802 80.6145 9.79628V13.8304H78.3747V10.6254C78.3747 10.3119 78.3499 10.0603 78.3004 9.87053C78.2589 9.67253 78.181 9.51581 78.0653 9.40029C77.9663 9.3013 77.8549 9.2312 77.7312 9.18993C77.6075 9.14865 77.4757 9.12805 77.3352 9.12805C76.956 9.12805 76.6626 9.24357 76.4566 9.47454C76.2586 9.69728 76.1596 10.019 76.1596 10.4398V13.8304H73.9198V7.48224ZM84.2162 10.6254C84.2162 10.8316 84.2533 11.0255 84.3276 11.207C84.4018 11.3802 84.5008 11.5329 84.6245 11.6648C84.757 11.7968 84.9092 11.9 85.0824 11.9742C85.2644 12.0485 85.458 12.0856 85.664 12.0856C85.862 12.0856 86.0476 12.0485 86.2209 11.9742C86.4028 11.9 86.555 11.7968 86.6787 11.6648C86.8112 11.5329 86.9138 11.3802 86.9881 11.207C87.0703 11.0255 87.1118 10.8357 87.1118 10.6378C87.1118 10.4315 87.0703 10.2418 86.9881 10.0685C86.9138 9.89528 86.8112 9.74263 86.6787 9.61066C86.547 9.47869 86.3897 9.37555 86.2085 9.3013C86.0353 9.22705 85.854 9.18993 85.664 9.18993C85.466 9.18993 85.2804 9.2312 85.1072 9.31367C84.9339 9.38792 84.7811 9.49107 84.6493 9.62304C84.5175 9.74678 84.4098 9.89528 84.3276 10.0685C84.2533 10.2418 84.2162 10.4274 84.2162 10.6254ZM89.2403 7.48224V13.3973C89.2403 13.752 89.2199 14.0697 89.1784 14.3501C89.1369 14.6306 89.0794 14.8781 89.0051 15.0926C88.9061 15.3648 88.7496 15.6165 88.5349 15.8474C88.3289 16.0867 88.077 16.2929 87.7801 16.4662C87.4831 16.6394 87.1446 16.7755 86.7654 16.8745C86.3941 16.9735 85.9901 17.023 85.5526 17.023C85.0577 17.023 84.6042 16.9611 84.1914 16.8374C83.7794 16.7137 83.4162 16.5404 83.1025 16.3177C82.7975 16.1032 82.5456 15.8474 82.3476 15.5504C82.1496 15.2617 82.0179 14.9441 81.9516 14.5976H84.4761C84.6333 15.0183 84.9878 15.2287 85.5403 15.2287C86.0105 15.2287 86.3694 15.0967 86.6168 14.8327C86.8731 14.5687 87.0005 14.2016 87.0005 13.7314V13.125C86.836 13.2818 86.6751 13.4138 86.5179 13.521C86.3694 13.62 86.2172 13.7025 86.06 13.7685C85.9035 13.8345 85.7383 13.8799 85.565 13.9046C85.3918 13.9376 85.2018 13.9541 84.9958 13.9541C84.5423 13.9541 84.1259 13.8757 83.746 13.719C83.3667 13.5623 83.037 13.3436 82.756 13.0632C82.4838 12.7827 82.269 12.4486 82.1125 12.0608C81.964 11.6648 81.8898 11.2276 81.8898 10.7491C81.8898 10.2624 81.9728 9.8128 82.1373 9.40029C82.3025 8.97956 82.5252 8.61655 82.8055 8.31133C83.0945 7.99782 83.4322 7.75448 83.8202 7.58123C84.2162 7.39977 84.6449 7.30899 85.1072 7.30899C85.8576 7.30899 86.4895 7.58946 87.0005 8.15046V7.48224H89.2403ZM92.644 7.48224L94.1537 10.7367L95.6881 7.48224H98.1878L94.8838 13.8304H93.3865L90.1196 7.48224H92.644ZM100.749 10.6254C100.749 10.8399 100.786 11.0379 100.86 11.2194C100.943 11.3926 101.046 11.5452 101.169 11.6772C101.302 11.8092 101.454 11.9123 101.627 11.9866C101.809 12.0608 101.998 12.0979 102.196 12.0979C102.394 12.0979 102.58 12.0608 102.753 11.9866C102.935 11.9123 103.087 11.8092 103.211 11.6772C103.344 11.5452 103.446 11.3926 103.52 11.2194C103.603 11.0379 103.644 10.844 103.644 10.6378C103.644 10.4398 103.603 10.2541 103.52 10.0809C103.446 9.89943 103.344 9.74263 103.211 9.61066C103.087 9.47869 102.935 9.37555 102.753 9.3013C102.58 9.22705 102.394 9.18993 102.196 9.18993C101.998 9.18993 101.809 9.22705 101.627 9.3013C101.454 9.37555 101.302 9.47869 101.169 9.61066C101.046 9.74263 100.943 9.89528 100.86 10.0685C100.786 10.2418 100.749 10.4274 100.749 10.6254ZM98.3851 10.6006C98.3851 10.1304 98.4804 9.69313 98.6697 9.28892C98.8596 8.87641 99.1239 8.5217 99.4616 8.22471C99.8001 7.9195 100.2 7.68023 100.662 7.50699C101.132 7.33374 101.644 7.24712 102.196 7.24712C102.741 7.24712 103.245 7.33374 103.706 7.50699C104.176 7.67201 104.581 7.90712 104.919 8.21234C105.265 8.50933 105.534 8.86819 105.723 9.28892C105.913 9.70143 106.008 10.1593 106.008 10.6625C106.008 11.1657 105.909 11.6277 105.711 12.0484C105.522 12.461 105.257 12.8198 104.919 13.125C104.581 13.422 104.173 13.653 103.694 13.818C103.224 13.983 102.713 14.0655 102.159 14.0655C101.615 14.0655 101.112 13.983 100.65 13.818C100.188 13.653 99.7877 13.4179 99.4493 13.1127C99.1195 12.8074 98.8596 12.4444 98.6697 12.0237C98.4804 11.5947 98.3851 11.1204 98.3851 10.6006Z" fill="white"/>
<path d="M31.4064 17.5762C32.1538 17.5762 32.6982 17.7231 33.0398 18.0166C33.3815 18.3102 33.5523 18.7239 33.5523 19.2577C33.5523 19.5727 33.4802 19.869 33.3361 20.1465C33.1973 20.4187 32.9598 20.6403 32.6235 20.8111C32.2925 20.9819 31.8415 21.0673 31.2703 21.0673H30.6137V23.2933H29.8931V17.5762H31.4064ZM31.3423 18.1928H30.6137V20.4508H31.1902C31.7347 20.4508 32.1404 20.3627 32.4073 20.1865C32.6742 20.0104 32.8076 19.7114 32.8076 19.2898C32.8076 18.9214 32.6902 18.6465 32.4553 18.465C32.2204 18.2836 31.8495 18.1928 31.3423 18.1928ZM36.2705 18.9294C36.7936 18.9294 37.1806 19.0442 37.4315 19.2737C37.6823 19.5033 37.8078 19.869 37.8078 20.3707V23.2933H37.2954L37.1593 22.6847H37.1272C36.9404 22.9196 36.7429 23.0931 36.5347 23.2052C36.3318 23.3173 36.0489 23.3734 35.686 23.3734C35.2962 23.3734 34.9733 23.272 34.7171 23.0691C34.4609 22.8609 34.3328 22.5379 34.3328 22.1002C34.3328 21.6732 34.5009 21.3449 34.8372 21.1154C35.1735 20.8805 35.6913 20.7524 36.3906 20.731L37.1192 20.707V20.4508C37.1192 20.0932 37.0418 19.8449 36.887 19.7061C36.7322 19.5673 36.5133 19.4979 36.2304 19.4979C36.0062 19.4979 35.7927 19.5327 35.5899 19.602C35.387 19.6661 35.1975 19.7408 35.0214 19.8262L34.8052 19.2978C34.992 19.1964 35.2135 19.1109 35.4698 19.0415C35.726 18.9668 35.9928 18.9294 36.2705 18.9294ZM36.4787 21.2195C35.9448 21.2408 35.5739 21.3262 35.3657 21.4757C35.1628 21.6251 35.0614 21.836 35.0614 22.1082C35.0614 22.3485 35.1335 22.5246 35.2776 22.6367C35.427 22.7488 35.6165 22.8049 35.8461 22.8049C36.209 22.8049 36.5107 22.7061 36.7509 22.5086C36.9911 22.3057 37.1112 21.9961 37.1112 21.5798V21.1954L36.4787 21.2195ZM40.2624 18.9214C40.7534 18.9214 41.1431 19.0202 41.4314 19.2177C41.725 19.4099 41.8718 19.6874 41.8718 20.0504C41.8718 20.312 41.7997 20.5201 41.6556 20.675C41.5115 20.8244 41.3139 20.9339 41.0631 21.0033V21.0353C41.2338 21.0833 41.3914 21.1501 41.5355 21.2355C41.6796 21.3209 41.7943 21.433 41.8798 21.5718C41.9705 21.7106 42.0159 21.8894 42.0159 22.1082C42.0159 22.4659 41.8664 22.7675 41.5675 23.013C41.2739 23.2533 40.8122 23.3734 40.1823 23.3734C39.8726 23.3734 39.5924 23.3466 39.3415 23.2933C39.0906 23.2452 38.8825 23.1785 38.717 23.0931V22.4606C38.8985 22.5459 39.112 22.6234 39.3576 22.6928C39.6084 22.7621 39.8806 22.7968 40.1743 22.7968C40.4946 22.7968 40.7641 22.7435 40.983 22.6367C41.2072 22.5246 41.3193 22.3351 41.3193 22.0682C41.3193 21.5878 40.9109 21.3476 40.0942 21.3476H39.5177V20.7711H39.9821C40.3504 20.7711 40.644 20.723 40.8629 20.6269C41.0871 20.5255 41.1992 20.3547 41.1992 20.1145C41.1992 19.9116 41.1137 19.7595 40.943 19.6581C40.7774 19.5567 40.5372 19.5059 40.2223 19.5059C39.9874 19.5059 39.7792 19.53 39.5978 19.578C39.4216 19.6207 39.2268 19.6874 39.0133 19.7782L38.765 19.2177C39.2134 19.0202 39.7125 18.9214 40.2624 18.9214ZM46.5098 20.0825C46.5098 20.3494 46.4297 20.5576 46.2696 20.707C46.1094 20.8564 45.9039 20.9579 45.653 21.0113V21.0433C45.9199 21.0806 46.1521 21.1767 46.3496 21.3316C46.5471 21.481 46.6459 21.7159 46.6459 22.0362C46.6459 22.3992 46.5098 22.7008 46.2375 22.941C45.9706 23.1759 45.5275 23.2933 44.9084 23.2933H43.0587V19.0015H44.9003C45.2046 19.0015 45.4769 19.0362 45.7171 19.1056C45.9626 19.1696 46.1548 19.2817 46.2936 19.4419C46.4377 19.5967 46.5098 19.8102 46.5098 20.0825ZM45.7971 20.1705C45.7971 19.9677 45.7224 19.8209 45.5729 19.7301C45.4288 19.6341 45.1912 19.586 44.8603 19.586H43.7633V20.7631H44.7321C45.4421 20.7631 45.7971 20.5656 45.7971 20.1705ZM45.9172 22.0362C45.9172 21.7907 45.8238 21.6145 45.637 21.5077C45.4501 21.4009 45.1752 21.3476 44.8123 21.3476H43.7633V22.7248H44.8283C45.1806 22.7248 45.4501 22.674 45.637 22.5726C45.8238 22.4659 45.9172 22.2871 45.9172 22.0362ZM48.3367 21.6198C48.3367 21.6839 48.3341 21.78 48.3287 21.9081C48.3234 22.0362 48.3154 22.1643 48.3047 22.2924C48.2993 22.4205 48.294 22.5219 48.2886 22.5967L50.5867 19.0015H51.4514V23.2933H50.7949V20.7631C50.7949 20.6777 50.7949 20.5656 50.7949 20.4268C50.8002 20.2879 50.8056 20.1518 50.8109 20.0184C50.8163 19.8796 50.8216 19.7755 50.8269 19.7061L48.5449 23.2933H47.6721V19.0015H48.3367V21.6198ZM56.2683 20.0825C56.2683 20.3494 56.1883 20.5576 56.0281 20.707C55.868 20.8564 55.6625 20.9579 55.4116 21.0113V21.0433C55.6785 21.0806 55.9107 21.1767 56.1082 21.3316C56.3057 21.481 56.4045 21.7159 56.4045 22.0362C56.4045 22.3992 56.2683 22.7008 55.9961 22.941C55.7292 23.1759 55.2862 23.2933 54.6669 23.2933H52.8173V19.0015H54.6589C54.9632 19.0015 55.2354 19.0362 55.4756 19.1056C55.7212 19.1696 55.9133 19.2817 56.0522 19.4419C56.1963 19.5967 56.2683 19.8102 56.2683 20.0825ZM55.5557 20.1705C55.5557 19.9677 55.481 19.8209 55.3315 19.7301C55.1874 19.6341 54.9499 19.586 54.6189 19.586H53.5219V20.7631H54.4908C55.2007 20.7631 55.5557 20.5656 55.5557 20.1705ZM55.6758 22.0362C55.6758 21.7907 55.5824 21.6145 55.3956 21.5077C55.2087 21.4009 54.9339 21.3476 54.5708 21.3476H53.5219V22.7248H54.5869C54.9392 22.7248 55.2087 22.674 55.3956 22.5726C55.5824 22.4659 55.6758 22.2871 55.6758 22.0362ZM59.0562 18.9294C59.5793 18.9294 59.9663 19.0442 60.2172 19.2737C60.4681 19.5033 60.5935 19.869 60.5935 20.3707V23.2933H60.0811L59.945 22.6847H59.9129C59.7261 22.9196 59.5286 23.0931 59.3204 23.2052C59.1175 23.3173 58.8347 23.3734 58.4717 23.3734C58.082 23.3734 57.759 23.272 57.5028 23.0691C57.2466 22.8609 57.1185 22.5379 57.1185 22.1002C57.1185 21.6732 57.2866 21.3449 57.6229 21.1154C57.9592 20.8805 58.477 20.7524 59.1763 20.731L59.9049 20.707V20.4508C59.9049 20.0932 59.8276 19.8449 59.6727 19.7061C59.5179 19.5673 59.2991 19.4979 59.0161 19.4979C58.792 19.4979 58.5785 19.5327 58.3756 19.602C58.1727 19.6661 57.9832 19.7408 57.8071 19.8262L57.5909 19.2978C57.7777 19.1964 57.9993 19.1109 58.2555 19.0415C58.5117 18.9668 58.7786 18.9294 59.0562 18.9294ZM59.2644 21.2195C58.7306 21.2408 58.3596 21.3262 58.1514 21.4757C57.9485 21.6251 57.8471 21.836 57.8471 22.1082C57.8471 22.3485 57.9192 22.5246 58.0633 22.6367C58.2127 22.7488 58.4023 22.8049 58.6318 22.8049C58.9948 22.8049 59.2964 22.7061 59.5366 22.5086C59.7768 22.3057 59.8969 21.9961 59.8969 21.5798V21.1954L59.2644 21.2195ZM63.5765 18.9214C63.9449 18.9214 64.2598 19.0015 64.5214 19.1616C64.7883 19.3218 64.9911 19.5487 65.1299 19.8422C65.274 20.1305 65.3461 20.4695 65.3461 20.8591V21.2835H62.4075C62.4182 21.7693 62.5409 22.1403 62.7758 22.3965C63.016 22.6474 63.3496 22.7728 63.7767 22.7728C64.049 22.7728 64.2892 22.7488 64.4974 22.7008C64.7109 22.6474 64.9297 22.5726 65.1539 22.4766V23.0931C64.935 23.1892 64.7189 23.2586 64.5054 23.3013C64.2919 23.3493 64.0383 23.3734 63.7447 23.3734C63.339 23.3734 62.9787 23.2906 62.6637 23.1251C62.3541 22.9597 62.1112 22.7141 61.9351 22.3885C61.7642 22.0575 61.6789 21.6545 61.6789 21.1794C61.6789 20.7097 61.7562 20.3066 61.9111 19.9704C62.0712 19.6341 62.2927 19.3751 62.5757 19.1937C62.8639 19.0122 63.1975 18.9214 63.5765 18.9214ZM63.5685 19.4979C63.2322 19.4979 62.9653 19.6073 62.7678 19.8262C62.5757 20.0397 62.4609 20.3387 62.4235 20.723H64.6095C64.6041 20.36 64.5187 20.0664 64.3532 19.8422C64.1878 19.6127 63.9262 19.4979 63.5685 19.4979ZM71.0428 19.0015V23.2933H70.4102V20.5549C70.4102 20.4428 70.4129 20.3254 70.4182 20.2026C70.4289 20.0798 70.4395 19.9597 70.4502 19.8422H70.4262L69.025 23.2933H68.4325L67.0713 19.8422H67.0472C67.0633 20.0825 67.0713 20.328 67.0713 20.5789V23.2933H66.4387V19.0015H67.3755L68.7287 22.4525L70.1059 19.0015H71.0428ZM76.9251 18.9214C77.4536 18.9214 77.878 19.1056 78.1982 19.4739C78.5243 19.8422 78.6874 20.3974 78.6874 21.1394C78.6874 21.8707 78.5243 22.4258 78.1982 22.8049C77.878 23.1839 77.4514 23.3734 76.9178 23.3734C76.5866 23.3734 76.3115 23.312 76.0924 23.1892C75.8791 23.0611 75.711 22.9143 75.5879 22.7488H75.5406C75.5508 22.8396 75.5617 22.9543 75.5719 23.0931C75.5828 23.2319 75.5879 23.352 75.5879 23.4534V25.215H74.884V19.0015H75.4606L75.5566 19.586H75.5879C75.7161 19.3992 75.8842 19.2417 76.0924 19.1136C76.3006 18.9855 76.5786 18.9214 76.9251 18.9214ZM76.7977 19.514C76.3595 19.514 76.0502 19.6367 75.8689 19.8823C75.6928 20.1278 75.5989 20.5015 75.5879 21.0033V21.1394C75.5879 21.6679 75.6738 22.0762 75.8442 22.3645C76.0203 22.6474 76.3435 22.7888 76.813 22.7888C77.0751 22.7888 77.2883 22.7168 77.4543 22.5726C77.6246 22.4285 77.7506 22.2337 77.8306 21.9881C77.9158 21.7372 77.9588 21.4517 77.9588 21.1314C77.9588 20.6403 77.8619 20.2479 77.6698 19.9543C77.4834 19.6608 77.1923 19.514 76.7977 19.514ZM79.0594 19.0015H79.812L80.7408 21.4437C80.8209 21.6572 80.893 21.8627 80.957 22.0602C81.0211 22.2524 81.0691 22.4365 81.1012 22.6127H81.1332C81.1652 22.4793 81.2155 22.3057 81.2853 22.0922C81.3545 21.8733 81.4266 21.6545 81.5015 21.4356L82.3743 19.0015H83.135L81.2853 23.8858C81.1354 24.2915 80.941 24.6145 80.7008 24.8547C80.4657 25.0949 80.1403 25.215 79.724 25.215C79.5958 25.215 79.4837 25.207 79.3877 25.191C79.2916 25.1803 79.2086 25.1669 79.1394 25.1509V24.5904C79.1977 24.6011 79.2676 24.6118 79.3476 24.6225C79.4328 24.6332 79.5209 24.6385 79.6119 24.6385C79.8572 24.6385 80.0544 24.5691 80.2044 24.4303C80.3587 24.2915 80.4788 24.1073 80.5647 23.8778L80.7889 23.3093L79.0594 19.0015ZM85.5349 23.3734C85.1557 23.3734 84.8172 23.296 84.518 23.1412C84.2247 22.9863 83.9924 22.7461 83.8214 22.4205C83.6562 22.0949 83.5732 21.6786 83.5732 21.1714C83.5732 20.6429 83.6613 20.2133 83.8374 19.8823C84.0136 19.5513 84.2509 19.3085 84.55 19.1536C84.8543 18.9988 85.1986 18.9214 85.5829 18.9214C85.802 18.9214 86.0124 18.9454 86.2155 18.9935C86.4186 19.0362 86.5838 19.0896 86.7119 19.1536L86.4958 19.7381C86.3676 19.6901 86.2184 19.6448 86.0474 19.602C85.8763 19.5593 85.7162 19.538 85.5669 19.538C84.7233 19.538 84.3018 20.0798 84.3018 21.1634C84.3018 21.6812 84.403 22.0789 84.6061 22.3565C84.8143 22.6287 85.1214 22.7648 85.5269 22.7648C85.762 22.7648 85.9673 22.7408 86.1434 22.6928C86.3247 22.6447 86.4907 22.586 86.6399 22.5166V23.1412C86.4958 23.2159 86.3356 23.272 86.1595 23.3093C85.9884 23.352 85.7802 23.3734 85.5349 23.3734ZM89.3819 23.3734C89.0027 23.3734 88.6642 23.296 88.365 23.1412C88.0717 22.9863 87.8395 22.7461 87.6684 22.4205C87.5032 22.0949 87.4202 21.6786 87.4202 21.1714C87.4202 20.6429 87.5083 20.2133 87.6844 19.8823C87.8606 19.5513 88.0986 19.3085 88.3971 19.1536C88.7013 18.9988 89.0456 18.9214 89.43 18.9214C89.6491 18.9214 89.8602 18.9454 90.0625 18.9935C90.2656 19.0362 90.4309 19.0896 90.559 19.1536L90.3428 19.7381C90.2147 19.6901 90.0654 19.6448 89.8944 19.602C89.7241 19.5593 89.5632 19.538 89.414 19.538C88.5703 19.538 88.1488 20.0798 88.1488 21.1634C88.1488 21.6812 88.25 22.0789 88.4531 22.3565C88.6613 22.6287 88.9685 22.7648 89.3739 22.7648C89.609 22.7648 89.8143 22.7408 89.9905 22.6928C90.1717 22.6447 90.3377 22.586 90.4869 22.5166V23.1412C90.3428 23.2159 90.1826 23.272 90.0065 23.3093C89.8354 23.352 89.6272 23.3734 89.3819 23.3734ZM94.0457 19.0015H94.8144L92.9807 21.0673L94.9665 23.2933H94.1498L92.2121 21.1154V23.2933H91.5074V19.0015H92.2121V21.0833L94.0457 19.0015ZM95.0735 19.0015H95.8262L96.755 21.4437C96.8351 21.6572 96.9071 21.8627 96.9712 22.0602C97.0352 22.2524 97.0833 22.4365 97.1153 22.6127H97.1473C97.1794 22.4793 97.2296 22.3057 97.2995 22.0922C97.3686 21.8733 97.4407 21.6545 97.5157 21.4356L98.3884 19.0015H99.1491L97.2995 23.8858C97.1495 24.2915 96.9552 24.6145 96.715 24.8547C96.4798 25.0949 96.1545 25.215 95.7381 25.215C95.61 25.215 95.4979 25.207 95.4018 25.191C95.3057 25.1803 95.2227 25.1669 95.1536 25.1509V24.5904C95.2118 24.6011 95.2817 24.6118 95.3618 24.6225C95.4469 24.6332 95.535 24.6385 95.626 24.6385C95.8713 24.6385 96.0686 24.5691 96.2185 24.4303C96.3728 24.2915 96.4929 24.1073 96.5788 23.8778L96.803 23.3093L95.0735 19.0015ZM105.4 21.1394C105.4 21.8493 105.229 22.3992 104.888 22.7888C104.547 23.1785 104.084 23.3734 103.503 23.3734C102.958 23.3734 102.518 23.2025 102.182 22.8609C101.85 22.5193 101.664 22.0255 101.621 21.3796H100.532V23.2933H99.8275V19.0015H100.532V20.7871H101.629C101.688 20.1839 101.882 19.7221 102.214 19.4019C102.545 19.0816 102.979 18.9214 103.519 18.9214C103.887 18.9214 104.212 19.0095 104.496 19.1857C104.779 19.3565 105 19.6073 105.16 19.9383C105.32 20.2639 105.4 20.6643 105.4 21.1394ZM102.342 21.1394C102.342 21.6786 102.435 22.0895 102.622 22.3725C102.809 22.65 103.105 22.7888 103.511 22.7888C103.922 22.7888 104.218 22.65 104.4 22.3725C104.581 22.0895 104.672 21.6786 104.672 21.1394C104.672 20.6002 104.579 20.1946 104.392 19.9223C104.21 19.6501 103.916 19.514 103.511 19.514C103.105 19.514 102.809 19.6501 102.622 19.9223C102.435 20.1946 102.342 20.6002 102.342 21.1394ZM111.034 18.9214C111.562 18.9214 111.987 19.1056 112.307 19.4739C112.632 19.8422 112.795 20.3974 112.795 21.1394C112.795 21.8707 112.632 22.4258 112.307 22.8049C111.987 23.1839 111.559 23.3734 111.026 23.3734C110.695 23.3734 110.42 23.312 110.201 23.1892C109.988 23.0611 109.82 22.9143 109.697 22.7488H109.649C109.659 22.8396 109.67 22.9543 109.681 23.0931C109.691 23.2319 109.697 23.352 109.697 23.4534V25.215H108.992V19.0015H109.568L109.665 19.586H109.697C109.825 19.3992 109.993 19.2417 110.201 19.1136C110.409 18.9855 110.687 18.9214 111.034 18.9214ZM110.906 19.514C110.468 19.514 110.158 19.6367 109.977 19.8823C109.801 20.1278 109.708 20.5015 109.697 21.0033V21.1394C109.697 21.6679 109.782 22.0762 109.953 22.3645C110.129 22.6474 110.452 22.7888 110.922 22.7888C111.183 22.7888 111.397 22.7168 111.562 22.5726C111.733 22.4285 111.858 22.2337 111.939 21.9881C112.024 21.7372 112.067 21.4517 112.067 21.1314C112.067 20.6403 111.971 20.2479 111.778 19.9543C111.591 19.6608 111.301 19.514 110.906 19.514ZM115.575 18.9214C115.944 18.9214 116.259 19.0015 116.52 19.1616C116.787 19.3218 116.99 19.5487 117.129 19.8422C117.273 20.1305 117.345 20.4695 117.345 20.8591V21.2835H114.406C114.417 21.7693 114.54 22.1403 114.775 22.3965C115.015 22.6474 115.349 22.7728 115.775 22.7728C116.048 22.7728 116.288 22.7488 116.496 22.7008C116.71 22.6474 116.928 22.5726 117.153 22.4766V23.0931C116.934 23.1892 116.718 23.2586 116.504 23.3013C116.291 23.3493 116.037 23.3734 115.743 23.3734C115.338 23.3734 114.978 23.2906 114.662 23.1251C114.353 22.9597 114.11 22.7141 113.934 22.3885C113.763 22.0575 113.678 21.6545 113.678 21.1794C113.678 20.7097 113.755 20.3066 113.91 19.9704C114.07 19.6341 114.292 19.3751 114.574 19.1937C114.863 19.0122 115.197 18.9214 115.575 18.9214ZM115.567 19.4979C115.231 19.4979 114.965 19.6073 114.767 19.8262C114.574 20.0397 114.46 20.3387 114.422 20.723H116.608C116.603 20.36 116.518 20.0664 116.352 19.8422C116.187 19.6127 115.925 19.4979 115.567 19.4979ZM119.054 20.5629C119.054 21.054 119.329 21.2995 119.879 21.2995C120.146 21.2995 120.389 21.2595 120.607 21.1794C120.826 21.094 121.051 20.9819 121.28 20.8431V19.0015H121.985V23.2933H121.28V21.3796C121.04 21.5344 120.802 21.6572 120.567 21.7479C120.338 21.8333 120.061 21.876 119.735 21.876C119.297 21.876 118.956 21.7612 118.71 21.5317C118.469 21.3022 118.349 20.9953 118.349 20.6109V19.0015H119.054V20.5629ZM125.326 20.7631C126.442 20.7631 127 21.1687 127 21.9801C127 22.3805 126.864 22.7008 126.591 22.941C126.319 23.1759 125.887 23.2933 125.294 23.2933H123.349V19.0015H124.053V20.7631H125.326ZM126.295 22.0202C126.295 21.7586 126.201 21.5825 126.015 21.4917C125.833 21.3956 125.577 21.3476 125.246 21.3476H124.053V22.7248H125.262C125.561 22.7248 125.807 22.6714 125.999 22.5646C126.196 22.4579 126.295 22.2764 126.295 22.0202Z" fill="white"/>
<path d="M13.1025 26.2049C20.3387 26.2049 26.2049 20.3387 26.2049 13.1025C26.2049 5.86617 20.3387 0 13.1025 0C5.86617 0 0 5.86617 0 13.1025C0 20.3387 5.86617 26.2049 13.1025 26.2049Z" fill="url(#paint0_linear_146_96)"/>
<defs>
<linearGradient id="paint0_linear_146_96" x1="13.1025" y1="13.1025" x2="13.1025" y2="26.2049" gradientUnits="userSpaceOnUse">
<stop stop-color="#B467E9"/>
<stop offset="1" stop-color="#E967CC"/>
</linearGradient>
</defs>
</svg>
